solid recordPlayer_3d_final
facet normal -0.11151900224942374 -0.9937623016281576 -7.357611901132434e-30
outer loop
vertex 296.38297291266275 56.65094281886185 16.249999999999975
vertex 296.0615787421931 56.64478793466784 3.8499999999999748
vertex 296.38297291266275 56.65094281886185 3.8499999999999748
endloop
endfacet
facet normal 0.01914706747776149 -0.9998166781000415 -6.743762819104255e-32
outer loop
vertex 296.0615787421931 56.64478793466784 3.8499999999999748
vertex 296.38297291266275 56.65094281886185 16.249999999999975
vertex 296.0615787421931 56.64478793466784 16.249999999999975
endloop
endfacet
facet normal 0.36492369436082456 0.9310374306621875 -1.3543566869557426e-29
outer loop
vertex 295.00170021301614 51.07068449732138 16.249999999999975
vertex 295.7363551582279 50.888836496564124 3.8499999999999748
vertex 295.00170021301614 51.07068449732138 3.8499999999999748
endloop
endfacet
facet normal 0.11151900224942374 0.9937623016281576 -7.357611901132434e-30
outer loop
vertex 295.7363551582279 50.888836496564124 3.8499999999999748
vertex 295.00170021301614 51.07068449732138 16.249999999999975
vertex 295.7363551582279 50.888836496564124 16.249999999999975
endloop
endfacet
facet normal 0.0 0.0 1.0
outer loop
vertex 301.26960949596867 48.96988965771552 5.749999999999977
vertex 297.30199545193784 49.13344569152402 5.749999999999977
vertex 296.05966403544534 48.96988965771552 5.749999999999977
endloop
endfacet
facet normal 0.0 0.0 1.0
outer loop
vertex 297.30199545193784 49.13344569152402 5.749999999999977
vertex 301.26960949596867 48.96988965771552 5.749999999999977
vertex 298.45966403544514 49.6129677195485 5.749999999999977
endloop
endfacet
facet normal 0.0 0.0 1.0
outer loop
vertex 298.45966403544514 49.6129677195485 5.749999999999977
vertex 301.26960949596867 48.96988965771552 5.749999999999977
vertex 299.45377658514104 50.375777108019065 5.749999999999977
endloop
endfacet
facet normal 0.0 0.0 1.0
outer loop
vertex 299.45377658514104 50.375777108019065 5.749999999999977
vertex 301.26960949596867 48.96988965771552 5.749999999999977
vertex 300.21658597361017 51.36988965771498 5.749999999999977
endloop
endfacet
facet normal 0.0 0.0 1.0
outer loop
vertex 300.21658597361017 51.36988965771498 5.749999999999977
vertex 301.26960949596867 48.96988965771552 5.749999999999977
vertex 300.6961080016325 52.52755824121938 5.749999999999977
endloop
endfacet
facet normal 0.0 0.0 1.0
outer loop
vertex 300.6961080016325 52.52755824121938 5.749999999999977
vertex 301.26960949596867 48.96988965771552 5.749999999999977
vertex 300.8596640354457 53.76988965771299 5.749999999999977
endloop
endfacet
facet normal 0.0 0.0 1.0
outer loop
vertex 297.30199545193784 58.40633362389907 5.749999999999977
vertex 301.26960949596867 58.5698896577119 5.749999999999977
vertex 296.05966403544534 58.5698896577119 5.749999999999977
endloop
endfacet
facet normal 0.0 0.0 1.0
outer loop
vertex 301.26960949596867 58.5698896577119 5.749999999999977
vertex 297.30199545193784 58.40633362389907 5.749999999999977
vertex 298.45966403544514 57.92681159587459 5.749999999999977
endloop
endfacet
facet normal 0.0 0.0 1.0
outer loop
vertex 301.26960949596867 58.5698896577119 5.749999999999977
vertex 298.45966403544514 57.92681159587459 5.749999999999977
vertex 299.45377658514104 57.16400220740835 5.749999999999977
endloop
endfacet
facet normal 0.0 0.0 1.0
outer loop
vertex 301.26960949596867 58.5698896577119 5.749999999999977
vertex 299.45377658514104 57.16400220740835 5.749999999999977
vertex 300.21658597361017 56.16988965771244 5.749999999999977
endloop
endfacet
facet normal 0.0 0.0 1.0
outer loop
vertex 301.26960949596867 58.5698896577119 5.749999999999977
vertex 300.21658597361017 56.16988965771244 5.749999999999977
vertex 300.6961080016325 55.01222107420515 5.749999999999977
endloop
endfacet
facet normal 0.0 0.0 1.0
outer loop
vertex 301.26960949596867 58.5698896577119 5.749999999999977
vertex 300.6961080016325 55.01222107420515 5.749999999999977
vertex 300.8596640354457 53.76988965771299 5.749999999999977
endloop
endfacet
facet normal 0.0 0.0 1.0
outer loop
vertex 301.26960949596867 58.5698896577119 5.749999999999977
vertex 300.8596640354457 53.76988965771299 5.749999999999977
vertex 301.26960949596867 48.96988965771552 5.749999999999977
endloop
endfacet
facet normal 0.5710644881984513 0.8209052017855906 0.0
outer loop
vertex 301.26960949596867 58.5698896577119 5.749999999999977
vertex 308.16960949596876 53.76988965771371 2.2999999999999776
vertex 301.26960949596867 58.5698896577119 2.2999999999999776
endloop
endfacet
facet normal 0.5710644881984513 0.8209052017855906 0.0
outer loop
vertex 308.16960949596876 53.76988965771371 2.2999999999999776
vertex 301.26960949596867 58.5698896577119 5.749999999999977
vertex 308.16960949596876 53.76988965771371 3.2731641138355982
endloop
endfacet
facet normal -1.0 0.0 0.0
outer loop
vertex 289.7596640354448 57.06988965771224 5.749999999999977
vertex 289.7596640354448 50.46988965771518 2.2999999999999776
vertex 289.7596640354448 50.46988965771518 5.749999999999977
endloop
endfacet
facet normal -1.0 0.0 0.0
outer loop
vertex 289.7596640354448 50.46988965771518 2.2999999999999776
vertex 289.7596640354448 57.06988965771224 5.749999999999977
vertex 289.7596640354448 57.06988965771224 2.2999999999999776
endloop
endfacet
facet normal 0.0 1.0 0.0
outer loop
vertex 291.2596640354448 58.5698896577119 5.749999999999977
vertex 301.26960949596867 58.5698896577119 2.2999999999999776
vertex 291.2596640354448 58.5698896577119 2.2999999999999776
endloop
endfacet
facet normal 0.0 1.0 0.0
outer loop
vertex 301.26960949596867 58.5698896577119 2.2999999999999776
vertex 291.2596640354448 58.5698896577119 5.749999999999977
vertex 301.26960949596867 58.5698896577119 5.749999999999977
endloop
endfacet
facet normal 0.0 1.0 0.0
outer loop
vertex 301.26960949596867 58.5698896577119 5.749999999999977
vertex 291.2596640354448 58.5698896577119 5.749999999999977
vertex 296.05966403544534 58.5698896577119 5.749999999999977
endloop
endfacet
facet normal 0.8660254037845524 0.499999999999803 0.0
outer loop
vertex 300.21658597361017 56.16988965771244 5.749999999999977
vertex 300.6961080016325 55.01222107420515 16.249999999999975
vertex 300.6961080016325 55.01222107420515 5.749999999999977
endloop
endfacet
facet normal 0.9659258262889628 0.25881904510291437 0.0
outer loop
vertex 300.6961080016325 55.01222107420515 16.249999999999975
vertex 300.21658597361017 56.16988965771244 5.749999999999977
vertex 300.21658597361017 56.16988965771244 16.249999999999975
endloop
endfacet
facet normal 0.33785421793184245 0.0 0.9411984527322934
outer loop
vertex 308.16960949596876 53.76988965771371 3.2731641138355982
vertex 301.26960949596867 58.5698896577119 5.749999999999977
vertex 301.26960949596867 48.96988965771552 5.749999999999977
endloop
endfacet
facet normal 0.7815519050905837 0.62384021964705 -1.380723331541264e-18
outer loop
vertex 293.7938379087414 51.96129133000186 16.249999999999975
vertex 294.33914375393255 51.436478869112136 3.8499999999999748
vertex 293.7938379087414 51.96129133000186 3.8499999999999748
endloop
endfacet
facet normal 0.5934594397666901 0.8048638974086278 -1.3807233315497411e-18
outer loop
vertex 294.33914375393255 51.436478869112136 3.8499999999999748
vertex 293.7938379087414 51.96129133000186 16.249999999999975
vertex 294.33914375393255 51.436478869112136 16.249999999999975
endloop
endfacet
facet normal -0.9163828996579454 -0.40030286186148656 4.420606678062665e-31
outer loop
vertex 298.716383701262 54.93042253734925 16.249999999999975
vertex 298.92622618558516 54.2032686914003 3.8499999999999748
vertex 298.92622618558516 54.2032686914003 16.249999999999975
endloop
endfacet
facet normal -0.9887639140080814 -0.14948552557160752 3.0509963454947286e-20
outer loop
vertex 298.92622618558516 54.2032686914003 3.8499999999999748
vertex 298.716383701262 54.93042253734925 16.249999999999975
vertex 298.716383701262 54.93042253734925 3.8499999999999748
endloop
endfacet
facet normal -1.0 7.519194529947335e-14 0.0
outer loop
vertex 291.25966403544464 53.76988965771299 16.249999999999975
vertex 291.4232200692578 52.52755824121938 5.749999999999977
vertex 291.4232200692578 52.52755824121938 16.249999999999975
endloop
endfacet
facet normal -0.9659258262888338 -0.25881904510339626 0.0
outer loop
vertex 291.4232200692578 52.52755824121938 5.749999999999977
vertex 291.25966403544464 53.76988965771299 16.249999999999975
vertex 291.25966403544464 53.76988965771299 5.749999999999977
endloop
endfacet
facet normal 0.49999999999970285 0.8660254037846103 0.0
outer loop
vertex 298.45966403544514 57.92681159587459 16.249999999999975
vertex 299.45377658514104 57.16400220740835 5.749999999999977
vertex 298.45966403544514 57.92681159587459 5.749999999999977
endloop
endfacet
facet normal 0.7071067811859011 0.7071067811871941 0.0
outer loop
vertex 299.45377658514104 57.16400220740835 5.749999999999977
vertex 298.45966403544514 57.92681159587459 16.249999999999975
vertex 299.45377658514104 57.16400220740835 16.249999999999975
endloop
endfacet
facet normal -0.9887639140080814 -0.14948552557160752 3.0509963454947286e-20
outer loop
vertex 298.92622618558516 54.2032686914003 16.249999999999975
vertex 298.9407171965944 53.44658078049738 3.8499999999999748
vertex 298.9407171965944 53.44658078049738 16.249999999999975
endloop
endfacet
facet normal -0.9937623016281598 0.111519002249404 5.044553289915957e-19
outer loop
vertex 298.9407171965944 53.44658078049738 3.8499999999999748
vertex 298.92622618558516 54.2032686914003 16.249999999999975
vertex 298.92622618558516 54.2032686914003 3.8499999999999748
endloop
endfacet
facet normal 0.01914706747701813 -0.9998166781000557 0.0
outer loop
vertex 296.0615787421931 56.64478793466784 16.249999999999975
vertex 295.6262850017575 56.636451807852794 3.8499999999999748
vertex 296.0615787421931 56.64478793466784 3.8499999999999748
endloop
endfacet
facet normal 0.14948552557102968 -0.9887639140081687 4.924911815911823e-31
outer loop
vertex 295.6262850017575 56.636451807852794 3.8499999999999748
vertex 296.0615787421931 56.64478793466784 16.249999999999975
vertex 295.6262850017575 56.636451807852794 16.249999999999975
endloop
endfacet
facet normal -3.7595972649735634e-14 1.0 3.0387038464069032e-31
outer loop
vertex 296.05966403544534 58.5698896577119 16.249999999999975
vertex 297.30199545193784 58.40633362389907 5.749999999999977
vertex 296.05966403544534 58.5698896577119 5.749999999999977
endloop
endfacet
facet normal 0.25881904510352954 0.965925826288798 3.0387038464071187e-31
outer loop
vertex 297.30199545193784 58.40633362389907 5.749999999999977
vertex 296.05966403544534 58.5698896577119 16.249999999999975
vertex 297.30199545193784 58.40633362389907 16.249999999999975
endloop
endfacet
facet normal 0.14948552557102968 -0.9887639140081687 4.924911815911823e-31
outer loop
vertex 295.6262850017575 56.636451807852794 16.249999999999975
vertex 295.2627080787832 56.53153056569148 3.8499999999999748
vertex 295.6262850017575 56.636451807852794 3.8499999999999748
endloop
endfacet
facet normal 0.27726624487730095 -0.9607931252104382 9.765557025209799e-31
outer loop
vertex 295.2627080787832 56.53153056569148 3.8499999999999748
vertex 295.6262850017575 56.636451807852794 16.249999999999975
vertex 295.2627080787832 56.53153056569148 16.249999999999975
endloop
endfacet
facet normal 0.0 0.0 1.0
outer loop
vertex 291.2596640354448 48.96988965771552 2.2999999999999776
vertex 289.7596640354448 57.06988965771224 2.2999999999999776
vertex 289.7596640354448 50.46988965771518 2.2999999999999776
endloop
endfacet
facet normal 0.0 0.0 1.0
outer loop
vertex 289.7596640354448 57.06988965771224 2.2999999999999776
vertex 291.2596640354448 48.96988965771552 2.2999999999999776
vertex 291.2596640354448 58.5698896577119 2.2999999999999776
endloop
endfacet
facet normal 0.0 0.0 1.0
outer loop
vertex 291.2596640354448 58.5698896577119 2.2999999999999776
vertex 291.2596640354448 48.96988965771552 2.2999999999999776
vertex 301.26960949596867 48.96988965771552 2.2999999999999776
endloop
endfacet
facet normal 0.0 0.0 1.0
outer loop
vertex 291.2596640354448 58.5698896577119 2.2999999999999776
vertex 301.26960949596867 48.96988965771552 2.2999999999999776
vertex 301.26960949596867 58.5698896577119 2.2999999999999776
endloop
endfacet
facet normal 0.0 0.0 1.0
outer loop
vertex 301.26960949596867 58.5698896577119 2.2999999999999776
vertex 301.26960949596867 48.96988965771552 2.2999999999999776
vertex 308.16960949596876 53.76988965771371 2.2999999999999776
endloop
endfacet
facet normal -0.40030286186141817 0.916382899657975 -2.4997693482647317e-31
outer loop
vertex 297.22019691508194 51.11316999189653 16.249999999999975
vertex 297.8682623631554 51.504063531007965 3.8499999999999748
vertex 297.22019691508194 51.11316999189653 3.8499999999999748
endloop
endfacet
facet normal -0.6238402196472516 0.7815519050904227 7.035824908452512e-19
outer loop
vertex 297.8682623631554 51.504063531007965 3.8499999999999748
vertex 297.22019691508194 51.11316999189653 16.249999999999975
vertex 297.8682623631554 51.504063531007965 16.249999999999975
endloop
endfacet
facet normal 0.7071067811859011 0.7071067811871941 0.0
outer loop
vertex 299.45377658514104 57.16400220740835 5.749999999999977
vertex 300.21658597361017 56.16988965771244 16.249999999999975
vertex 300.21658597361017 56.16988965771244 5.749999999999977
endloop
endfacet
facet normal 0.8660254037845524 0.499999999999803 0.0
outer loop
vertex 300.21658597361017 56.16988965771244 16.249999999999975
vertex 299.45377658514104 57.16400220740835 5.749999999999977
vertex 299.45377658514104 57.16400220740835 16.249999999999975
endloop
endfacet
facet normal 0.0 0.0 -1.0
outer loop
vertex 291.4232200692578 55.01222107420515 5.749999999999977
vertex 291.4232200692578 52.52755824121938 5.749999999999977
vertex 291.25966403544464 53.76988965771299 5.749999999999977
endloop
endfacet
facet normal 0.0 0.0 -1.0
outer loop
vertex 291.4232200692578 52.52755824121938 5.749999999999977
vertex 291.4232200692578 55.01222107420515 5.749999999999977
vertex 291.9027420972805 56.16988965771244 5.749999999999977
endloop
endfacet
facet normal 0.0 0.0 -1.0
outer loop
vertex 291.4232200692578 52.52755824121938 5.749999999999977
vertex 291.9027420972805 56.16988965771244 5.749999999999977
vertex 291.9027420972805 51.36988965771498 5.749999999999977
endloop
endfacet
facet normal 0.0 0.0 -1.0
outer loop
vertex 291.9027420972805 51.36988965771498 5.749999999999977
vertex 291.9027420972805 56.16988965771244 5.749999999999977
vertex 292.66555148574963 57.16400220740835 5.749999999999977
endloop
endfacet
facet normal 0.0 0.0 -1.0
outer loop
vertex 291.9027420972805 51.36988965771498 5.749999999999977
vertex 292.66555148574963 57.16400220740835 5.749999999999977
vertex 292.66555148574963 50.375777108019065 5.749999999999977
endloop
endfacet
facet normal 0.0 0.0 -1.0
outer loop
vertex 292.66555148574963 50.375777108019065 5.749999999999977
vertex 292.66555148574963 57.16400220740835 5.749999999999977
vertex 293.6596640354452 57.92681159587459 5.749999999999977
endloop
endfacet
facet normal 0.0 0.0 -1.0
outer loop
vertex 292.66555148574963 50.375777108019065 5.749999999999977
vertex 293.6596640354452 57.92681159587459 5.749999999999977
vertex 293.6596640354452 49.6129677195485 5.749999999999977
endloop
endfacet
facet normal 0.0 0.0 -1.0
outer loop
vertex 293.6596640354452 49.6129677195485 5.749999999999977
vertex 293.6596640354452 57.92681159587459 5.749999999999977
vertex 294.8173326189535 58.40633362389907 5.749999999999977
endloop
endfacet
facet normal 0.0 0.0 -1.0
outer loop
vertex 293.6596640354452 49.6129677195485 5.749999999999977
vertex 294.8173326189535 58.40633362389907 5.749999999999977
vertex 294.8173326189535 49.13344569152402 5.749999999999977
endloop
endfacet
facet normal 0.0 0.0 -1.0
outer loop
vertex 294.8173326189535 49.13344569152402 5.749999999999977
vertex 294.8173326189535 58.40633362389907 5.749999999999977
vertex 296.05966403544534 58.5698896577119 5.749999999999977
endloop
endfacet
facet normal 0.0 0.0 -1.0
outer loop
vertex 294.8173326189535 49.13344569152402 5.749999999999977
vertex 296.05966403544534 58.5698896577119 5.749999999999977
vertex 296.05966403544534 48.96988965771552 5.749999999999977
endloop
endfacet
facet normal 0.0 0.0 -1.0
outer loop
vertex 296.05966403544534 48.96988965771552 5.749999999999977
vertex 296.05966403544534 58.5698896577119 5.749999999999977
vertex 297.30199545193784 58.40633362389907 5.749999999999977
endloop
endfacet
facet normal 0.0 0.0 -1.0
outer loop
vertex 296.05966403544534 48.96988965771552 5.749999999999977
vertex 297.30199545193784 58.40633362389907 5.749999999999977
vertex 297.30199545193784 49.13344569152402 5.749999999999977
endloop
endfacet
facet normal 0.0 0.0 -1.0
outer loop
vertex 297.30199545193784 49.13344569152402 5.749999999999977
vertex 297.30199545193784 58.40633362389907 5.749999999999977
vertex 298.45966403544514 57.92681159587459 5.749999999999977
endloop
endfacet
facet normal 0.0 0.0 -1.0
outer loop
vertex 297.30199545193784 49.13344569152402 5.749999999999977
vertex 298.45966403544514 57.92681159587459 5.749999999999977
vertex 298.45966403544514 49.6129677195485 5.749999999999977
endloop
endfacet
facet normal 0.0 0.0 -1.0
outer loop
vertex 298.45966403544514 49.6129677195485 5.749999999999977
vertex 298.45966403544514 57.92681159587459 5.749999999999977
vertex 299.45377658514104 57.16400220740835 5.749999999999977
endloop
endfacet
facet normal 0.0 0.0 -1.0
outer loop
vertex 298.45966403544514 49.6129677195485 5.749999999999977
vertex 299.45377658514104 57.16400220740835 5.749999999999977
vertex 299.45377658514104 50.375777108019065 5.749999999999977
endloop
endfacet
facet normal 0.0 0.0 -1.0
outer loop
vertex 299.45377658514104 50.375777108019065 5.749999999999977
vertex 299.45377658514104 57.16400220740835 5.749999999999977
vertex 300.21658597361017 56.16988965771244 5.749999999999977
endloop
endfacet
facet normal 0.0 0.0 -1.0
outer loop
vertex 299.45377658514104 50.375777108019065 5.749999999999977
vertex 300.21658597361017 56.16988965771244 5.749999999999977
vertex 300.21658597361017 51.36988965771498 5.749999999999977
endloop
endfacet
facet normal 0.0 0.0 -1.0
outer loop
vertex 300.21658597361017 51.36988965771498 5.749999999999977
vertex 300.21658597361017 56.16988965771244 5.749999999999977
vertex 300.6961080016325 55.01222107420515 5.749999999999977
endloop
endfacet
facet normal 0.0 0.0 -1.0
outer loop
vertex 300.21658597361017 51.36988965771498 5.749999999999977
vertex 300.6961080016325 55.01222107420515 5.749999999999977
vertex 300.6961080016325 52.52755824121938 5.749999999999977
endloop
endfacet
facet normal 0.0 0.0 -1.0
outer loop
vertex 300.6961080016325 52.52755824121938 5.749999999999977
vertex 300.6961080016325 55.01222107420515 5.749999999999977
vertex 300.8596640354457 53.76988965771299 5.749999999999977
endloop
endfacet
facet normal 0.277266244878935 -0.9607931252099666 1.3535986045210228e-29
outer loop
vertex 295.2627080787832 56.53153056569148 16.249999999999975
vertex 294.89913115580873 56.42660932352945 3.8499999999999748
vertex 295.2627080787832 56.53153056569148 3.8499999999999748
endloop
endfacet
facet normal 0.4003028618618079 -0.9163828996578048 1.2910319418789134e-29
outer loop
vertex 294.89913115580873 56.42660932352945 3.8499999999999748
vertex 295.2627080787832 56.53153056569148 16.249999999999975
vertex 294.89913115580873 56.42660932352945 16.249999999999975
endloop
endfacet
facet normal 0.0 1.0 0.0
outer loop
vertex 291.2596640354448 48.96988965771552 5.749999999999977
vertex 301.26960949596867 48.96988965771552 2.2999999999999776
vertex 291.2596640354448 48.96988965771552 2.2999999999999776
endloop
endfacet
facet normal 0.0 1.0 0.0
outer loop
vertex 301.26960949596867 48.96988965771552 2.2999999999999776
vertex 291.2596640354448 48.96988965771552 5.749999999999977
vertex 301.26960949596867 48.96988965771552 5.749999999999977
endloop
endfacet
facet normal 0.0 1.0 0.0
outer loop
vertex 301.26960949596867 48.96988965771552 5.749999999999977
vertex 291.2596640354448 48.96988965771552 5.749999999999977
vertex 296.05966403544534 48.96988965771552 5.749999999999977
endloop
endfacet
facet normal 0.9887639140080814 0.14948552557160752 3.0509963454947286e-20
outer loop
vertex 293.1931018853055 53.33651062402568 3.8499999999999748
vertex 293.4029443696287 52.60935677807672 16.249999999999975
vertex 293.4029443696287 52.60935677807672 3.8499999999999748
endloop
endfacet
facet normal 0.9163828996579454 0.40030286186148656 4.420606678062665e-31
outer loop
vertex 293.4029443696287 52.60935677807672 16.249999999999975
vertex 293.1931018853055 53.33651062402568 3.8499999999999748
vertex 293.1931018853055 53.33651062402568 16.249999999999975
endloop
endfacet
facet normal 0.9163828996579454 0.40030286186148656 4.420606678062665e-31
outer loop
vertex 293.4029443696287 52.60935677807672 3.8499999999999748
vertex 293.7938379087414 51.96129133000186 16.249999999999975
vertex 293.7938379087414 51.96129133000186 3.8499999999999748
endloop
endfacet
facet normal 0.7815519050905837 0.62384021964705 -1.380723331541264e-18
outer loop
vertex 293.7938379087414 51.96129133000186 16.249999999999975
vertex 293.4029443696287 52.60935677807672 3.8499999999999748
vertex 293.4029443696287 52.60935677807672 16.249999999999975
endloop
endfacet
facet normal -0.2588190451034061 0.9659258262888311 9.795580860917556e-19
outer loop
vertex 294.8173326189535 58.40633362389907 16.249999999999975
vertex 296.05966403544534 58.5698896577119 5.749999999999977
vertex 294.8173326189535 58.40633362389907 5.749999999999977
endloop
endfacet
facet normal -3.7595972649735634e-14 1.0 3.0387038464069032e-31
outer loop
vertex 296.05966403544534 58.5698896577119 5.749999999999977
vertex 294.8173326189535 58.40633362389907 16.249999999999975
vertex 296.05966403544534 58.5698896577119 16.249999999999975
endloop
endfacet
facet normal 0.0 0.0 1.0
outer loop
vertex 293.1931018853055 53.33651062402568 3.8499999999999748
vertex 293.3604588750537 54.82785348014167 3.8499999999999748
vertex 293.1786108742963 54.0931985349286 3.8499999999999748
endloop
endfacet
facet normal 0.0 0.0 1.0
outer loop
vertex 293.3604588750537 54.82785348014167 3.8499999999999748
vertex 293.1931018853055 53.33651062402568 3.8499999999999748
vertex 293.4029443696287 52.60935677807672 3.8499999999999748
endloop
endfacet
facet normal 0.0 0.0 1.0
outer loop
vertex 293.3604588750537 54.82785348014167 3.8499999999999748
vertex 293.4029443696287 52.60935677807672 3.8499999999999748
vertex 293.7262532468447 55.49040993922486 3.8499999999999748
endloop
endfacet
facet normal 0.0 0.0 1.0
outer loop
vertex 293.7262532468447 55.49040993922486 3.8499999999999748
vertex 293.4029443696287 52.60935677807672 3.8499999999999748
vertex 293.7938379087414 51.96129133000186 3.8499999999999748
endloop
endfacet
facet normal 0.0 0.0 1.0
outer loop
vertex 293.7262532468447 55.49040993922486 3.8499999999999748
vertex 293.7938379087414 51.96129133000186 3.8499999999999748
vertex 294.2510657077353 56.03571578441801 3.8499999999999748
endloop
endfacet
facet normal 0.0 0.0 1.0
outer loop
vertex 294.2510657077353 56.03571578441801 3.8499999999999748
vertex 293.7938379087414 51.96129133000186 3.8499999999999748
vertex 294.33914375393255 51.436478869112136 3.8499999999999748
endloop
endfacet
facet normal 0.0 0.0 1.0
outer loop
vertex 294.2510657077353 56.03571578441801 3.8499999999999748
vertex 294.33914375393255 51.436478869112136 3.8499999999999748
vertex 294.89913115580873 56.42660932352945 3.8499999999999748
endloop
endfacet
facet normal 0.0 0.0 1.0
outer loop
vertex 294.89913115580873 56.42660932352945 3.8499999999999748
vertex 294.33914375393255 51.436478869112136 3.8499999999999748
vertex 295.00170021301614 51.07068449732138 3.8499999999999748
endloop
endfacet
facet normal 0.0 0.0 1.0
outer loop
vertex 294.89913115580873 56.42660932352945 3.8499999999999748
vertex 295.00170021301614 51.07068449732138 3.8499999999999748
vertex 295.2627080787832 56.53153056569148 3.8499999999999748
endloop
endfacet
facet normal 0.0 0.0 1.0
outer loop
vertex 295.2627080787832 56.53153056569148 3.8499999999999748
vertex 295.00170021301614 51.07068449732138 3.8499999999999748
vertex 295.7363551582279 50.888836496564124 3.8499999999999748
endloop
endfacet
facet normal 0.0 0.0 1.0
outer loop
vertex 295.2627080787832 56.53153056569148 3.8499999999999748
vertex 295.7363551582279 50.888836496564124 3.8499999999999748
vertex 295.6262850017575 56.636451807852794 3.8499999999999748
endloop
endfacet
facet normal 0.0 0.0 1.0
outer loop
vertex 295.6262850017575 56.636451807852794 3.8499999999999748
vertex 295.7363551582279 50.888836496564124 3.8499999999999748
vertex 296.0615787421931 56.64478793466784 3.8499999999999748
endloop
endfacet
facet normal 0.0 0.0 1.0
outer loop
vertex 296.0615787421931 56.64478793466784 3.8499999999999748
vertex 295.7363551582279 50.888836496564124 3.8499999999999748
vertex 296.0577493286976 50.894991380758135 3.8499999999999748
endloop
endfacet
facet normal 0.0 0.0 1.0
outer loop
vertex 296.0615787421931 56.64478793466784 3.8499999999999748
vertex 296.0577493286976 50.894991380758135 3.8499999999999748
vertex 296.4930430691332 50.90332750757318 3.8499999999999748
endloop
endfacet
facet normal 0.0 0.0 1.0
outer loop
vertex 296.0615787421931 56.64478793466784 3.8499999999999748
vertex 296.4930430691332 50.90332750757318 3.8499999999999748
vertex 296.38297291266275 56.65094281886185 3.8499999999999748
endloop
endfacet
facet normal 0.0 0.0 1.0
outer loop
vertex 296.38297291266275 56.65094281886185 3.8499999999999748
vertex 296.4930430691332 50.90332750757318 3.8499999999999748
vertex 297.1176278578746 56.469094818104594 3.8499999999999748
endloop
endfacet
facet normal 0.0 0.0 1.0
outer loop
vertex 297.1176278578746 56.469094818104594 3.8499999999999748
vertex 296.4930430691332 50.90332750757318 3.8499999999999748
vertex 297.22019691508194 51.11316999189653 3.8499999999999748
endloop
endfacet
facet normal 0.0 0.0 1.0
outer loop
vertex 297.1176278578746 56.469094818104594 3.8499999999999748
vertex 297.22019691508194 51.11316999189653 3.8499999999999748
vertex 297.7801843169581 56.10330044631384 3.8499999999999748
endloop
endfacet
facet normal 0.0 0.0 1.0
outer loop
vertex 297.7801843169581 56.10330044631384 3.8499999999999748
vertex 297.22019691508194 51.11316999189653 3.8499999999999748
vertex 297.8682623631554 51.504063531007965 3.8499999999999748
endloop
endfacet
facet normal 0.0 0.0 1.0
outer loop
vertex 297.7801843169581 56.10330044631384 3.8499999999999748
vertex 297.8682623631554 51.504063531007965 3.8499999999999748
vertex 298.32549016214926 55.57848798542411 3.8499999999999748
endloop
endfacet
facet normal 0.0 0.0 1.0
outer loop
vertex 298.32549016214926 55.57848798542411 3.8499999999999748
vertex 297.8682623631554 51.504063531007965 3.8499999999999748
vertex 298.39307482404604 52.04936937620111 3.8499999999999748
endloop
endfacet
facet normal 0.0 0.0 1.0
outer loop
vertex 298.32549016214926 55.57848798542411 3.8499999999999748
vertex 298.39307482404604 52.04936937620111 3.8499999999999748
vertex 298.716383701262 54.93042253734925 3.8499999999999748
endloop
endfacet
facet normal 0.0 0.0 1.0
outer loop
vertex 298.716383701262 54.93042253734925 3.8499999999999748
vertex 298.39307482404604 52.04936937620111 3.8499999999999748
vertex 298.75886919583695 52.711925835284305 3.8499999999999748
endloop
endfacet
facet normal 0.0 0.0 1.0
outer loop
vertex 298.716383701262 54.93042253734925 3.8499999999999748
vertex 298.75886919583695 52.711925835284305 3.8499999999999748
vertex 298.92622618558516 54.2032686914003 3.8499999999999748
endloop
endfacet
facet normal 0.0 0.0 1.0
outer loop
vertex 298.92622618558516 54.2032686914003 3.8499999999999748
vertex 298.75886919583695 52.711925835284305 3.8499999999999748
vertex 298.9407171965944 53.44658078049738 3.8499999999999748
endloop
endfacet
facet normal 0.6238402196472516 -0.7815519050904227 7.035824908452512e-19
outer loop
vertex 294.2510657077353 56.03571578441801 3.8499999999999748
vertex 293.7262532468447 55.49040993922486 16.249999999999975
vertex 293.7262532468447 55.49040993922486 3.8499999999999748
endloop
endfacet
facet normal 0.8048638974087824 -0.5934594397664807 7.03582490840648e-19
outer loop
vertex 293.7262532468447 55.49040993922486 16.249999999999975
vertex 294.2510657077353 56.03571578441801 3.8499999999999748
vertex 294.2510657077353 56.03571578441801 16.249999999999975
endloop
endfacet
facet normal -3.761379486950996e-14 -1.0 3.341090212402434e-19
outer loop
vertex 296.05966403544534 48.96988965771552 16.249999999999975
vertex 294.8173326189535 49.13344569152402 5.749999999999977
vertex 296.05966403544534 48.96988965771552 5.749999999999977
endloop
endfacet
facet normal -0.2588190451017509 -0.9659258262892747 3.3410902124048423e-19
outer loop
vertex 294.8173326189535 49.13344569152402 5.749999999999977
vertex 296.05966403544534 48.96988965771552 16.249999999999975
vertex 294.8173326189535 49.13344569152402 16.249999999999975
endloop
endfacet
facet normal -0.8660254037844859 0.49999999999991834 2.150829838290071e-30
outer loop
vertex 291.9027420972805 56.16988965771244 16.249999999999975
vertex 291.4232200692578 55.01222107420515 5.749999999999977
vertex 291.4232200692578 55.01222107420515 16.249999999999975
endloop
endfacet
facet normal -0.9659258262889283 0.258819045103043 2.1508298382902408e-30
outer loop
vertex 291.4232200692578 55.01222107420515 5.749999999999977
vertex 291.9027420972805 56.16988965771244 16.249999999999975
vertex 291.9027420972805 56.16988965771244 5.749999999999977
endloop
endfacet
facet normal 0.9937623016281598 -0.111519002249404 5.044553289915957e-19
outer loop
vertex 293.1786108742963 54.0931985349286 3.8499999999999748
vertex 293.1931018853055 53.33651062402568 16.249999999999975
vertex 293.1931018853055 53.33651062402568 3.8499999999999748
endloop
endfacet
facet normal 0.9887639140080814 0.14948552557160752 3.0509963454947286e-20
outer loop
vertex 293.1931018853055 53.33651062402568 16.249999999999975
vertex 293.1786108742963 54.0931985349286 3.8499999999999748
vertex 293.1786108742963 54.0931985349286 16.249999999999975
endloop
endfacet
facet normal 0.9659258262888681 -0.2588190451032677 -2.308124723865692e-30
outer loop
vertex 300.6961080016325 52.52755824121938 5.749999999999977
vertex 300.21658597361017 51.36988965771498 16.249999999999975
vertex 300.21658597361017 51.36988965771498 5.749999999999977
endloop
endfacet
facet normal 0.8660254037843319 -0.5000000000001851 0.0
outer loop
vertex 300.21658597361017 51.36988965771498 16.249999999999975
vertex 300.6961080016325 52.52755824121938 5.749999999999977
vertex 300.6961080016325 52.52755824121938 16.249999999999975
endloop
endfacet
facet normal -0.7815519050905837 -0.62384021964705 -1.380723331541264e-18
outer loop
vertex 298.32549016214926 55.57848798542411 16.249999999999975
vertex 297.7801843169581 56.10330044631384 3.8499999999999748
vertex 298.32549016214926 55.57848798542411 3.8499999999999748
endloop
endfacet
facet normal -0.5934594397666901 -0.8048638974086278 -1.3807233315497411e-18
outer loop
vertex 297.7801843169581 56.10330044631384 3.8499999999999748
vertex 298.32549016214926 55.57848798542411 16.249999999999975
vertex 297.7801843169581 56.10330044631384 16.249999999999975
endloop
endfacet
facet normal -0.7071067811864624 -0.7071067811866327 0.0
outer loop
vertex 291.2596640354448 48.96988965771552 5.749999999999977
vertex 289.7596640354448 50.46988965771518 2.2999999999999776
vertex 291.2596640354448 48.96988965771552 2.2999999999999776
endloop
endfacet
facet normal -0.7071067811864624 -0.7071067811866327 0.0
outer loop
vertex 289.7596640354448 50.46988965771518 2.2999999999999776
vertex 291.2596640354448 48.96988965771552 5.749999999999977
vertex 289.7596640354448 50.46988965771518 5.749999999999977
endloop
endfacet
facet normal 0.5934594397666901 0.8048638974086278 -1.3807233315497411e-18
outer loop
vertex 294.33914375393255 51.436478869112136 16.249999999999975
vertex 295.00170021301614 51.07068449732138 3.8499999999999748
vertex 294.33914375393255 51.436478869112136 3.8499999999999748
endloop
endfacet
facet normal 0.36492369436082456 0.9310374306621875 -1.3543566869557426e-29
outer loop
vertex 295.00170021301614 51.07068449732138 3.8499999999999748
vertex 294.33914375393255 51.436478869112136 16.249999999999975
vertex 295.00170021301614 51.07068449732138 16.249999999999975
endloop
endfacet
facet normal -0.1494855255714501 0.988763914008105 -6.333902586013371e-30
outer loop
vertex 296.4930430691332 50.90332750757318 16.249999999999975
vertex 297.22019691508194 51.11316999189653 3.8499999999999748
vertex 296.4930430691332 50.90332750757318 3.8499999999999748
endloop
endfacet
facet normal -0.40030286186141817 0.916382899657975 -2.4997693482647317e-31
outer loop
vertex 297.22019691508194 51.11316999189653 3.8499999999999748
vertex 296.4930430691332 50.90332750757318 16.249999999999975
vertex 297.22019691508194 51.11316999189653 16.249999999999975
endloop
endfacet
facet normal -0.2588190451017509 -0.9659258262892747 3.3410902124048423e-19
outer loop
vertex 294.8173326189535 49.13344569152402 16.249999999999975
vertex 293.6596640354452 49.6129677195485 5.749999999999977
vertex 294.8173326189535 49.13344569152402 5.749999999999977
endloop
endfacet
facet normal -0.5000000000008232 -0.8660254037839635 1.417221834489551e-30
outer loop
vertex 293.6596640354452 49.6129677195485 5.749999999999977
vertex 294.8173326189535 49.13344569152402 16.249999999999975
vertex 293.6596640354452 49.6129677195485 16.249999999999975
endloop
endfacet
facet normal -0.9310374306621384 0.3649236943609502 4.739453655364983e-19
outer loop
vertex 298.75886919583695 52.711925835284305 16.249999999999975
vertex 298.39307482404604 52.04936937620111 3.8499999999999748
vertex 298.39307482404604 52.04936937620111 16.249999999999975
endloop
endfacet
facet normal -0.8048638974087824 0.5934594397664807 7.03582490840648e-19
outer loop
vertex 298.39307482404604 52.04936937620111 3.8499999999999748
vertex 298.75886919583695 52.711925835284305 16.249999999999975
vertex 298.75886919583695 52.711925835284305 3.8499999999999748
endloop
endfacet
facet normal 0.11151900224942374 0.9937623016281576 -7.357611901132434e-30
outer loop
vertex 295.7363551582279 50.888836496564124 16.249999999999975
vertex 296.0577493286976 50.894991380758135 3.8499999999999748
vertex 295.7363551582279 50.888836496564124 3.8499999999999748
endloop
endfacet
facet normal -0.01914706747776149 0.9998166781000415 -6.743762819104255e-32
outer loop
vertex 296.0577493286976 50.894991380758135 3.8499999999999748
vertex 295.7363551582279 50.888836496564124 16.249999999999975
vertex 296.0577493286976 50.894991380758135 16.249999999999975
endloop
endfacet
facet normal 0.0 0.0 1.0
outer loop
vertex 291.2596640354448 48.96988965771552 5.749999999999977
vertex 289.7596640354448 57.06988965771224 5.749999999999977
vertex 289.7596640354448 50.46988965771518 5.749999999999977
endloop
endfacet
facet normal 0.0 0.0 1.0
outer loop
vertex 289.7596640354448 57.06988965771224 5.749999999999977
vertex 291.2596640354448 48.96988965771552 5.749999999999977
vertex 291.25966403544464 53.76988965771299 5.749999999999977
endloop
endfacet
facet normal 0.0 0.0 1.0
outer loop
vertex 291.25966403544464 53.76988965771299 5.749999999999977
vertex 291.2596640354448 48.96988965771552 5.749999999999977
vertex 291.4232200692578 52.52755824121938 5.749999999999977
endloop
endfacet
facet normal 0.0 0.0 1.0
outer loop
vertex 291.4232200692578 52.52755824121938 5.749999999999977
vertex 291.2596640354448 48.96988965771552 5.749999999999977
vertex 291.9027420972805 51.36988965771498 5.749999999999977
endloop
endfacet
facet normal 0.0 0.0 1.0
outer loop
vertex 291.9027420972805 51.36988965771498 5.749999999999977
vertex 291.2596640354448 48.96988965771552 5.749999999999977
vertex 292.66555148574963 50.375777108019065 5.749999999999977
endloop
endfacet
facet normal 0.0 0.0 1.0
outer loop
vertex 292.66555148574963 50.375777108019065 5.749999999999977
vertex 291.2596640354448 48.96988965771552 5.749999999999977
vertex 293.6596640354452 49.6129677195485 5.749999999999977
endloop
endfacet
facet normal 0.0 0.0 1.0
outer loop
vertex 293.6596640354452 49.6129677195485 5.749999999999977
vertex 291.2596640354448 48.96988965771552 5.749999999999977
vertex 294.8173326189535 49.13344569152402 5.749999999999977
endloop
endfacet
facet normal 0.0 0.0 1.0
outer loop
vertex 294.8173326189535 49.13344569152402 5.749999999999977
vertex 291.2596640354448 48.96988965771552 5.749999999999977
vertex 296.05966403544534 48.96988965771552 5.749999999999977
endloop
endfacet
facet normal 0.0 0.0 1.0
outer loop
vertex 291.25966403544464 53.76988965771299 5.749999999999977
vertex 291.2596640354448 58.5698896577119 5.749999999999977
vertex 289.7596640354448 57.06988965771224 5.749999999999977
endloop
endfacet
facet normal 0.0 0.0 1.0
outer loop
vertex 291.2596640354448 58.5698896577119 5.749999999999977
vertex 291.25966403544464 53.76988965771299 5.749999999999977
vertex 291.4232200692578 55.01222107420515 5.749999999999977
endloop
endfacet
facet normal 0.0 0.0 1.0
outer loop
vertex 291.2596640354448 58.5698896577119 5.749999999999977
vertex 291.4232200692578 55.01222107420515 5.749999999999977
vertex 291.9027420972805 56.16988965771244 5.749999999999977
endloop
endfacet
facet normal 0.0 0.0 1.0
outer loop
vertex 291.2596640354448 58.5698896577119 5.749999999999977
vertex 291.9027420972805 56.16988965771244 5.749999999999977
vertex 292.66555148574963 57.16400220740835 5.749999999999977
endloop
endfacet
facet normal 0.0 0.0 1.0
outer loop
vertex 291.2596640354448 58.5698896577119 5.749999999999977
vertex 292.66555148574963 57.16400220740835 5.749999999999977
vertex 293.6596640354452 57.92681159587459 5.749999999999977
endloop
endfacet
facet normal 0.0 0.0 1.0
outer loop
vertex 291.2596640354448 58.5698896577119 5.749999999999977
vertex 293.6596640354452 57.92681159587459 5.749999999999977
vertex 294.8173326189535 58.40633362389907 5.749999999999977
endloop
endfacet
facet normal 0.0 0.0 1.0
outer loop
vertex 291.2596640354448 58.5698896577119 5.749999999999977
vertex 294.8173326189535 58.40633362389907 5.749999999999977
vertex 296.05966403544534 58.5698896577119 5.749999999999977
endloop
endfacet
facet normal -0.5000000000008232 -0.8660254037839635 1.417221834489551e-30
outer loop
vertex 293.6596640354452 49.6129677195485 16.249999999999975
vertex 292.66555148574963 50.375777108019065 5.749999999999977
vertex 293.6596640354452 49.6129677195485 5.749999999999977
endloop
endfacet
facet normal -0.7071067811869328 -0.7071067811861624 1.4172218344896893e-30
outer loop
vertex 292.66555148574963 50.375777108019065 5.749999999999977
vertex 293.6596640354452 49.6129677195485 16.249999999999975
vertex 292.66555148574963 50.375777108019065 16.249999999999975
endloop
endfacet
facet normal -0.8048638974087824 0.5934594397664807 7.03582490840648e-19
outer loop
vertex 298.39307482404604 52.04936937620111 16.249999999999975
vertex 297.8682623631554 51.504063531007965 3.8499999999999748
vertex 297.8682623631554 51.504063531007965 16.249999999999975
endloop
endfacet
facet normal -0.6238402196472516 0.7815519050904227 7.035824908452512e-19
outer loop
vertex 297.8682623631554 51.504063531007965 3.8499999999999748
vertex 298.39307482404604 52.04936937620111 16.249999999999975
vertex 298.39307482404604 52.04936937620111 3.8499999999999748
endloop
endfacet
facet normal -0.9937623016281598 0.111519002249404 5.044553289915957e-19
outer loop
vertex 298.9407171965944 53.44658078049738 16.249999999999975
vertex 298.75886919583695 52.711925835284305 3.8499999999999748
vertex 298.75886919583695 52.711925835284305 16.249999999999975
endloop
endfacet
facet normal -0.9310374306621384 0.3649236943609502 4.739453655364983e-19
outer loop
vertex 298.75886919583695 52.711925835284305 3.8499999999999748
vertex 298.9407171965944 53.44658078049738 16.249999999999975
vertex 298.9407171965944 53.44658078049738 3.8499999999999748
endloop
endfacet
facet normal 0.25881904510187437 -0.9659258262892416 0.0
outer loop
vertex 297.30199545193784 49.13344569152402 16.249999999999975
vertex 296.05966403544534 48.96988965771552 5.749999999999977
vertex 297.30199545193784 49.13344569152402 5.749999999999977
endloop
endfacet
facet normal -3.761379486950996e-14 -1.0 3.341090212402434e-19
outer loop
vertex 296.05966403544534 48.96988965771552 5.749999999999977
vertex 297.30199545193784 49.13344569152402 16.249999999999975
vertex 296.05966403544534 48.96988965771552 16.249999999999975
endloop
endfacet
facet normal -0.9659258262888338 -0.25881904510339626 0.0
outer loop
vertex 291.4232200692578 52.52755824121938 16.249999999999975
vertex 291.9027420972805 51.36988965771498 5.749999999999977
vertex 291.9027420972805 51.36988965771498 16.249999999999975
endloop
endfacet
facet normal -0.8660254037842655 -0.5000000000003003 0.0
outer loop
vertex 291.9027420972805 51.36988965771498 5.749999999999977
vertex 291.4232200692578 52.52755824121938 16.249999999999975
vertex 291.4232200692578 52.52755824121938 5.749999999999977
endloop
endfacet
facet normal 0.0 0.0 1.0
outer loop
vertex 291.4232200692578 52.52755824121938 16.249999999999975
vertex 291.4232200692578 55.01222107420515 16.249999999999975
vertex 291.25966403544464 53.76988965771299 16.249999999999975
endloop
endfacet
facet normal 0.0 0.0 1.0
outer loop
vertex 291.4232200692578 55.01222107420515 16.249999999999975
vertex 291.4232200692578 52.52755824121938 16.249999999999975
vertex 291.9027420972805 51.36988965771498 16.249999999999975
endloop
endfacet
facet normal 0.0 0.0 1.0
outer loop
vertex 291.4232200692578 55.01222107420515 16.249999999999975
vertex 291.9027420972805 51.36988965771498 16.249999999999975
vertex 291.9027420972805 56.16988965771244 16.249999999999975
endloop
endfacet
facet normal 0.0 0.0 1.0
outer loop
vertex 291.9027420972805 56.16988965771244 16.249999999999975
vertex 291.9027420972805 51.36988965771498 16.249999999999975
vertex 292.66555148574963 50.375777108019065 16.249999999999975
endloop
endfacet
facet normal 0.0 0.0 1.0
outer loop
vertex 291.9027420972805 56.16988965771244 16.249999999999975
vertex 292.66555148574963 50.375777108019065 16.249999999999975
vertex 292.66555148574963 57.16400220740835 16.249999999999975
endloop
endfacet
facet normal 0.0 0.0 1.0
outer loop
vertex 292.66555148574963 57.16400220740835 16.249999999999975
vertex 292.66555148574963 50.375777108019065 16.249999999999975
vertex 293.6596640354452 49.6129677195485 16.249999999999975
endloop
endfacet
facet normal 0.0 0.0 1.0
outer loop
vertex 292.66555148574963 57.16400220740835 16.249999999999975
vertex 293.6596640354452 49.6129677195485 16.249999999999975
vertex 293.1931018853055 53.33651062402568 16.249999999999975
endloop
endfacet
facet normal 0.0 0.0 1.0
outer loop
vertex 292.66555148574963 57.16400220740835 16.249999999999975
vertex 293.1931018853055 53.33651062402568 16.249999999999975
vertex 293.1786108742963 54.0931985349286 16.249999999999975
endloop
endfacet
facet normal 0.0 0.0 1.0
outer loop
vertex 293.1931018853055 53.33651062402568 16.249999999999975
vertex 293.6596640354452 49.6129677195485 16.249999999999975
vertex 293.4029443696287 52.60935677807672 16.249999999999975
endloop
endfacet
facet normal 0.0 0.0 1.0
outer loop
vertex 293.4029443696287 52.60935677807672 16.249999999999975
vertex 293.6596640354452 49.6129677195485 16.249999999999975
vertex 293.7938379087414 51.96129133000186 16.249999999999975
endloop
endfacet
facet normal 0.0 0.0 1.0
outer loop
vertex 293.7938379087414 51.96129133000186 16.249999999999975
vertex 293.6596640354452 49.6129677195485 16.249999999999975
vertex 294.8173326189535 49.13344569152402 16.249999999999975
endloop
endfacet
facet normal 0.0 0.0 1.0
outer loop
vertex 293.7938379087414 51.96129133000186 16.249999999999975
vertex 294.8173326189535 49.13344569152402 16.249999999999975
vertex 294.33914375393255 51.436478869112136 16.249999999999975
endloop
endfacet
facet normal 0.0 0.0 1.0
outer loop
vertex 294.33914375393255 51.436478869112136 16.249999999999975
vertex 294.8173326189535 49.13344569152402 16.249999999999975
vertex 295.00170021301614 51.07068449732138 16.249999999999975
endloop
endfacet
facet normal 0.0 0.0 1.0
outer loop
vertex 295.00170021301614 51.07068449732138 16.249999999999975
vertex 294.8173326189535 49.13344569152402 16.249999999999975
vertex 296.05966403544534 48.96988965771552 16.249999999999975
endloop
endfacet
facet normal 0.0 0.0 1.0
outer loop
vertex 295.00170021301614 51.07068449732138 16.249999999999975
vertex 296.05966403544534 48.96988965771552 16.249999999999975
vertex 295.7363551582279 50.888836496564124 16.249999999999975
endloop
endfacet
facet normal 0.0 0.0 1.0
outer loop
vertex 295.7363551582279 50.888836496564124 16.249999999999975
vertex 296.05966403544534 48.96988965771552 16.249999999999975
vertex 296.0577493286976 50.894991380758135 16.249999999999975
endloop
endfacet
facet normal 0.0 0.0 1.0
outer loop
vertex 296.0577493286976 50.894991380758135 16.249999999999975
vertex 296.05966403544534 48.96988965771552 16.249999999999975
vertex 296.4930430691332 50.90332750757318 16.249999999999975
endloop
endfacet
facet normal 0.0 0.0 1.0
outer loop
vertex 296.4930430691332 50.90332750757318 16.249999999999975
vertex 296.05966403544534 48.96988965771552 16.249999999999975
vertex 297.30199545193784 49.13344569152402 16.249999999999975
endloop
endfacet
facet normal 0.0 0.0 1.0
outer loop
vertex 296.4930430691332 50.90332750757318 16.249999999999975
vertex 297.30199545193784 49.13344569152402 16.249999999999975
vertex 297.22019691508194 51.11316999189653 16.249999999999975
endloop
endfacet
facet normal 0.0 0.0 1.0
outer loop
vertex 297.22019691508194 51.11316999189653 16.249999999999975
vertex 297.30199545193784 49.13344569152402 16.249999999999975
vertex 297.8682623631554 51.504063531007965 16.249999999999975
endloop
endfacet
facet normal 0.0 0.0 1.0
outer loop
vertex 297.8682623631554 51.504063531007965 16.249999999999975
vertex 297.30199545193784 49.13344569152402 16.249999999999975
vertex 298.45966403544514 49.6129677195485 16.249999999999975
endloop
endfacet
facet normal 0.0 0.0 1.0
outer loop
vertex 297.8682623631554 51.504063531007965 16.249999999999975
vertex 298.45966403544514 49.6129677195485 16.249999999999975
vertex 298.39307482404604 52.04936937620111 16.249999999999975
endloop
endfacet
facet normal 0.0 0.0 1.0
outer loop
vertex 298.39307482404604 52.04936937620111 16.249999999999975
vertex 298.45966403544514 49.6129677195485 16.249999999999975
vertex 298.75886919583695 52.711925835284305 16.249999999999975
endloop
endfacet
facet normal 0.0 0.0 1.0
outer loop
vertex 298.75886919583695 52.711925835284305 16.249999999999975
vertex 298.45966403544514 49.6129677195485 16.249999999999975
vertex 299.45377658514104 50.375777108019065 16.249999999999975
endloop
endfacet
facet normal 0.0 0.0 1.0
outer loop
vertex 298.75886919583695 52.711925835284305 16.249999999999975
vertex 299.45377658514104 50.375777108019065 16.249999999999975
vertex 298.9407171965944 53.44658078049738 16.249999999999975
endloop
endfacet
facet normal 0.0 0.0 1.0
outer loop
vertex 293.1786108742963 54.0931985349286 16.249999999999975
vertex 293.6596640354452 57.92681159587459 16.249999999999975
vertex 292.66555148574963 57.16400220740835 16.249999999999975
endloop
endfacet
facet normal 0.0 0.0 1.0
outer loop
vertex 293.6596640354452 57.92681159587459 16.249999999999975
vertex 293.1786108742963 54.0931985349286 16.249999999999975
vertex 293.3604588750537 54.82785348014167 16.249999999999975
endloop
endfacet
facet normal 0.0 0.0 1.0
outer loop
vertex 293.6596640354452 57.92681159587459 16.249999999999975
vertex 293.3604588750537 54.82785348014167 16.249999999999975
vertex 293.7262532468447 55.49040993922486 16.249999999999975
endloop
endfacet
facet normal 0.0 0.0 1.0
outer loop
vertex 293.6596640354452 57.92681159587459 16.249999999999975
vertex 293.7262532468447 55.49040993922486 16.249999999999975
vertex 294.8173326189535 58.40633362389907 16.249999999999975
endloop
endfacet
facet normal 0.0 0.0 1.0
outer loop
vertex 294.8173326189535 58.40633362389907 16.249999999999975
vertex 293.7262532468447 55.49040993922486 16.249999999999975
vertex 294.2510657077353 56.03571578441801 16.249999999999975
endloop
endfacet
facet normal 0.0 0.0 1.0
outer loop
vertex 294.8173326189535 58.40633362389907 16.249999999999975
vertex 294.2510657077353 56.03571578441801 16.249999999999975
vertex 294.89913115580873 56.42660932352945 16.249999999999975
endloop
endfacet
facet normal 0.0 0.0 1.0
outer loop
vertex 294.8173326189535 58.40633362389907 16.249999999999975
vertex 294.89913115580873 56.42660932352945 16.249999999999975
vertex 296.05966403544534 58.5698896577119 16.249999999999975
endloop
endfacet
facet normal 0.0 0.0 1.0
outer loop
vertex 296.05966403544534 58.5698896577119 16.249999999999975
vertex 294.89913115580873 56.42660932352945 16.249999999999975
vertex 295.2627080787832 56.53153056569148 16.249999999999975
endloop
endfacet
facet normal 0.0 0.0 1.0
outer loop
vertex 296.05966403544534 58.5698896577119 16.249999999999975
vertex 295.2627080787832 56.53153056569148 16.249999999999975
vertex 295.6262850017575 56.636451807852794 16.249999999999975
endloop
endfacet
facet normal 0.0 0.0 1.0
outer loop
vertex 296.05966403544534 58.5698896577119 16.249999999999975
vertex 295.6262850017575 56.636451807852794 16.249999999999975
vertex 296.0615787421931 56.64478793466784 16.249999999999975
endloop
endfacet
facet normal 0.0 0.0 1.0
outer loop
vertex 296.05966403544534 58.5698896577119 16.249999999999975
vertex 296.0615787421931 56.64478793466784 16.249999999999975
vertex 297.30199545193784 58.40633362389907 16.249999999999975
endloop
endfacet
facet normal 0.0 0.0 1.0
outer loop
vertex 297.30199545193784 58.40633362389907 16.249999999999975
vertex 296.0615787421931 56.64478793466784 16.249999999999975
vertex 296.38297291266275 56.65094281886185 16.249999999999975
endloop
endfacet
facet normal 0.0 0.0 1.0
outer loop
vertex 297.30199545193784 58.40633362389907 16.249999999999975
vertex 296.38297291266275 56.65094281886185 16.249999999999975
vertex 297.1176278578746 56.469094818104594 16.249999999999975
endloop
endfacet
facet normal 0.0 0.0 1.0
outer loop
vertex 297.30199545193784 58.40633362389907 16.249999999999975
vertex 297.1176278578746 56.469094818104594 16.249999999999975
vertex 297.7801843169581 56.10330044631384 16.249999999999975
endloop
endfacet
facet normal 0.0 0.0 1.0
outer loop
vertex 297.30199545193784 58.40633362389907 16.249999999999975
vertex 297.7801843169581 56.10330044631384 16.249999999999975
vertex 298.45966403544514 57.92681159587459 16.249999999999975
endloop
endfacet
facet normal 0.0 0.0 1.0
outer loop
vertex 298.45966403544514 57.92681159587459 16.249999999999975
vertex 297.7801843169581 56.10330044631384 16.249999999999975
vertex 298.32549016214926 55.57848798542411 16.249999999999975
endloop
endfacet
facet normal 0.0 0.0 1.0
outer loop
vertex 298.45966403544514 57.92681159587459 16.249999999999975
vertex 298.32549016214926 55.57848798542411 16.249999999999975
vertex 298.716383701262 54.93042253734925 16.249999999999975
endloop
endfacet
facet normal 0.0 0.0 1.0
outer loop
vertex 298.45966403544514 57.92681159587459 16.249999999999975
vertex 298.716383701262 54.93042253734925 16.249999999999975
vertex 299.45377658514104 57.16400220740835 16.249999999999975
endloop
endfacet
facet normal 0.0 0.0 1.0
outer loop
vertex 299.45377658514104 57.16400220740835 16.249999999999975
vertex 298.716383701262 54.93042253734925 16.249999999999975
vertex 298.92622618558516 54.2032686914003 16.249999999999975
endloop
endfacet
facet normal 0.0 0.0 1.0
outer loop
vertex 299.45377658514104 57.16400220740835 16.249999999999975
vertex 298.92622618558516 54.2032686914003 16.249999999999975
vertex 298.9407171965944 53.44658078049738 16.249999999999975
endloop
endfacet
facet normal 0.0 0.0 1.0
outer loop
vertex 299.45377658514104 57.16400220740835 16.249999999999975
vertex 298.9407171965944 53.44658078049738 16.249999999999975
vertex 299.45377658514104 50.375777108019065 16.249999999999975
endloop
endfacet
facet normal 0.0 0.0 1.0
outer loop
vertex 299.45377658514104 57.16400220740835 16.249999999999975
vertex 299.45377658514104 50.375777108019065 16.249999999999975
vertex 300.21658597361017 51.36988965771498 16.249999999999975
endloop
endfacet
facet normal 0.0 0.0 1.0
outer loop
vertex 299.45377658514104 57.16400220740835 16.249999999999975
vertex 300.21658597361017 51.36988965771498 16.249999999999975
vertex 300.21658597361017 56.16988965771244 16.249999999999975
endloop
endfacet
facet normal 0.0 0.0 1.0
outer loop
vertex 300.21658597361017 56.16988965771244 16.249999999999975
vertex 300.21658597361017 51.36988965771498 16.249999999999975
vertex 300.6961080016325 52.52755824121938 16.249999999999975
endloop
endfacet
facet normal 0.0 0.0 1.0
outer loop
vertex 300.21658597361017 56.16988965771244 16.249999999999975
vertex 300.6961080016325 52.52755824121938 16.249999999999975
vertex 300.6961080016325 55.01222107420515 16.249999999999975
endloop
endfacet
facet normal 0.0 0.0 1.0
outer loop
vertex 300.6961080016325 55.01222107420515 16.249999999999975
vertex 300.6961080016325 52.52755824121938 16.249999999999975
vertex 300.8596640354457 53.76988965771299 16.249999999999975
endloop
endfacet
facet normal 0.9659258262889628 0.25881904510291437 0.0
outer loop
vertex 300.6961080016325 55.01222107420515 5.749999999999977
vertex 300.8596640354457 53.76988965771299 16.249999999999975
vertex 300.8596640354457 53.76988965771299 5.749999999999977
endloop
endfacet
facet normal 1.0 7.520976751926465e-14 -2.3081247238657276e-30
outer loop
vertex 300.8596640354457 53.76988965771299 16.249999999999975
vertex 300.6961080016325 55.01222107420515 5.749999999999977
vertex 300.6961080016325 55.01222107420515 16.249999999999975
endloop
endfacet
facet normal -0.7071067811859633 0.7071067811871318 0.0
outer loop
vertex 292.66555148574963 57.16400220740835 16.249999999999975
vertex 291.9027420972805 56.16988965771244 5.749999999999977
vertex 291.9027420972805 56.16988965771244 16.249999999999975
endloop
endfacet
facet normal -0.8660254037844859 0.49999999999991834 2.150829838290071e-30
outer loop
vertex 291.9027420972805 56.16988965771244 5.749999999999977
vertex 292.66555148574963 57.16400220740835 16.249999999999975
vertex 292.66555148574963 57.16400220740835 5.749999999999977
endloop
endfacet
facet normal 0.8660254037843319 -0.5000000000001851 0.0
outer loop
vertex 300.21658597361017 51.36988965771498 5.749999999999977
vertex 299.45377658514104 50.375777108019065 16.249999999999975
vertex 299.45377658514104 50.375777108019065 5.749999999999977
endloop
endfacet
facet normal 0.7071067811868708 -0.7071067811862243 0.0
outer loop
vertex 299.45377658514104 50.375777108019065 16.249999999999975
vertex 300.21658597361017 51.36988965771498 5.749999999999977
vertex 300.21658597361017 51.36988965771498 16.249999999999975
endloop
endfacet
facet normal 1.0 7.520976751926465e-14 -2.3081247238657276e-30
outer loop
vertex 300.8596640354457 53.76988965771299 5.749999999999977
vertex 300.6961080016325 52.52755824121938 16.249999999999975
vertex 300.6961080016325 52.52755824121938 5.749999999999977
endloop
endfacet
facet normal 0.9659258262888681 -0.2588190451032677 -2.308124723865692e-30
outer loop
vertex 300.6961080016325 52.52755824121938 16.249999999999975
vertex 300.8596640354457 53.76988965771299 5.749999999999977
vertex 300.8596640354457 53.76988965771299 16.249999999999975
endloop
endfacet
facet normal -0.7071067811864624 0.7071067811866327 0.0
outer loop
vertex 289.7596640354448 57.06988965771224 5.749999999999977
vertex 291.2596640354448 58.5698896577119 2.2999999999999776
vertex 289.7596640354448 57.06988965771224 2.2999999999999776
endloop
endfacet
facet normal -0.7071067811864624 0.7071067811866327 0.0
outer loop
vertex 291.2596640354448 58.5698896577119 2.2999999999999776
vertex 289.7596640354448 57.06988965771224 5.749999999999977
vertex 291.2596640354448 58.5698896577119 5.749999999999977
endloop
endfacet
facet normal 0.5710644881984513 -0.8209052017855906 1.211105836795509e-16
outer loop
vertex 308.16960949596876 53.76988965771371 3.2731641138355982
vertex 301.26960949596867 48.96988965771552 2.2999999999999776
vertex 308.16960949596876 53.76988965771371 2.2999999999999776
endloop
endfacet
facet normal 0.5710644881984513 -0.8209052017855906 1.211105836795509e-16
outer loop
vertex 301.26960949596867 48.96988965771552 2.2999999999999776
vertex 308.16960949596876 53.76988965771371 3.2731641138355982
vertex 301.26960949596867 48.96988965771552 5.749999999999977
endloop
endfacet
facet normal 0.9310374306621384 -0.3649236943609502 4.739453655364983e-19
outer loop
vertex 293.3604588750537 54.82785348014167 3.8499999999999748
vertex 293.1786108742963 54.0931985349286 16.249999999999975
vertex 293.1786108742963 54.0931985349286 3.8499999999999748
endloop
endfacet
facet normal 0.9937623016281598 -0.111519002249404 5.044553289915957e-19
outer loop
vertex 293.1786108742963 54.0931985349286 16.249999999999975
vertex 293.3604588750537 54.82785348014167 3.8499999999999748
vertex 293.3604588750537 54.82785348014167 16.249999999999975
endloop
endfacet
facet normal -0.36492369436082456 -0.9310374306621875 -1.3543566869557426e-29
outer loop
vertex 297.1176278578746 56.469094818104594 16.249999999999975
vertex 296.38297291266275 56.65094281886185 3.8499999999999748
vertex 297.1176278578746 56.469094818104594 3.8499999999999748
endloop
endfacet
facet normal -0.11151900224942374 -0.9937623016281576 -7.357611901132434e-30
outer loop
vertex 296.38297291266275 56.65094281886185 3.8499999999999748
vertex 297.1176278578746 56.469094818104594 16.249999999999975
vertex 296.38297291266275 56.65094281886185 16.249999999999975
endloop
endfacet
facet normal 0.4003028618618079 -0.9163828996578048 1.2910319418789134e-29
outer loop
vertex 294.89913115580873 56.42660932352945 16.249999999999975
vertex 294.2510657077353 56.03571578441801 3.8499999999999748
vertex 294.89913115580873 56.42660932352945 3.8499999999999748
endloop
endfacet
facet normal 0.6238402196472516 -0.7815519050904227 7.035824908452512e-19
outer loop
vertex 294.2510657077353 56.03571578441801 3.8499999999999748
vertex 294.89913115580873 56.42660932352945 16.249999999999975
vertex 294.2510657077353 56.03571578441801 16.249999999999975
endloop
endfacet
facet normal -0.49999999999963574 0.8660254037846491 9.795580860914269e-19
outer loop
vertex 293.6596640354452 57.92681159587459 16.249999999999975
vertex 294.8173326189535 58.40633362389907 5.749999999999977
vertex 293.6596640354452 57.92681159587459 5.749999999999977
endloop
endfacet
facet normal -0.2588190451034061 0.9659258262888311 9.795580860917556e-19
outer loop
vertex 294.8173326189535 58.40633362389907 5.749999999999977
vertex 293.6596640354452 57.92681159587459 16.249999999999975
vertex 294.8173326189535 58.40633362389907 16.249999999999975
endloop
endfacet
facet normal -0.5934594397666901 -0.8048638974086278 -1.3807233315497411e-18
outer loop
vertex 297.7801843169581 56.10330044631384 16.249999999999975
vertex 297.1176278578746 56.469094818104594 3.8499999999999748
vertex 297.7801843169581 56.10330044631384 3.8499999999999748
endloop
endfacet
facet normal -0.36492369436082456 -0.9310374306621875 -1.3543566869557426e-29
outer loop
vertex 297.1176278578746 56.469094818104594 3.8499999999999748
vertex 297.7801843169581 56.10330044631384 16.249999999999975
vertex 297.1176278578746 56.469094818104594 16.249999999999975
endloop
endfacet
facet normal -0.7815519050905837 -0.62384021964705 -1.380723331541264e-18
outer loop
vertex 298.32549016214926 55.57848798542411 16.249999999999975
vertex 298.716383701262 54.93042253734925 3.8499999999999748
vertex 298.716383701262 54.93042253734925 16.249999999999975
endloop
endfacet
facet normal -0.9163828996579454 -0.40030286186148656 4.420606678062665e-31
outer loop
vertex 298.716383701262 54.93042253734925 3.8499999999999748
vertex 298.32549016214926 55.57848798542411 16.249999999999975
vertex 298.32549016214926 55.57848798542411 3.8499999999999748
endloop
endfacet
facet normal -0.01914706747701813 0.9998166781000557 0.0
outer loop
vertex 296.0577493286976 50.894991380758135 16.249999999999975
vertex 296.4930430691332 50.90332750757318 3.8499999999999748
vertex 296.0577493286976 50.894991380758135 3.8499999999999748
endloop
endfacet
facet normal -0.1494855255714501 0.988763914008105 -6.333902586013371e-30
outer loop
vertex 296.4930430691332 50.90332750757318 3.8499999999999748
vertex 296.0577493286976 50.894991380758135 16.249999999999975
vertex 296.4930430691332 50.90332750757318 16.249999999999975
endloop
endfacet
facet normal -0.7071067811859633 0.7071067811871318 0.0
outer loop
vertex 292.66555148574963 57.16400220740835 16.249999999999975
vertex 293.6596640354452 57.92681159587459 5.749999999999977
vertex 292.66555148574963 57.16400220740835 5.749999999999977
endloop
endfacet
facet normal -0.49999999999963574 0.8660254037846491 9.795580860914269e-19
outer loop
vertex 293.6596640354452 57.92681159587459 5.749999999999977
vertex 292.66555148574963 57.16400220740835 16.249999999999975
vertex 293.6596640354452 57.92681159587459 16.249999999999975
endloop
endfacet
facet normal 0.7071067811868708 -0.7071067811862243 0.0
outer loop
vertex 299.45377658514104 50.375777108019065 16.249999999999975
vertex 298.45966403544514 49.6129677195485 5.749999999999977
vertex 299.45377658514104 50.375777108019065 5.749999999999977
endloop
endfacet
facet normal 0.5000000000008904 -0.8660254037839246 0.0
outer loop
vertex 298.45966403544514 49.6129677195485 5.749999999999977
vertex 299.45377658514104 50.375777108019065 16.249999999999975
vertex 298.45966403544514 49.6129677195485 16.249999999999975
endloop
endfacet
facet normal -0.8660254037842655 -0.5000000000003003 0.0
outer loop
vertex 291.9027420972805 51.36988965771498 16.249999999999975
vertex 292.66555148574963 50.375777108019065 5.749999999999977
vertex 292.66555148574963 50.375777108019065 16.249999999999975
endloop
endfacet
facet normal -0.7071067811869328 -0.7071067811861624 1.4172218344896893e-30
outer loop
vertex 292.66555148574963 50.375777108019065 5.749999999999977
vertex 291.9027420972805 51.36988965771498 16.249999999999975
vertex 291.9027420972805 51.36988965771498 5.749999999999977
endloop
endfacet
facet normal 0.5000000000008904 -0.8660254037839246 0.0
outer loop
vertex 298.45966403544514 49.6129677195485 16.249999999999975
vertex 297.30199545193784 49.13344569152402 5.749999999999977
vertex 298.45966403544514 49.6129677195485 5.749999999999977
endloop
endfacet
facet normal 0.25881904510187437 -0.9659258262892416 0.0
outer loop
vertex 297.30199545193784 49.13344569152402 5.749999999999977
vertex 298.45966403544514 49.6129677195485 16.249999999999975
vertex 297.30199545193784 49.13344569152402 16.249999999999975
endloop
endfacet
facet normal 0.8048638974087824 -0.5934594397664807 7.03582490840648e-19
outer loop
vertex 293.7262532468447 55.49040993922486 3.8499999999999748
vertex 293.3604588750537 54.82785348014167 16.249999999999975
vertex 293.3604588750537 54.82785348014167 3.8499999999999748
endloop
endfacet
facet normal 0.9310374306621384 -0.3649236943609502 4.739453655364983e-19
outer loop
vertex 293.3604588750537 54.82785348014167 16.249999999999975
vertex 293.7262532468447 55.49040993922486 3.8499999999999748
vertex 293.7262532468447 55.49040993922486 16.249999999999975
endloop
endfacet
facet normal -0.9659258262889283 0.258819045103043 2.1508298382902408e-30
outer loop
vertex 291.4232200692578 55.01222107420515 16.249999999999975
vertex 291.25966403544464 53.76988965771299 5.749999999999977
vertex 291.25966403544464 53.76988965771299 16.249999999999975
endloop
endfacet
facet normal -1.0 7.519194529947335e-14 0.0
outer loop
vertex 291.25966403544464 53.76988965771299 5.749999999999977
vertex 291.4232200692578 55.01222107420515 16.249999999999975
vertex 291.4232200692578 55.01222107420515 5.749999999999977
endloop
endfacet
facet normal 0.25881904510352954 0.965925826288798 3.0387038464071187e-31
outer loop
vertex 297.30199545193784 58.40633362389907 16.249999999999975
vertex 298.45966403544514 57.92681159587459 5.749999999999977
vertex 297.30199545193784 58.40633362389907 5.749999999999977
endloop
endfacet
facet normal 0.49999999999970285 0.8660254037846103 0.0
outer loop
vertex 298.45966403544514 57.92681159587459 5.749999999999977
vertex 297.30199545193784 58.40633362389907 16.249999999999975
vertex 298.45966403544514 57.92681159587459 16.249999999999975
endloop
endfacet
endsolid recordPlayer_3d_final
