solid recordPlayer_3d_final
facet normal -0.8439346863176344 -0.5364459387766451 -1.0511638449832488e-14
outer loop
vertex 232.5540165289162 117.26576158399239 6.175000000000437
vertex 232.81547089415372 116.70358644484635 2.85000000000077
vertex 232.8154708941541 116.70358644484563 6.175000000000415
endloop
endfacet
facet normal -0.9540207348383694 -0.2997406170315554 3.165550968363335e-14
outer loop
vertex 232.81547089415372 116.70358644484635 2.85000000000077
vertex 232.5540165289162 117.26576158399239 6.175000000000437
vertex 232.55401652891604 117.26576158399239 2.8500000000006858
endloop
endfacet
facet normal 0.5000000000007236 -0.8660254037840209 2.3387996360630874e-14
outer loop
vertex 232.21217164891445 113.11216801181565 6.175000000000866
vertex 231.41024497388003 112.77999910698557 7.754773462881229e-13
vertex 232.21217164891445 113.11216801181565 7.529176144277397e-13
endloop
endfacet
facet normal 0.2588190451034337 -0.9659258262888237 5.460597068207059e-14
outer loop
vertex 231.41024497388003 112.77999910698557 7.754773462881229e-13
vertex 232.21217164891445 113.11216801181565 6.175000000000866
vertex 231.41024497388003 112.77999910698557 6.175000000000504
endloop
endfacet
facet normal 0.971985681848695 0.2350400695224697 1.2122512274958801e-13
outer loop
vertex 229.4416079716052 115.72375680014314 2.8500000000009678
vertex 229.41300129061239 115.99170247939486 6.175000000000381
vertex 229.44160797160484 115.72375680014169 6.175000000000527
endloop
endfacet
facet normal 0.9943490948916864 0.1061596792011163 1.115950909046241e-13
outer loop
vertex 229.41300129061239 115.99170247939486 6.175000000000381
vertex 229.4416079716052 115.72375680014314 2.8500000000009678
vertex 229.41300129061239 115.99170247939703 2.8500000000008776
endloop
endfacet
facet normal -0.7071067811869893 0.7071067811861059 2.407914683389197e-13
outer loop
vertex 228.19854160146568 118.34283252683943 6.175000000000719
vertex 227.67013718132813 117.65420247939629 3.694021728012255e-13
vertex 227.67013718132833 117.65420247939484 6.175000000000494
endloop
endfacet
facet normal -0.8660254037847847 0.49999999999940054 1.3512229652451955e-13
outer loop
vertex 227.67013718132813 117.65420247939629 3.694021728012255e-13
vertex 228.19854160146568 118.34283252683943 6.175000000000719
vertex 228.19854160146548 118.34283252684232 4.5400116727766244e-13
endloop
endfacet
facet normal -0.5000000000009287 0.8660254037839026 1.2424274221359976e-13
outer loop
vertex 228.8871716489108 118.87123694697912 6.175000000000702
vertex 229.68909832394496 119.20340585180848 5.611598936144826e-13
vertex 228.8871716489108 118.87123694697983 3.9196190466160867e-13
endloop
endfacet
facet normal -0.25881904510309767 0.9659258262889138 4.74386250356277e-15
outer loop
vertex 229.68909832394496 119.20340585180848 5.611598936144826e-13
vertex 228.8871716489108 118.87123694697912 6.175000000000702
vertex 229.68909832394513 119.20340585180921 6.175000000000527
endloop
endfacet
facet normal -0.8534960938610072 0.5210992398420888 1.4623278220975104e-13
outer loop
vertex 231.52265719591375 115.39764934597719 6.175000000000403
vertex 231.33575125263528 115.16606402546633 2.8500000000010917
vertex 231.33575125263528 115.16606402546489 6.175000000000268
endloop
endfacet
facet normal -0.6895435120377194 0.7242442578348051 1.7918849686213953e-13
outer loop
vertex 231.33575125263528 115.16606402546633 2.8500000000010917
vertex 231.52265719591375 115.39764934597719 6.175000000000403
vertex 231.52265719591392 115.39764934597864 2.850000000000556
endloop
endfacet
facet normal -0.7071067811861395 -0.7071067811869555 3.3721607480973664e-14
outer loop
vertex 228.19854160146872 113.64057243195174 6.175000000000787
vertex 227.6701371813305 114.3292024793956 7.048572565114838e-14
vertex 228.19854160146872 113.6405724319503 4.3708136838237504e-13
endloop
endfacet
facet normal -0.866025403783885 -0.5000000000009588 -4.065408781156365e-15
outer loop
vertex 227.6701371813305 114.3292024793956 7.048572565114838e-14
vertex 228.19854160146872 113.64057243195174 6.175000000000787
vertex 227.67013718132995 114.32920247939488 6.1750000000006855
endloop
endfacet
facet normal -0.9659258262892174 0.25881904510196363 -1.3472808287838457e-14
outer loop
vertex 227.33796827650076 116.85227580436104 6.175000000000573
vertex 227.22467164891262 115.99170247939558 2.848031783247886e-13
vertex 227.22467164891225 115.99170247939558 6.17500000000055
endloop
endfacet
facet normal -0.9999999999999999 -3.1189775745758896e-13 -1.4612688863234537e-14
outer loop
vertex 227.22467164891262 115.99170247939558 2.848031783247886e-13
vertex 227.33796827650076 116.85227580436104 6.175000000000573
vertex 227.3379682765011 116.85227580436104 6.062793573352489e-13
endloop
endfacet
facet normal 0.707106781186618 0.7071067811864772 -4.173675824616469e-14
outer loop
vertex 232.9008016963565 118.34283252684448 5.780796925097699e-13
vertex 233.42920611649492 117.65420247939845 6.1750000000003356
vertex 233.42920611649475 117.65420247939774 1.720045190228727e-13
endloop
endfacet
facet normal 0.8660254037844198 0.500000000000033 -4.173833712686838e-14
outer loop
vertex 233.42920611649492 117.65420247939845 6.1750000000003356
vertex 232.9008016963565 118.34283252684448 5.780796925097699e-13
vertex 232.9008016963565 118.3428325268452 6.17500000000055
endloop
endfacet
facet normal 4.926400550243664e-14 -1.6430400146150123e-14 -1.0
outer loop
vertex 227.3379682765011 116.85227580436104 6.062793573352489e-13
vertex 227.3379682765013 115.13112915442869 4.3708136838237504e-13
vertex 227.22467164891262 115.99170247939558 2.848031783247886e-13
endloop
endfacet
facet normal 4.926400550243664e-14 -1.6430400146150123e-14 -1.0
outer loop
vertex 227.3379682765013 115.13112915442869 4.3708136838237504e-13
vertex 227.3379682765011 116.85227580436104 6.062793573352489e-13
vertex 227.67013718132813 117.65420247939629 3.694021728012255e-13
endloop
endfacet
facet normal 4.926400550243664e-14 -1.6430400146150123e-14 -1.0
outer loop
vertex 227.3379682765013 115.13112915442869 4.3708136838237504e-13
vertex 227.67013718132813 117.65420247939629 3.694021728012255e-13
vertex 227.6701371813305 114.3292024793956 7.048572565114838e-14
endloop
endfacet
facet normal 4.926400550243664e-14 -1.6430400146150123e-14 -1.0
outer loop
vertex 227.6701371813305 114.3292024793956 7.048572565114838e-14
vertex 227.67013718132813 117.65420247939629 3.694021728012255e-13
vertex 228.19854160146548 118.34283252684232 4.5400116727766244e-13
endloop
endfacet
facet normal 4.926400550243664e-14 -1.6430400146150123e-14 -1.0
outer loop
vertex 227.6701371813305 114.3292024793956 7.048572565114838e-14
vertex 228.19854160146548 118.34283252684232 4.5400116727766244e-13
vertex 228.19854160146872 113.6405724319503 4.3708136838237504e-13
endloop
endfacet
facet normal 4.926400550243664e-14 -1.6430400146150123e-14 -1.0
outer loop
vertex 228.19854160146872 113.6405724319503 4.3708136838237504e-13
vertex 228.19854160146548 118.34283252684232 4.5400116727766244e-13
vertex 228.8871716489108 118.87123694697983 3.9196190466160867e-13
endloop
endfacet
facet normal 4.926400550243664e-14 -1.6430400146150123e-14 -1.0
outer loop
vertex 228.19854160146872 113.6405724319503 4.3708136838237504e-13
vertex 228.8871716489108 118.87123694697983 3.9196190466160867e-13
vertex 228.88717164891457 113.11216801181277 3.4684244094084235e-13
endloop
endfacet
facet normal 4.926400550243664e-14 -1.6430400146150123e-14 -1.0
outer loop
vertex 228.88717164891457 113.11216801181277 3.4684244094084235e-13
vertex 228.8871716489108 118.87123694697983 3.9196190466160867e-13
vertex 229.68909832394496 119.20340585180848 5.611598936144826e-13
endloop
endfacet
facet normal 4.926400550243664e-14 -1.6430400146150123e-14 -1.0
outer loop
vertex 228.88717164891457 113.11216801181277 3.4684244094084235e-13
vertex 229.68909832394496 119.20340585180848 5.611598936144826e-13
vertex 229.6890983239484 112.77999910698557 6.062793573352489e-13
endloop
endfacet
facet normal 4.926400550243664e-14 -1.6430400146150123e-14 -1.0
outer loop
vertex 229.6890983239484 112.77999910698557 6.062793573352489e-13
vertex 229.68909832394496 119.20340585180848 5.611598936144826e-13
vertex 230.5496716489106 119.31670247939772 6.908783518116858e-13
endloop
endfacet
facet normal 4.926400550243664e-14 -1.6430400146150123e-14 -1.0
outer loop
vertex 229.6890983239484 112.77999910698557 6.062793573352489e-13
vertex 230.5496716489106 119.31670247939772 6.908783518116858e-13
vertex 230.5496716489142 112.66670247939633 9.446753352409967e-13
endloop
endfacet
facet normal 4.926400550243664e-14 -1.6430400146150123e-14 -1.0
outer loop
vertex 230.5496716489142 112.66670247939633 9.446753352409967e-13
vertex 230.5496716489106 119.31670247939772 6.908783518116858e-13
vertex 231.41024497387642 119.20340585180921 8.82636072624943e-13
endloop
endfacet
facet normal 4.926400550243664e-14 -1.6430400146150123e-14 -1.0
outer loop
vertex 230.5496716489142 112.66670247939633 9.446753352409967e-13
vertex 231.41024497387642 119.20340585180921 8.82636072624943e-13
vertex 231.41024497388003 112.77999910698557 7.754773462881229e-13
endloop
endfacet
facet normal 4.926400550243664e-14 -1.6430400146150123e-14 -1.0
outer loop
vertex 231.41024497388003 112.77999910698557 7.754773462881229e-13
vertex 231.41024497387642 119.20340585180921 8.82636072624943e-13
vertex 232.212171648911 118.87123694698273 6.006394243701531e-13
endloop
endfacet
facet normal 4.926400550243664e-14 -1.6430400146150123e-14 -1.0
outer loop
vertex 231.41024497388003 112.77999910698557 7.754773462881229e-13
vertex 232.212171648911 118.87123694698273 6.006394243701531e-13
vertex 232.21217164891445 113.11216801181565 7.529176144277397e-13
endloop
endfacet
facet normal 4.926400550243664e-14 -1.6430400146150123e-14 -1.0
outer loop
vertex 232.21217164891445 113.11216801181565 7.529176144277397e-13
vertex 232.212171648911 118.87123694698273 6.006394243701531e-13
vertex 232.9008016963565 118.34283252684448 5.780796925097699e-13
endloop
endfacet
facet normal 4.926400550243664e-14 -1.6430400146150123e-14 -1.0
outer loop
vertex 232.21217164891445 113.11216801181565 7.529176144277397e-13
vertex 232.9008016963565 118.34283252684448 5.780796925097699e-13
vertex 232.9008016963594 113.64057243195246 7.698374133230271e-13
endloop
endfacet
facet normal 4.926400550243664e-14 -1.6430400146150123e-14 -1.0
outer loop
vertex 232.9008016963594 113.64057243195246 7.698374133230271e-13
vertex 232.9008016963565 118.34283252684448 5.780796925097699e-13
vertex 233.42920611649475 117.65420247939774 1.720045190228727e-13
endloop
endfacet
facet normal 4.926400550243664e-14 -1.6430400146150123e-14 -1.0
outer loop
vertex 232.9008016963594 113.64057243195246 7.698374133230271e-13
vertex 233.42920611649475 117.65420247939774 1.720045190228727e-13
vertex 233.42920611649657 114.32920247939994 8.82636072624943e-13
endloop
endfacet
facet normal 4.926400550243664e-14 -1.6430400146150123e-14 -1.0
outer loop
vertex 233.42920611649657 114.32920247939994 8.82636072624943e-13
vertex 233.42920611649475 117.65420247939774 1.720045190228727e-13
vertex 233.76137502132315 116.85227580436536 6.231991562305362e-13
endloop
endfacet
facet normal 4.926400550243664e-14 -1.6430400146150123e-14 -1.0
outer loop
vertex 233.42920611649657 114.32920247939994 8.82636072624943e-13
vertex 233.76137502132315 116.85227580436536 6.231991562305362e-13
vertex 233.76137502132403 115.13112915443374 9.446753352409967e-13
endloop
endfacet
facet normal 4.926400550243664e-14 -1.6430400146150123e-14 -1.0
outer loop
vertex 233.76137502132403 115.13112915443374 9.446753352409967e-13
vertex 233.76137502132315 116.85227580436536 6.231991562305362e-13
vertex 233.87467164891254 115.9917024793992 4.5400116727766244e-13
endloop
endfacet
facet normal 0.7242442578360707 0.6895435120363901 -1.8584950705069662e-13
outer loop
vertex 229.7240331949808 115.20562287567469 2.8500000000008776
vertex 229.95561851549274 115.01871693239586 6.175000000000719
vertex 229.9556185154922 115.01871693239441 2.850000000000494
endloop
endfacet
facet normal 0.52109923984228 0.8534960938608904 -1.7578258106011708e-13
outer loop
vertex 229.95561851549274 115.01871693239586 6.175000000000719
vertex 229.7240331949808 115.20562287567469 2.8500000000008776
vertex 229.7240331949808 115.20562287567542 6.175000000000617
endloop
endfacet
facet normal 0.7071067811869878 -0.7071067811861071 2.3793530115487925e-14
outer loop
vertex 232.9008016963594 113.64057243195246 7.698374133230271e-13
vertex 232.21217164891445 113.11216801181565 6.175000000000866
vertex 232.21217164891445 113.11216801181565 7.529176144277397e-13
endloop
endfacet
facet normal 0.5000000000007236 -0.8660254037840209 2.3387996360630874e-14
outer loop
vertex 232.21217164891445 113.11216801181565 6.175000000000866
vertex 232.9008016963594 113.64057243195246 7.698374133230271e-13
vertex 232.9008016963594 113.64057243195319 6.17500000000046
endloop
endfacet
facet normal -0.9996989192356167 0.024537132659300413 -8.901595445191832e-14
outer loop
vertex 231.68932841684085 115.96373014816002 6.175000000000573
vertex 231.6432557820988 115.66971840581147 2.850000000000793
vertex 231.6432557820986 115.66971840581147 6.175000000000426
endloop
endfacet
facet normal -0.9592843273563729 0.2824421698125677 -4.826254210267365e-14
outer loop
vertex 231.6432557820988 115.66971840581147 2.850000000000793
vertex 231.68932841684085 115.96373014816002 6.175000000000573
vertex 231.6893284168416 115.96373014816002 2.850000000000855
endloop
endfacet
facet normal 0.2824421698083385 0.9592843273576181 7.963210081361266e-14
outer loop
vertex 230.22768757532756 114.89811834621172 2.8500000000008323
vertex 230.52169931767395 114.85204571147018 6.175000000000313
vertex 230.52169931767358 114.85204571147018 2.8500000000008097
endloop
endfacet
facet normal 0.02453713266400688 0.999698919235501 1.6061510134169983e-13
outer loop
vertex 230.52169931767395 114.85204571147018 6.175000000000313
vertex 230.22768757532756 114.89811834621172 2.8500000000008323
vertex 230.22768757532774 114.89811834621027 6.175000000000573
endloop
endfacet
facet normal 3.641079503360535e-14 -1.0 1.169082835182823e-13
outer loop
vertex 230.5496716489142 112.66670247939633 9.446753352409967e-13
vertex 229.6890983239484 112.77999910698557 6.175000000000504
vertex 229.6890983239484 112.77999910698557 6.062793573352489e-13
endloop
endfacet
facet normal -0.2588190451019627 -0.9659258262892179 5.3839985498550705e-14
outer loop
vertex 229.6890983239484 112.77999910698557 6.175000000000504
vertex 230.5496716489142 112.66670247939633 9.446753352409967e-13
vertex 230.5496716489149 112.66670247939778 6.175000000000573
endloop
endfacet
facet normal -0.23504006952086898 0.9719856818490822 6.86494797307251e-14
outer loop
vertex 230.81761732816756 114.88363880209057 6.175000000000573
vertex 231.09527528342102 114.99074460115742 2.8500000000006858
vertex 230.8176173281674 114.88363880209128 2.850000000000618
endloop
endfacet
facet normal -0.4785996793919302 0.8780332265273005 6.215447450975811e-14
outer loop
vertex 231.09527528342102 114.99074460115742 2.8500000000006858
vertex 230.81761732816756 114.88363880209057 6.175000000000573
vertex 231.0952752834212 114.99074460115814 6.17500000000055
endloop
endfacet
facet normal 0.8780332265263844 0.4785996793936106 3.2693267993751763e-14
outer loop
vertex 229.54871377067244 115.4460988448893 2.850000000000387
vertex 229.7240331949808 115.20562287567542 6.175000000000617
vertex 229.7240331949808 115.20562287567469 2.8500000000008776
endloop
endfacet
facet normal 0.7242442578360664 0.6895435120363946 -1.8584950705070256e-13
outer loop
vertex 229.7240331949808 115.20562287567542 6.175000000000617
vertex 229.54871377067244 115.4460988448893 2.850000000000387
vertex 229.54871377067244 115.4460988448893 6.175000000000595
endloop
endfacet
facet normal 0.536445938776989 -0.8439346863174156 -1.07229692389604e-13
outer loop
vertex 229.2756125443174 117.99604735940075 2.850000000001182
vertex 228.80026242766644 117.59800020292752 6.175000000000719
vertex 228.8002624276668 117.59800020292897 2.850000000000601
endloop
endfacet
facet normal 0.7365933563141939 -0.676335883591719 -1.631340303089558e-13
outer loop
vertex 228.80026242766644 117.59800020292752 6.175000000000719
vertex 229.2756125443174 117.99604735940075 2.850000000001182
vertex 229.27561254431723 117.99604735940075 6.175000000000702
endloop
endfacet
facet normal -0.47859967939197323 0.878033226527277 6.21544745097739e-14
outer loop
vertex 231.0952752834212 114.99074460115814 6.17500000000055
vertex 231.33575125263528 115.16606402546633 2.8500000000010917
vertex 231.09527528342102 114.99074460115742 2.8500000000006858
endloop
endfacet
facet normal -0.6895435120377194 0.7242442578348051 1.7918849686213953e-13
outer loop
vertex 231.33575125263528 115.16606402546633 2.8500000000010917
vertex 231.0952752834212 114.99074460115814 6.17500000000055
vertex 231.33575125263528 115.16606402546489 6.175000000000268
endloop
endfacet
facet normal -0.9592843273563908 0.2824421698125068 -4.8262542102715506e-14
outer loop
vertex 231.6432557820986 115.66971840581147 6.175000000000426
vertex 231.52265719591392 115.39764934597864 2.850000000000556
vertex 231.52265719591375 115.39764934597719 6.175000000000403
endloop
endfacet
facet normal -0.8534960938610521 0.5210992398420153 1.4623278220968068e-13
outer loop
vertex 231.52265719591392 115.39764934597864 2.850000000000556
vertex 231.6432557820986 115.66971840581147 6.175000000000426
vertex 231.6432557820988 115.66971840581147 2.850000000000793
endloop
endfacet
facet normal -0.4626459080975808 -0.8865431538963938 -1.1594405129340074e-13
outer loop
vertex 231.64845568064356 118.0972424698994 6.175000000000437
vertex 231.0660616729084 118.30988416837685 2.8500000000007475
vertex 231.6484556806432 118.09724246990012 2.8500000000003416
endloop
endfacet
facet normal -0.21742737852575383 -0.9760765006224761 -1.4990016762509686e-13
outer loop
vertex 231.0660616729084 118.30988416837685 2.8500000000007475
vertex 231.64845568064356 118.0972424698994 6.175000000000437
vertex 231.0660616729084 118.30988416837685 6.17500000000055
endloop
endfacet
facet normal -0.25881904510199255 -0.9659258262892098 5.383998549853402e-14
outer loop
vertex 229.6890983239484 112.77999910698557 6.062793573352489e-13
vertex 228.88717164891403 113.11216801181277 6.175000000000527
vertex 228.88717164891457 113.11216801181277 3.4684244094084235e-13
endloop
endfacet
facet normal -0.4999999999997175 -0.8660254037846018 2.4854489232993766e-14
outer loop
vertex 228.88717164891403 113.11216801181277 6.175000000000527
vertex 229.6890983239484 112.77999910698557 6.062793573352489e-13
vertex 229.6890983239484 112.77999910698557 6.175000000000504
endloop
endfacet
facet normal -0.7071067811869608 0.7071067811861345 2.4079146833892033e-13
outer loop
vertex 228.19854160146548 118.34283252684232 4.5400116727766244e-13
vertex 228.8871716489108 118.87123694697912 6.175000000000702
vertex 228.8871716489108 118.87123694697983 3.9196190466160867e-13
endloop
endfacet
facet normal -0.5000000000009287 0.8660254037839026 1.2424274221359976e-13
outer loop
vertex 228.8871716489108 118.87123694697912 6.175000000000702
vertex 228.19854160146548 118.34283252684232 4.5400116727766244e-13
vertex 228.19854160146568 118.34283252683943 6.175000000000719
endloop
endfacet
facet normal 0.02453713266399475 0.9996989192355014 1.6061510134169586e-13
outer loop
vertex 230.52169931767358 114.85204571147018 2.8500000000008097
vertex 230.81761732816756 114.88363880209057 6.175000000000573
vertex 230.8176173281674 114.88363880209128 2.850000000000618
endloop
endfacet
facet normal -0.23504006952086898 0.9719856818490822 6.86494797307251e-14
outer loop
vertex 230.81761732816756 114.88363880209057 6.175000000000573
vertex 230.52169931767358 114.85204571147018 2.8500000000008097
vertex 230.52169931767395 114.85204571147018 6.175000000000313
endloop
endfacet
facet normal 0.2997406170310984 -0.954020734838513 -2.1614444057545311e-13
outer loop
vertex 229.83778768346414 118.25750172463881 6.175000000000877
vertex 229.2756125443174 117.99604735940075 2.850000000001182
vertex 229.83778768346397 118.25750172463954 2.8500000000006405
endloop
endfacet
facet normal 0.536445938776989 -0.8439346863174156 -1.07229692389604e-13
outer loop
vertex 229.2756125443174 117.99604735940075 2.850000000001182
vertex 229.83778768346414 118.25750172463881 6.175000000000877
vertex 229.27561254431723 117.99604735940075 6.175000000000702
endloop
endfacet
facet normal 0.9760765006226495 -0.2174273785249758 -4.643002335303855e-14
outer loop
vertex 228.23148995993384 116.50809250339412 2.8500000000006236
vertex 228.44413165840876 117.09048651112728 6.1750000000003356
vertex 228.23148995993347 116.5080925033934 6.1750000000007645
endloop
endfacet
facet normal 0.8865431538966112 -0.46264590809716394 -1.5595717519275364e-13
outer loop
vertex 228.44413165840876 117.09048651112728 6.1750000000003356
vertex 228.23148995993384 116.50809250339412 2.8500000000006236
vertex 228.44413165840822 117.090486511128 2.8500000000009904
endloop
endfacet
facet normal -0.9943490948902658 -0.10615967921442353 -4.244779998101855e-14
outer loop
vertex 231.68634200721294 115.99170247939774 6.175000000000403
vertex 231.6893284168416 115.96373014816002 2.850000000000855
vertex 231.68932841684085 115.96373014816002 6.175000000000573
endloop
endfacet
facet normal -0.9996989192356253 0.02453713265895094 -8.901595445179563e-14
outer loop
vertex 231.6893284168416 115.96373014816002 2.850000000000855
vertex 231.68634200721294 115.99170247939774 6.175000000000403
vertex 231.68634200721257 115.99170247939703 2.85000000000077
endloop
endfacet
facet normal -0.9659258262888998 -0.2588190451031496 1.0142982815544808e-14
outer loop
vertex 227.337968276502 115.13112915442869 6.175000000000494
vertex 227.6701371813305 114.3292024793956 7.048572565114838e-14
vertex 227.67013718132995 114.32920247939488 6.1750000000006855
endloop
endfacet
facet normal -0.866025403783885 -0.5000000000009588 -4.065408781156365e-15
outer loop
vertex 227.6701371813305 114.3292024793956 7.048572565114838e-14
vertex 227.337968276502 115.13112915442869 6.175000000000494
vertex 227.3379682765013 115.13112915442869 4.3708136838237504e-13
endloop
endfacet
facet normal 0.8865431538966002 -0.46264590809718525 -1.559571751927637e-13
outer loop
vertex 228.44413165840822 117.090486511128 2.8500000000009904
vertex 228.80026242766644 117.59800020292752 6.175000000000719
vertex 228.44413165840876 117.09048651112728 6.1750000000003356
endloop
endfacet
facet normal 0.7365933563141939 -0.676335883591719 -1.631340303089558e-13
outer loop
vertex 228.80026242766644 117.59800020292752 6.175000000000719
vertex 228.44413165840822 117.090486511128 2.8500000000009904
vertex 228.8002624276668 117.59800020292897 2.850000000000601
endloop
endfacet
facet normal 0.9659258262891549 -0.2588190451021975 -9.750490619055897e-14
outer loop
vertex 233.76137502132403 115.13112915443374 9.446753352409967e-13
vertex 233.4292061164971 114.32920247939994 6.175000000000866
vertex 233.42920611649657 114.32920247939994 8.82636072624943e-13
endloop
endfacet
facet normal 0.8660254037848698 -0.4999999999992532 -6.748387306254625e-14
outer loop
vertex 233.4292061164971 114.32920247939994 6.175000000000866
vertex 233.76137502132403 115.13112915443374 9.446753352409967e-13
vertex 233.7613750213244 115.13112915443158 6.175000000000415
endloop
endfacet
facet normal -8.823768463841683e-13 1.0 -1.0855810820027895e-13
outer loop
vertex 231.68634200721257 115.99170247939703 2.85000000000077
vertex 232.91355817197945 115.99170247939847 6.175000000000358
vertex 232.91355817197928 115.99170247939847 2.8500000000006858
endloop
endfacet
facet normal -8.823768463841683e-13 1.0 -1.0855810820027895e-13
outer loop
vertex 232.91355817197945 115.99170247939847 6.175000000000358
vertex 231.68634200721257 115.99170247939703 2.85000000000077
vertex 231.68634200721294 115.99170247939774 6.175000000000403
endloop
endfacet
facet normal 0.8660254037848631 -0.49999999999926503 -6.748387306253924e-14
outer loop
vertex 233.42920611649657 114.32920247939994 8.82636072624943e-13
vertex 232.9008016963594 113.64057243195319 6.17500000000046
vertex 232.9008016963594 113.64057243195246 7.698374133230271e-13
endloop
endfacet
facet normal 0.707106781187002 -0.707106781186093 2.3793530115484428e-14
outer loop
vertex 232.9008016963594 113.64057243195319 6.17500000000046
vertex 233.42920611649657 114.32920247939994 8.82636072624943e-13
vertex 233.4292061164971 114.32920247939994 6.175000000000866
endloop
endfacet
facet normal -0.8660254037848004 0.49999999999937345 1.3512229652449478e-13
outer loop
vertex 227.67013718132833 117.65420247939484 6.175000000000494
vertex 227.3379682765011 116.85227580436104 6.062793573352489e-13
vertex 227.33796827650076 116.85227580436104 6.175000000000573
endloop
endfacet
facet normal -0.9659258262892172 0.25881904510196474 -1.3472808287838063e-14
outer loop
vertex 227.3379682765011 116.85227580436104 6.062793573352489e-13
vertex 227.67013718132833 117.65420247939484 6.175000000000494
vertex 227.67013718132813 117.65420247939629 3.694021728012255e-13
endloop
endfacet
facet normal -2.1866972572923022e-13 0.9999999999999999 3.01896540533214e-14
outer loop
vertex 230.54967164891076 119.316702479397 6.175000000000251
vertex 231.41024497387642 119.20340585180921 8.82636072624943e-13
vertex 230.5496716489106 119.31670247939772 6.908783518116858e-13
endloop
endfacet
facet normal 0.25881904510150167 0.9659258262893413 5.5502391011840526e-14
outer loop
vertex 231.41024497387642 119.20340585180921 8.82636072624943e-13
vertex 230.54967164891076 119.316702479397 6.175000000000251
vertex 231.41024497387642 119.20340585180921 6.175000000000358
endloop
endfacet
facet normal 0.965925826288844 0.25881904510335774 6.306106728641096e-20
outer loop
vertex 233.76137502132315 116.85227580436536 6.231991562305362e-13
vertex 233.8746716489127 115.99170247939992 6.175000000000504
vertex 233.87467164891254 115.9917024793992 4.5400116727766244e-13
endloop
endfacet
facet normal 1.0 7.947640693729849e-13 -2.961576523825093e-14
outer loop
vertex 233.8746716489127 115.99170247939992 6.175000000000504
vertex 233.76137502132315 116.85227580436536 6.231991562305362e-13
vertex 233.76137502132295 116.85227580436465 6.17500000000055
endloop
endfacet
facet normal 0.9659258262891549 -0.2588190451021975 -9.750490619055897e-14
outer loop
vertex 233.76137502132403 115.13112915443374 9.446753352409967e-13
vertex 233.8746716489127 115.99170247939992 6.175000000000504
vertex 233.7613750213244 115.13112915443158 6.175000000000415
endloop
endfacet
facet normal 1.0 7.947640693729849e-13 -2.961576523825093e-14
outer loop
vertex 233.8746716489127 115.99170247939992 6.175000000000504
vertex 233.76137502132403 115.13112915443374 9.446753352409967e-13
vertex 233.87467164891254 115.9917024793992 4.5400116727766244e-13
endloop
endfacet
facet normal -0.6763358835910415 -0.7365933563148157 -9.856149398420141e-14
outer loop
vertex 232.15596937244334 117.74111170064388 2.8500000000005334
vertex 231.64845568064356 118.0972424698994 6.175000000000437
vertex 231.6484556806432 118.09724246990012 2.8500000000003416
endloop
endfacet
facet normal -0.4626459080975808 -0.8865431538963938 -1.1594405129340074e-13
outer loop
vertex 231.64845568064356 118.0972424698994 6.175000000000437
vertex 232.15596937244334 117.74111170064388 2.8500000000005334
vertex 232.15596937244334 117.74111170064316 6.175000000000403
endloop
endfacet
facet normal 1.2497261907746771e-14 2.456043983334019e-14 1.0
outer loop
vertex 228.19854160146872 113.64057243195174 6.175000000000787
vertex 228.18578512584563 115.99170247939558 6.175000000000573
vertex 227.67013718132995 114.32920247939488 6.1750000000006855
endloop
endfacet
facet normal 1.2497261907746771e-14 2.456043983334019e-14 1.0
outer loop
vertex 228.18578512584563 115.99170247939558 6.175000000000573
vertex 228.19854160146872 113.64057243195174 6.175000000000787
vertex 229.41300129061239 115.99170247939486 6.175000000000381
endloop
endfacet
facet normal 1.2497261907746771e-14 2.456043983334019e-14 1.0
outer loop
vertex 229.41300129061239 115.99170247939486 6.175000000000381
vertex 228.19854160146872 113.64057243195174 6.175000000000787
vertex 228.88717164891403 113.11216801181277 6.175000000000527
endloop
endfacet
facet normal 1.2497261907746771e-14 2.456043983334019e-14 1.0
outer loop
vertex 229.41300129061239 115.99170247939486 6.175000000000381
vertex 228.88717164891403 113.11216801181277 6.175000000000527
vertex 229.6890983239484 112.77999910698557 6.175000000000504
endloop
endfacet
facet normal 1.2497261907746771e-14 2.456043983334019e-14 1.0
outer loop
vertex 229.41300129061239 115.99170247939486 6.175000000000381
vertex 229.6890983239484 112.77999910698557 6.175000000000504
vertex 229.44160797160484 115.72375680014169 6.175000000000527
endloop
endfacet
facet normal 1.2497261907746771e-14 2.456043983334019e-14 1.0
outer loop
vertex 229.44160797160484 115.72375680014169 6.175000000000527
vertex 229.6890983239484 112.77999910698557 6.175000000000504
vertex 229.54871377067244 115.4460988448893 6.175000000000595
endloop
endfacet
facet normal 1.2497261907746771e-14 2.456043983334019e-14 1.0
outer loop
vertex 229.54871377067244 115.4460988448893 6.175000000000595
vertex 229.6890983239484 112.77999910698557 6.175000000000504
vertex 229.7240331949808 115.20562287567542 6.175000000000617
endloop
endfacet
facet normal 1.2497261907746771e-14 2.456043983334019e-14 1.0
outer loop
vertex 229.7240331949808 115.20562287567542 6.175000000000617
vertex 229.6890983239484 112.77999910698557 6.175000000000504
vertex 230.5496716489149 112.66670247939778 6.175000000000573
endloop
endfacet
facet normal 1.2497261907746771e-14 2.456043983334019e-14 1.0
outer loop
vertex 229.7240331949808 115.20562287567542 6.175000000000617
vertex 230.5496716489149 112.66670247939778 6.175000000000573
vertex 229.95561851549274 115.01871693239586 6.175000000000719
endloop
endfacet
facet normal 1.2497261907746771e-14 2.456043983334019e-14 1.0
outer loop
vertex 229.95561851549274 115.01871693239586 6.175000000000719
vertex 230.5496716489149 112.66670247939778 6.175000000000573
vertex 230.22768757532774 114.89811834621027 6.175000000000573
endloop
endfacet
facet normal 1.2497261907746771e-14 2.456043983334019e-14 1.0
outer loop
vertex 230.22768757532774 114.89811834621027 6.175000000000573
vertex 230.5496716489149 112.66670247939778 6.175000000000573
vertex 230.52169931767395 114.85204571147018 6.175000000000313
endloop
endfacet
facet normal 1.2497261907746771e-14 2.456043983334019e-14 1.0
outer loop
vertex 230.52169931767395 114.85204571147018 6.175000000000313
vertex 230.5496716489149 112.66670247939778 6.175000000000573
vertex 230.81761732816756 114.88363880209057 6.175000000000573
endloop
endfacet
facet normal 1.2497261907746771e-14 2.456043983334019e-14 1.0
outer loop
vertex 230.81761732816756 114.88363880209057 6.175000000000573
vertex 230.5496716489149 112.66670247939778 6.175000000000573
vertex 231.41024497388003 112.77999910698557 6.175000000000504
endloop
endfacet
facet normal 1.2497261907746771e-14 2.456043983334019e-14 1.0
outer loop
vertex 230.81761732816756 114.88363880209057 6.175000000000573
vertex 231.41024497388003 112.77999910698557 6.175000000000504
vertex 231.0952752834212 114.99074460115814 6.17500000000055
endloop
endfacet
facet normal 1.2497261907746771e-14 2.456043983334019e-14 1.0
outer loop
vertex 231.0952752834212 114.99074460115814 6.17500000000055
vertex 231.41024497388003 112.77999910698557 6.175000000000504
vertex 231.33575125263528 115.16606402546489 6.175000000000268
endloop
endfacet
facet normal 1.2497261907746771e-14 2.456043983334019e-14 1.0
outer loop
vertex 231.33575125263528 115.16606402546489 6.175000000000268
vertex 231.41024497388003 112.77999910698557 6.175000000000504
vertex 231.52265719591375 115.39764934597719 6.175000000000403
endloop
endfacet
facet normal 1.2497261907746771e-14 2.456043983334019e-14 1.0
outer loop
vertex 231.52265719591375 115.39764934597719 6.175000000000403
vertex 231.41024497388003 112.77999910698557 6.175000000000504
vertex 232.21217164891445 113.11216801181565 6.175000000000866
endloop
endfacet
facet normal 1.2497261907746771e-14 2.456043983334019e-14 1.0
outer loop
vertex 231.52265719591375 115.39764934597719 6.175000000000403
vertex 232.21217164891445 113.11216801181565 6.175000000000866
vertex 231.6432557820986 115.66971840581147 6.175000000000426
endloop
endfacet
facet normal 1.2497261907746771e-14 2.456043983334019e-14 1.0
outer loop
vertex 231.6432557820986 115.66971840581147 6.175000000000426
vertex 232.21217164891445 113.11216801181565 6.175000000000866
vertex 231.68932841684085 115.96373014816002 6.175000000000573
endloop
endfacet
facet normal 1.2497261907746771e-14 2.456043983334019e-14 1.0
outer loop
vertex 231.68932841684085 115.96373014816002 6.175000000000573
vertex 232.91355817197945 115.99170247939847 6.175000000000358
vertex 231.68634200721294 115.99170247939774 6.175000000000403
endloop
endfacet
facet normal 1.2497261907746771e-14 2.456043983334019e-14 1.0
outer loop
vertex 232.91355817197945 115.99170247939847 6.175000000000358
vertex 231.68932841684085 115.96373014816002 6.175000000000573
vertex 232.21217164891445 113.11216801181565 6.175000000000866
endloop
endfacet
facet normal 1.2497261907746771e-14 2.456043983334019e-14 1.0
outer loop
vertex 232.91355817197945 115.99170247939847 6.175000000000358
vertex 232.21217164891445 113.11216801181565 6.175000000000866
vertex 232.9008016963594 113.64057243195319 6.17500000000046
endloop
endfacet
facet normal 1.2497261907746771e-14 2.456043983334019e-14 1.0
outer loop
vertex 232.91355817197945 115.99170247939847 6.175000000000358
vertex 232.9008016963594 113.64057243195319 6.17500000000046
vertex 233.4292061164971 114.32920247939994 6.175000000000866
endloop
endfacet
facet normal 1.2497261907746771e-14 2.456043983334019e-14 1.0
outer loop
vertex 232.91355817197945 115.99170247939847 6.175000000000358
vertex 233.4292061164971 114.32920247939994 6.175000000000866
vertex 232.922514785239 116.09289758989856 6.175000000000832
endloop
endfacet
facet normal 1.2497261907746771e-14 2.456043983334019e-14 1.0
outer loop
vertex 232.922514785239 116.09289758989856 6.175000000000832
vertex 233.4292061164971 114.32920247939994 6.175000000000866
vertex 233.42920611649492 117.65420247939845 6.1750000000003356
endloop
endfacet
facet normal 1.2497261907746771e-14 2.456043983334019e-14 1.0
outer loop
vertex 233.42920611649492 117.65420247939845 6.1750000000003356
vertex 233.4292061164971 114.32920247939994 6.175000000000866
vertex 233.76137502132295 116.85227580436465 6.17500000000055
endloop
endfacet
facet normal 1.2497261907746771e-14 2.456043983334019e-14 1.0
outer loop
vertex 233.76137502132295 116.85227580436465 6.17500000000055
vertex 233.4292061164971 114.32920247939994 6.175000000000866
vertex 233.7613750213244 115.13112915443158 6.175000000000415
endloop
endfacet
facet normal 1.2497261907746771e-14 2.456043983334019e-14 1.0
outer loop
vertex 233.76137502132295 116.85227580436465 6.17500000000055
vertex 233.7613750213244 115.13112915443158 6.175000000000415
vertex 233.8746716489127 115.99170247939992 6.175000000000504
endloop
endfacet
facet normal 1.2497261907746771e-14 2.456043983334019e-14 1.0
outer loop
vertex 227.337968276502 115.13112915442869 6.175000000000494
vertex 227.33796827650076 116.85227580436104 6.175000000000573
vertex 227.22467164891225 115.99170247939558 6.17500000000055
endloop
endfacet
facet normal 1.2497261907746771e-14 2.456043983334019e-14 1.0
outer loop
vertex 227.33796827650076 116.85227580436104 6.175000000000573
vertex 227.337968276502 115.13112915442869 6.175000000000494
vertex 227.67013718132833 117.65420247939484 6.175000000000494
endloop
endfacet
facet normal 1.2497261907746771e-14 2.456043983334019e-14 1.0
outer loop
vertex 227.67013718132833 117.65420247939484 6.175000000000494
vertex 227.337968276502 115.13112915442869 6.175000000000494
vertex 227.67013718132995 114.32920247939488 6.1750000000006855
endloop
endfacet
facet normal 1.2497261907746771e-14 2.456043983334019e-14 1.0
outer loop
vertex 227.67013718132833 117.65420247939484 6.175000000000494
vertex 227.67013718132995 114.32920247939488 6.1750000000006855
vertex 228.19854160146568 118.34283252683943 6.175000000000719
endloop
endfacet
facet normal 1.2497261907746771e-14 2.456043983334019e-14 1.0
outer loop
vertex 228.19854160146568 118.34283252683943 6.175000000000719
vertex 227.67013718132995 114.32920247939488 6.1750000000006855
vertex 228.18578512584563 115.99170247939558 6.175000000000573
endloop
endfacet
facet normal 1.2497261907746771e-14 2.456043983334019e-14 1.0
outer loop
vertex 228.19854160146568 118.34283252683943 6.175000000000719
vertex 228.18578512584563 115.99170247939558 6.175000000000573
vertex 228.23148995993347 116.5080925033934 6.1750000000007645
endloop
endfacet
facet normal 1.2497261907746771e-14 2.456043983334019e-14 1.0
outer loop
vertex 228.19854160146568 118.34283252683943 6.175000000000719
vertex 228.23148995993347 116.5080925033934 6.1750000000007645
vertex 228.8871716489108 118.87123694697912 6.175000000000702
endloop
endfacet
facet normal 1.2497261907746771e-14 2.456043983334019e-14 1.0
outer loop
vertex 228.8871716489108 118.87123694697912 6.175000000000702
vertex 228.23148995993347 116.5080925033934 6.1750000000007645
vertex 228.44413165840876 117.09048651112728 6.1750000000003356
endloop
endfacet
facet normal 1.2497261907746771e-14 2.456043983334019e-14 1.0
outer loop
vertex 228.8871716489108 118.87123694697912 6.175000000000702
vertex 228.44413165840876 117.09048651112728 6.1750000000003356
vertex 228.80026242766644 117.59800020292752 6.175000000000719
endloop
endfacet
facet normal 1.2497261907746771e-14 2.456043983334019e-14 1.0
outer loop
vertex 228.8871716489108 118.87123694697912 6.175000000000702
vertex 228.80026242766644 117.59800020292752 6.175000000000719
vertex 229.27561254431723 117.99604735940075 6.175000000000702
endloop
endfacet
facet normal 1.2497261907746771e-14 2.456043983334019e-14 1.0
outer loop
vertex 228.8871716489108 118.87123694697912 6.175000000000702
vertex 229.27561254431723 117.99604735940075 6.175000000000702
vertex 229.68909832394513 119.20340585180921 6.175000000000527
endloop
endfacet
facet normal 1.2497261907746771e-14 2.456043983334019e-14 1.0
outer loop
vertex 229.68909832394513 119.20340585180921 6.175000000000527
vertex 229.27561254431723 117.99604735940075 6.175000000000702
vertex 229.83778768346414 118.25750172463881 6.175000000000877
endloop
endfacet
facet normal 1.2497261907746771e-14 2.456043983334019e-14 1.0
outer loop
vertex 229.68909832394513 119.20340585180921 6.175000000000527
vertex 229.83778768346414 118.25750172463881 6.175000000000877
vertex 230.54967164891076 119.316702479397 6.175000000000251
endloop
endfacet
facet normal 1.2497261907746771e-14 2.456043983334019e-14 1.0
outer loop
vertex 230.54967164891076 119.316702479397 6.175000000000251
vertex 229.83778768346414 118.25750172463881 6.175000000000877
vertex 230.4484765384123 118.36454561572263 6.175000000000482
endloop
endfacet
facet normal 1.2497261907746771e-14 2.456043983334019e-14 1.0
outer loop
vertex 230.54967164891076 119.316702479397 6.175000000000251
vertex 230.4484765384123 118.36454561572263 6.175000000000482
vertex 231.0660616729084 118.30988416837685 6.17500000000055
endloop
endfacet
facet normal 1.2497261907746771e-14 2.456043983334019e-14 1.0
outer loop
vertex 230.54967164891076 119.316702479397 6.175000000000251
vertex 231.0660616729084 118.30988416837685 6.17500000000055
vertex 231.41024497387642 119.20340585180921 6.175000000000358
endloop
endfacet
facet normal 1.2497261907746771e-14 2.456043983334019e-14 1.0
outer loop
vertex 231.41024497387642 119.20340585180921 6.175000000000358
vertex 231.0660616729084 118.30988416837685 6.17500000000055
vertex 231.64845568064356 118.0972424698994 6.175000000000437
endloop
endfacet
facet normal 1.2497261907746771e-14 2.456043983334019e-14 1.0
outer loop
vertex 231.41024497387642 119.20340585180921 6.175000000000358
vertex 231.64845568064356 118.0972424698994 6.175000000000437
vertex 232.212171648911 118.87123694698201 6.175000000000403
endloop
endfacet
facet normal 1.2497261907746771e-14 2.456043983334019e-14 1.0
outer loop
vertex 232.212171648911 118.87123694698201 6.175000000000403
vertex 231.64845568064356 118.0972424698994 6.175000000000437
vertex 232.15596937244334 117.74111170064316 6.175000000000403
endloop
endfacet
facet normal 1.2497261907746771e-14 2.456043983334019e-14 1.0
outer loop
vertex 232.212171648911 118.87123694698201 6.175000000000403
vertex 232.15596937244334 117.74111170064316 6.175000000000403
vertex 232.5540165289162 117.26576158399239 6.175000000000437
endloop
endfacet
facet normal 1.2497261907746771e-14 2.456043983334019e-14 1.0
outer loop
vertex 232.212171648911 118.87123694698201 6.175000000000403
vertex 232.5540165289162 117.26576158399239 6.175000000000437
vertex 232.9008016963565 118.3428325268452 6.17500000000055
endloop
endfacet
facet normal 1.2497261907746771e-14 2.456043983334019e-14 1.0
outer loop
vertex 232.9008016963565 118.3428325268452 6.17500000000055
vertex 232.5540165289162 117.26576158399239 6.175000000000437
vertex 232.8154708941541 116.70358644484563 6.175000000000415
endloop
endfacet
facet normal 1.2497261907746771e-14 2.456043983334019e-14 1.0
outer loop
vertex 232.9008016963565 118.3428325268452 6.17500000000055
vertex 232.8154708941541 116.70358644484563 6.175000000000415
vertex 232.922514785239 116.09289758989856 6.175000000000832
endloop
endfacet
facet normal 1.2497261907746771e-14 2.456043983334019e-14 1.0
outer loop
vertex 232.9008016963565 118.3428325268452 6.17500000000055
vertex 232.922514785239 116.09289758989856 6.175000000000832
vertex 233.42920611649492 117.65420247939845 6.1750000000003356
endloop
endfacet
facet normal -0.9540207348383885 -0.29974061703149474 3.1655509683634965e-14
outer loop
vertex 232.8154708941541 116.70358644484563 6.175000000000415
vertex 232.922514785239 116.09289758989856 2.8500000000006405
vertex 232.922514785239 116.09289758989856 6.175000000000832
endloop
endfacet
facet normal -0.999091846874277 -0.04260846757800743 3.1144543358646955e-14
outer loop
vertex 232.922514785239 116.09289758989856 2.8500000000006405
vertex 232.8154708941541 116.70358644484563 6.175000000000415
vertex 232.81547089415372 116.70358644484635 2.85000000000077
endloop
endfacet
facet normal 0.965925826288844 0.25881904510335774 6.306106728641096e-20
outer loop
vertex 233.76137502132315 116.85227580436536 6.231991562305362e-13
vertex 233.42920611649492 117.65420247939845 6.1750000000003356
vertex 233.76137502132295 116.85227580436465 6.17500000000055
endloop
endfacet
facet normal 0.8660254037844198 0.500000000000033 -4.173833712686838e-14
outer loop
vertex 233.42920611649492 117.65420247939845 6.1750000000003356
vertex 233.76137502132315 116.85227580436536 6.231991562305362e-13
vertex 233.42920611649475 117.65420247939774 1.720045190228727e-13
endloop
endfacet
facet normal -7.718696975689351e-26 1.0 4.342324328013689e-13
outer loop
vertex 228.18578512584563 115.99170247939558 6.175000000000573
vertex 229.41300129061239 115.99170247939703 2.8500000000008776
vertex 228.18578512584543 115.99170247939631 2.850000000000494
endloop
endfacet
facet normal -7.718696975689351e-26 1.0 4.342324328013689e-13
outer loop
vertex 229.41300129061239 115.99170247939703 2.8500000000008776
vertex 228.18578512584563 115.99170247939558 6.175000000000573
vertex 229.41300129061239 115.99170247939486 6.175000000000381
endloop
endfacet
facet normal 0.2588190451034384 -0.9659258262888223 5.460597068206855e-14
outer loop
vertex 231.41024497388003 112.77999910698557 6.175000000000504
vertex 230.5496716489142 112.66670247939633 9.446753352409967e-13
vertex 231.41024497388003 112.77999910698557 7.754773462881229e-13
endloop
endfacet
facet normal 3.641079503360535e-14 -1.0 1.169082835182823e-13
outer loop
vertex 230.5496716489142 112.66670247939633 9.446753352409967e-13
vertex 231.41024497388003 112.77999910698557 6.175000000000504
vertex 230.5496716489149 112.66670247939778 6.175000000000573
endloop
endfacet
facet normal 0.25881904510150167 0.9659258262893413 5.5502391011840526e-14
outer loop
vertex 231.41024497387642 119.20340585180921 8.82636072624943e-13
vertex 232.212171648911 118.87123694698201 6.175000000000403
vertex 232.212171648911 118.87123694698273 6.006394243701531e-13
endloop
endfacet
facet normal 0.4999999999991844 0.8660254037849097 2.7237999952201226e-14
outer loop
vertex 232.212171648911 118.87123694698201 6.175000000000403
vertex 231.41024497387642 119.20340585180921 8.82636072624943e-13
vertex 231.41024497387642 119.20340585180921 6.175000000000358
endloop
endfacet
facet normal -0.9999999999999999 -2.999212257577921e-13 -1.4612688863238525e-14
outer loop
vertex 227.22467164891225 115.99170247939558 6.17500000000055
vertex 227.3379682765013 115.13112915442869 4.3708136838237504e-13
vertex 227.337968276502 115.13112915442869 6.175000000000494
endloop
endfacet
facet normal -0.9659258262889001 -0.2588190451031484 1.0142982815544983e-14
outer loop
vertex 227.3379682765013 115.13112915442869 4.3708136838237504e-13
vertex 227.22467164891225 115.99170247939558 6.17500000000055
vertex 227.22467164891262 115.99170247939558 2.848031783247886e-13
endloop
endfacet
facet normal -0.4999999999997175 -0.8660254037846018 2.4854489232993766e-14
outer loop
vertex 228.88717164891403 113.11216801181277 6.175000000000527
vertex 228.19854160146872 113.6405724319503 4.3708136838237504e-13
vertex 228.88717164891457 113.11216801181277 3.4684244094084235e-13
endloop
endfacet
facet normal -0.707106781186124 -0.7071067811869709 3.3721607480979117e-14
outer loop
vertex 228.19854160146872 113.6405724319503 4.3708136838237504e-13
vertex 228.88717164891403 113.11216801181277 6.175000000000527
vertex 228.19854160146872 113.64057243195174 6.175000000000787
endloop
endfacet
facet normal -0.25881904510309534 0.9659258262889144 4.743862503562752e-15
outer loop
vertex 229.68909832394513 119.20340585180921 6.175000000000527
vertex 230.5496716489106 119.31670247939772 6.908783518116858e-13
vertex 229.68909832394496 119.20340585180848 5.611598936144826e-13
endloop
endfacet
facet normal -2.308868573962016e-13 1.0 3.018965405331896e-14
outer loop
vertex 230.5496716489106 119.31670247939772 6.908783518116858e-13
vertex 229.68909832394513 119.20340585180921 6.175000000000527
vertex 230.54967164891076 119.316702479397 6.175000000000251
endloop
endfacet
facet normal 0.9961059986533455 -0.0881637082184136 7.89242771595272e-15
outer loop
vertex 228.18578512584543 115.99170247939631 2.850000000000494
vertex 228.23148995993347 116.5080925033934 6.1750000000007645
vertex 228.18578512584563 115.99170247939558 6.175000000000573
endloop
endfacet
facet normal 0.9760765006226532 -0.21742737852495883 -4.6430023353031366e-14
outer loop
vertex 228.23148995993347 116.5080925033934 6.1750000000007645
vertex 228.18578512584543 115.99170247939631 2.850000000000494
vertex 228.23148995993384 116.50809250339412 2.8500000000006236
endloop
endfacet
facet normal 1.5734997064365155e-14 7.22985890044186e-15 1.0
outer loop
vertex 229.41300129061239 115.99170247939703 2.8500000000008776
vertex 228.23148995993384 116.50809250339412 2.8500000000006236
vertex 228.18578512584543 115.99170247939631 2.850000000000494
endloop
endfacet
facet normal 1.5734997064365155e-14 7.22985890044186e-15 1.0
outer loop
vertex 228.23148995993384 116.50809250339412 2.8500000000006236
vertex 229.41300129061239 115.99170247939703 2.8500000000008776
vertex 228.44413165840822 117.090486511128 2.8500000000009904
endloop
endfacet
facet normal 1.5734997064365155e-14 7.22985890044186e-15 1.0
outer loop
vertex 228.44413165840822 117.090486511128 2.8500000000009904
vertex 229.41300129061239 115.99170247939703 2.8500000000008776
vertex 228.8002624276668 117.59800020292897 2.850000000000601
endloop
endfacet
facet normal 1.5734997064365155e-14 7.22985890044186e-15 1.0
outer loop
vertex 228.8002624276668 117.59800020292897 2.850000000000601
vertex 229.41300129061239 115.99170247939703 2.8500000000008776
vertex 229.2756125443174 117.99604735940075 2.850000000001182
endloop
endfacet
facet normal 1.5734997064365155e-14 7.22985890044186e-15 1.0
outer loop
vertex 229.2756125443174 117.99604735940075 2.850000000001182
vertex 229.41300129061239 115.99170247939703 2.8500000000008776
vertex 229.83778768346397 118.25750172463954 2.8500000000006405
endloop
endfacet
facet normal 1.5734997064365155e-14 7.22985890044186e-15 1.0
outer loop
vertex 229.83778768346397 118.25750172463954 2.8500000000006405
vertex 229.41300129061239 115.99170247939703 2.8500000000008776
vertex 229.4416079716052 115.72375680014314 2.8500000000009678
endloop
endfacet
facet normal 1.5734997064365155e-14 7.22985890044186e-15 1.0
outer loop
vertex 229.83778768346397 118.25750172463954 2.8500000000006405
vertex 229.4416079716052 115.72375680014314 2.8500000000009678
vertex 229.54871377067244 115.4460988448893 2.850000000000387
endloop
endfacet
facet normal 1.5734997064365155e-14 7.22985890044186e-15 1.0
outer loop
vertex 229.83778768346397 118.25750172463954 2.8500000000006405
vertex 229.54871377067244 115.4460988448893 2.850000000000387
vertex 229.7240331949808 115.20562287567469 2.8500000000008776
endloop
endfacet
facet normal 1.5734997064365155e-14 7.22985890044186e-15 1.0
outer loop
vertex 229.83778768346397 118.25750172463954 2.8500000000006405
vertex 229.7240331949808 115.20562287567469 2.8500000000008776
vertex 229.9556185154922 115.01871693239441 2.850000000000494
endloop
endfacet
facet normal 1.5734997064365155e-14 7.22985890044186e-15 1.0
outer loop
vertex 229.83778768346397 118.25750172463954 2.8500000000006405
vertex 229.9556185154922 115.01871693239441 2.850000000000494
vertex 230.44847653841214 118.36454561572408 2.850000000000793
endloop
endfacet
facet normal 1.5734997064365155e-14 7.22985890044186e-15 1.0
outer loop
vertex 230.44847653841214 118.36454561572408 2.850000000000793
vertex 229.9556185154922 115.01871693239441 2.850000000000494
vertex 230.22768757532756 114.89811834621172 2.8500000000008323
endloop
endfacet
facet normal 1.5734997064365155e-14 7.22985890044186e-15 1.0
outer loop
vertex 230.44847653841214 118.36454561572408 2.850000000000793
vertex 230.22768757532756 114.89811834621172 2.8500000000008323
vertex 230.52169931767358 114.85204571147018 2.8500000000008097
endloop
endfacet
facet normal 1.5734997064365155e-14 7.22985890044186e-15 1.0
outer loop
vertex 230.44847653841214 118.36454561572408 2.850000000000793
vertex 230.52169931767358 114.85204571147018 2.8500000000008097
vertex 231.0660616729084 118.30988416837685 2.8500000000007475
endloop
endfacet
facet normal 1.5734997064365155e-14 7.22985890044186e-15 1.0
outer loop
vertex 231.0660616729084 118.30988416837685 2.8500000000007475
vertex 230.52169931767358 114.85204571147018 2.8500000000008097
vertex 230.8176173281674 114.88363880209128 2.850000000000618
endloop
endfacet
facet normal 1.5734997064365155e-14 7.22985890044186e-15 1.0
outer loop
vertex 231.0660616729084 118.30988416837685 2.8500000000007475
vertex 230.8176173281674 114.88363880209128 2.850000000000618
vertex 231.09527528342102 114.99074460115742 2.8500000000006858
endloop
endfacet
facet normal 1.5734997064365155e-14 7.22985890044186e-15 1.0
outer loop
vertex 231.0660616729084 118.30988416837685 2.8500000000007475
vertex 231.09527528342102 114.99074460115742 2.8500000000006858
vertex 231.6484556806432 118.09724246990012 2.8500000000003416
endloop
endfacet
facet normal 1.5734997064365155e-14 7.22985890044186e-15 1.0
outer loop
vertex 231.6484556806432 118.09724246990012 2.8500000000003416
vertex 231.09527528342102 114.99074460115742 2.8500000000006858
vertex 231.33575125263528 115.16606402546633 2.8500000000010917
endloop
endfacet
facet normal 1.5734997064365155e-14 7.22985890044186e-15 1.0
outer loop
vertex 231.6484556806432 118.09724246990012 2.8500000000003416
vertex 231.33575125263528 115.16606402546633 2.8500000000010917
vertex 231.52265719591392 115.39764934597864 2.850000000000556
endloop
endfacet
facet normal 1.5734997064365155e-14 7.22985890044186e-15 1.0
outer loop
vertex 231.6484556806432 118.09724246990012 2.8500000000003416
vertex 231.52265719591392 115.39764934597864 2.850000000000556
vertex 231.6432557820988 115.66971840581147 2.850000000000793
endloop
endfacet
facet normal 1.5734997064365155e-14 7.22985890044186e-15 1.0
outer loop
vertex 231.6484556806432 118.09724246990012 2.8500000000003416
vertex 231.6432557820988 115.66971840581147 2.850000000000793
vertex 231.68634200721257 115.99170247939703 2.85000000000077
endloop
endfacet
facet normal 1.5734997064365155e-14 7.22985890044186e-15 1.0
outer loop
vertex 231.68634200721257 115.99170247939703 2.85000000000077
vertex 231.6432557820988 115.66971840581147 2.850000000000793
vertex 231.6893284168416 115.96373014816002 2.850000000000855
endloop
endfacet
facet normal 1.5734997064365155e-14 7.22985890044186e-15 1.0
outer loop
vertex 231.68634200721257 115.99170247939703 2.85000000000077
vertex 232.15596937244334 117.74111170064388 2.8500000000005334
vertex 231.6484556806432 118.09724246990012 2.8500000000003416
endloop
endfacet
facet normal 1.5734997064365155e-14 7.22985890044186e-15 1.0
outer loop
vertex 232.15596937244334 117.74111170064388 2.8500000000005334
vertex 231.68634200721257 115.99170247939703 2.85000000000077
vertex 232.91355817197928 115.99170247939847 2.8500000000006858
endloop
endfacet
facet normal 1.5734997064365155e-14 7.22985890044186e-15 1.0
outer loop
vertex 232.15596937244334 117.74111170064388 2.8500000000005334
vertex 232.91355817197928 115.99170247939847 2.8500000000006858
vertex 232.55401652891604 117.26576158399239 2.8500000000006858
endloop
endfacet
facet normal 1.5734997064365155e-14 7.22985890044186e-15 1.0
outer loop
vertex 232.55401652891604 117.26576158399239 2.8500000000006858
vertex 232.91355817197928 115.99170247939847 2.8500000000006858
vertex 232.81547089415372 116.70358644484635 2.85000000000077
endloop
endfacet
facet normal 1.5734997064365155e-14 7.22985890044186e-15 1.0
outer loop
vertex 232.81547089415372 116.70358644484635 2.85000000000077
vertex 232.91355817197928 115.99170247939847 2.8500000000006858
vertex 232.922514785239 116.09289758989856 2.8500000000006405
endloop
endfacet
facet normal 0.49999999999918077 0.8660254037849117 2.7237999952202113e-14
outer loop
vertex 232.212171648911 118.87123694698273 6.006394243701531e-13
vertex 232.9008016963565 118.3428325268452 6.17500000000055
vertex 232.9008016963565 118.34283252684448 5.780796925097699e-13
endloop
endfacet
facet normal 0.7071067811865913 0.7071067811865038 -4.1736758246152734e-14
outer loop
vertex 232.9008016963565 118.3428325268452 6.17500000000055
vertex 232.212171648911 118.87123694698273 6.006394243701531e-13
vertex 232.212171648911 118.87123694698201 6.175000000000403
endloop
endfacet
facet normal 0.52109923984228 0.8534960938608904 -1.7578258106011708e-13
outer loop
vertex 229.95561851549274 115.01871693239586 6.175000000000719
vertex 230.22768757532756 114.89811834621172 2.8500000000008323
vertex 229.9556185154922 115.01871693239441 2.850000000000494
endloop
endfacet
facet normal 0.2824421698083385 0.9592843273576181 7.963210081361266e-14
outer loop
vertex 230.22768757532756 114.89811834621172 2.8500000000008323
vertex 229.95561851549274 115.01871693239586 6.175000000000719
vertex 230.22768757532774 114.89811834621027 6.175000000000573
endloop
endfacet
facet normal -0.6763358835910765 -0.7365933563147835 -9.856149398418359e-14
outer loop
vertex 232.15596937244334 117.74111170064316 6.175000000000403
vertex 232.55401652891604 117.26576158399239 2.8500000000006858
vertex 232.5540165289162 117.26576158399239 6.175000000000437
endloop
endfacet
facet normal -0.8439346863176229 -0.5364459387766634 -1.0511638449838849e-14
outer loop
vertex 232.55401652891604 117.26576158399239 2.8500000000006858
vertex 232.15596937244334 117.74111170064316 6.175000000000403
vertex 232.15596937244334 117.74111170064388 2.8500000000005334
endloop
endfacet
facet normal -0.9990918468742703 -0.04260846757816466 3.11445433586516e-14
outer loop
vertex 232.922514785239 116.09289758989856 6.175000000000832
vertex 232.91355817197928 115.99170247939847 2.8500000000006858
vertex 232.91355817197945 115.99170247939847 6.175000000000358
endloop
endfacet
facet normal -0.996105998653093 0.08816370822126456 2.7033869154986694e-14
outer loop
vertex 232.91355817197928 115.99170247939847 2.8500000000006858
vertex 232.922514785239 116.09289758989856 6.175000000000832
vertex 232.922514785239 116.09289758989856 2.8500000000006405
endloop
endfacet
facet normal 0.04260846757927887 -0.9990918468742229 -2.743633261045897e-13
outer loop
vertex 230.44847653841214 118.36454561572408 2.850000000000793
vertex 229.83778768346414 118.25750172463881 6.175000000000877
vertex 229.83778768346397 118.25750172463954 2.8500000000006405
endloop
endfacet
facet normal 0.2997406170310984 -0.954020734838513 -2.1614444057545311e-13
outer loop
vertex 229.83778768346414 118.25750172463881 6.175000000000877
vertex 230.44847653841214 118.36454561572408 2.850000000000793
vertex 230.4484765384123 118.36454561572263 6.175000000000482
endloop
endfacet
facet normal -0.2174273785257211 -0.9760765006224832 -1.4990016762511368e-13
outer loop
vertex 231.0660616729084 118.30988416837685 6.17500000000055
vertex 230.44847653841214 118.36454561572408 2.850000000000793
vertex 231.0660616729084 118.30988416837685 2.8500000000007475
endloop
endfacet
facet normal 0.04260846757927887 -0.9990918468742229 -2.743633261045897e-13
outer loop
vertex 230.44847653841214 118.36454561572408 2.850000000000793
vertex 231.0660616729084 118.30988416837685 6.17500000000055
vertex 230.4484765384123 118.36454561572263 6.175000000000482
endloop
endfacet
facet normal 0.971985681848695 0.2350400695224697 1.2122512274958801e-13
outer loop
vertex 229.4416079716052 115.72375680014314 2.8500000000009678
vertex 229.54871377067244 115.4460988448893 6.175000000000595
vertex 229.54871377067244 115.4460988448893 2.850000000000387
endloop
endfacet
facet normal 0.8780332265263844 0.4785996793936107 3.269326799375178e-14
outer loop
vertex 229.54871377067244 115.4460988448893 6.175000000000595
vertex 229.4416079716052 115.72375680014314 2.8500000000009678
vertex 229.44160797160484 115.72375680014169 6.175000000000527
endloop
endfacet
endsolid recordPlayer_3d_final
