solid recordPlayer_3d_final
facet normal -0.8660254037844476 0.4999999999999846 0.0
outer loop
vertex 257.74449038767193 56.491233378359304 8.299999999999985
vertex 257.0451874301395 54.8029666940773 3.799999999999985
vertex 257.0451874301395 54.8029666940773 8.299999999999985
endloop
endfacet
facet normal -0.9659258262890601 0.2588190451025516 0.0
outer loop
vertex 257.0451874301395 54.8029666940773 3.799999999999985
vertex 257.74449038767193 56.491233378359304 8.299999999999985
vertex 257.74449038767193 56.491233378359304 3.799999999999985
endloop
endfacet
facet normal -0.7071067811865689 0.7071067811865261 0.0
outer loop
vertex 258.85692074585705 57.940980846665354 8.299999999999985
vertex 257.74449038767193 56.491233378359304 3.799999999999985
vertex 257.74449038767193 56.491233378359304 8.299999999999985
endloop
endfacet
facet normal -0.8660254037844476 0.4999999999999846 0.0
outer loop
vertex 257.74449038767193 56.491233378359304 3.799999999999985
vertex 258.85692074585705 57.940980846665354 8.299999999999985
vertex 258.85692074585705 57.940980846665354 3.799999999999985
endloop
endfacet
facet normal -0.7071067811865689 0.7071067811865261 0.0
outer loop
vertex 258.85692074585705 57.940980846665354 8.299999999999985
vertex 260.3066682141629 59.053411204850455 3.799999999999985
vertex 258.85692074585705 57.940980846665354 3.799999999999985
endloop
endfacet
facet normal -0.4999999999998989 0.866025403784497 0.0
outer loop
vertex 260.3066682141629 59.053411204850455 3.799999999999985
vertex 258.85692074585705 57.940980846665354 8.299999999999985
vertex 260.3066682141629 59.053411204850455 8.299999999999985
endloop
endfacet
facet normal -0.2588190451024185 -0.9659258262890958 0.0
outer loop
vertex 264.544302492705 55.74412198328318 10.199999999999982
vertex 263.8066682141628 55.841233378359455 3.7999999999999847
vertex 264.544302492705 55.74412198328318 3.7999999999999847
endloop
endfacet
facet normal 0.0 -1.0 0.0
outer loop
vertex 263.8066682141628 55.841233378359455 3.7999999999999847
vertex 264.544302492705 55.74412198328318 10.199999999999982
vertex 263.8066682141628 55.841233378359455 10.199999999999982
endloop
endfacet
facet normal 0.0 -1.0 0.0
outer loop
vertex 263.8066682141628 55.841233378359455 10.199999999999982
vertex 263.06903393562067 55.74412198328318 3.7999999999999847
vertex 263.8066682141628 55.841233378359455 3.7999999999999847
endloop
endfacet
facet normal 0.2588190451024185 -0.9659258262890958 0.0
outer loop
vertex 263.06903393562067 55.74412198328318 3.7999999999999847
vertex 263.8066682141628 55.841233378359455 10.199999999999982
vertex 263.06903393562067 55.74412198328318 10.199999999999982
endloop
endfacet
facet normal 0.2588190451024867 -0.9659258262890775 0.0
outer loop
vertex 265.6184015298804 46.2297525943362 8.299999999999985
vertex 263.8066682141628 45.991233378359524 3.799999999999985
vertex 265.6184015298804 46.2297525943362 3.799999999999985
endloop
endfacet
facet normal 0.0 -1.0 0.0
outer loop
vertex 263.8066682141628 45.991233378359524 3.799999999999985
vertex 265.6184015298804 46.2297525943362 8.299999999999985
vertex 263.8066682141628 45.991233378359524 8.299999999999985
endloop
endfacet
facet normal 0.0 -1.0 0.0
outer loop
vertex 263.8066682141628 45.991233378359524 8.299999999999985
vertex 261.99493489844525 46.2297525943362 3.799999999999985
vertex 263.8066682141628 45.991233378359524 3.799999999999985
endloop
endfacet
facet normal -0.2588190451024867 -0.9659258262890775 0.0
outer loop
vertex 261.99493489844525 46.2297525943362 3.799999999999985
vertex 263.8066682141628 45.991233378359524 8.299999999999985
vertex 261.99493489844525 46.2297525943362 8.299999999999985
endloop
endfacet
facet normal -0.2588190451024867 -0.9659258262890775 0.0
outer loop
vertex 261.99493489844525 46.2297525943362 8.299999999999985
vertex 260.3066682141629 46.929055551868295 3.799999999999985
vertex 261.99493489844525 46.2297525943362 3.799999999999985
endloop
endfacet
facet normal -0.4999999999998989 -0.866025403784497 0.0
outer loop
vertex 260.3066682141629 46.929055551868295 3.799999999999985
vertex 261.99493489844525 46.2297525943362 8.299999999999985
vertex 260.3066682141629 46.929055551868295 8.299999999999985
endloop
endfacet
facet normal 0.8660254037844476 -0.4999999999999846 0.0
outer loop
vertex 269.86884604065375 49.49123337835945 3.799999999999985
vertex 268.7564156824686 48.041485910053396 8.299999999999985
vertex 268.7564156824686 48.041485910053396 3.799999999999985
endloop
endfacet
facet normal 0.7071067811865689 -0.7071067811865261 0.0
outer loop
vertex 268.7564156824686 48.041485910053396 8.299999999999985
vertex 269.86884604065375 49.49123337835945 3.799999999999985
vertex 269.86884604065375 49.49123337835945 8.299999999999985
endloop
endfacet
facet normal 0.7071067811865689 -0.7071067811865261 0.0
outer loop
vertex 268.7564156824686 48.041485910053396 8.299999999999985
vertex 267.30666821416276 46.929055551868295 3.799999999999985
vertex 268.7564156824686 48.041485910053396 3.799999999999985
endloop
endfacet
facet normal 0.4999999999998989 -0.866025403784497 0.0
outer loop
vertex 267.30666821416276 46.929055551868295 3.799999999999985
vertex 268.7564156824686 48.041485910053396 8.299999999999985
vertex 267.30666821416276 46.929055551868295 8.299999999999985
endloop
endfacet
facet normal 0.4999999999998989 -0.866025403784497 0.0
outer loop
vertex 267.30666821416276 46.929055551868295 8.299999999999985
vertex 265.6184015298804 46.2297525943362 3.799999999999985
vertex 267.30666821416276 46.929055551868295 3.799999999999985
endloop
endfacet
facet normal 0.2588190451024867 -0.9659258262890775 0.0
outer loop
vertex 265.6184015298804 46.2297525943362 3.799999999999985
vertex 267.30666821416276 46.929055551868295 8.299999999999985
vertex 265.6184015298804 46.2297525943362 8.299999999999985
endloop
endfacet
facet normal 0.0 1.0 0.0
outer loop
vertex 263.8066682141628 59.991233378359226 8.299999999999985
vertex 265.6184015298804 59.75271416238255 3.799999999999985
vertex 263.8066682141628 59.991233378359226 3.799999999999985
endloop
endfacet
facet normal 0.2588190451024867 0.9659258262890775 0.0
outer loop
vertex 265.6184015298804 59.75271416238255 3.799999999999985
vertex 263.8066682141628 59.991233378359226 8.299999999999985
vertex 265.6184015298804 59.75271416238255 8.299999999999985
endloop
endfacet
facet normal 0.2588190451024867 0.9659258262890775 0.0
outer loop
vertex 265.6184015298804 59.75271416238255 8.299999999999985
vertex 267.30666821416276 59.053411204850455 3.799999999999985
vertex 265.6184015298804 59.75271416238255 3.799999999999985
endloop
endfacet
facet normal 0.4999999999998989 0.866025403784497 0.0
outer loop
vertex 267.30666821416276 59.053411204850455 3.799999999999985
vertex 265.6184015298804 59.75271416238255 8.299999999999985
vertex 267.30666821416276 59.053411204850455 8.299999999999985
endloop
endfacet
facet normal 0.4999999999998989 0.866025403784497 0.0
outer loop
vertex 267.30666821416276 59.053411204850455 8.299999999999985
vertex 268.7564156824686 57.940980846665354 3.799999999999985
vertex 267.30666821416276 59.053411204850455 3.799999999999985
endloop
endfacet
facet normal 0.7071067811865689 0.7071067811865261 0.0
outer loop
vertex 268.7564156824686 57.940980846665354 3.799999999999985
vertex 267.30666821416276 59.053411204850455 8.299999999999985
vertex 268.7564156824686 57.940980846665354 8.299999999999985
endloop
endfacet
facet normal -0.4999999999998989 -0.866025403784497 0.0
outer loop
vertex 260.3066682141629 46.929055551868295 8.299999999999985
vertex 258.85692074585705 48.041485910053396 3.799999999999985
vertex 260.3066682141629 46.929055551868295 3.799999999999985
endloop
endfacet
facet normal -0.7071067811865689 -0.7071067811865261 0.0
outer loop
vertex 258.85692074585705 48.041485910053396 3.799999999999985
vertex 260.3066682141629 46.929055551868295 8.299999999999985
vertex 258.85692074585705 48.041485910053396 8.299999999999985
endloop
endfacet
facet normal -0.8660254037844476 -0.4999999999999846 0.0
outer loop
vertex 257.74449038767193 49.49123337835945 8.299999999999985
vertex 258.85692074585705 48.041485910053396 3.799999999999985
vertex 258.85692074585705 48.041485910053396 8.299999999999985
endloop
endfacet
facet normal -0.7071067811865689 -0.7071067811865261 0.0
outer loop
vertex 258.85692074585705 48.041485910053396 3.799999999999985
vertex 257.74449038767193 49.49123337835945 8.299999999999985
vertex 257.74449038767193 49.49123337835945 3.799999999999985
endloop
endfacet
facet normal 0.0 0.0 1.0
outer loop
vertex 257.0451874301395 51.17950006264146 8.299999999999985
vertex 257.0451874301395 54.8029666940773 8.299999999999985
vertex 256.806668214163 52.991233378359375 8.299999999999985
endloop
endfacet
facet normal 0.0 0.0 1.0
outer loop
vertex 257.0451874301395 54.8029666940773 8.299999999999985
vertex 257.0451874301395 51.17950006264146 8.299999999999985
vertex 257.74449038767193 49.49123337835945 8.299999999999985
endloop
endfacet
facet normal 0.0 0.0 1.0
outer loop
vertex 257.0451874301395 54.8029666940773 8.299999999999985
vertex 257.74449038767193 49.49123337835945 8.299999999999985
vertex 257.74449038767193 56.491233378359304 8.299999999999985
endloop
endfacet
facet normal 0.0 0.0 1.0
outer loop
vertex 257.74449038767193 56.491233378359304 8.299999999999985
vertex 257.74449038767193 49.49123337835945 8.299999999999985
vertex 258.85692074585705 48.041485910053396 8.299999999999985
endloop
endfacet
facet normal 0.0 0.0 1.0
outer loop
vertex 257.74449038767193 56.491233378359304 8.299999999999985
vertex 258.85692074585705 48.041485910053396 8.299999999999985
vertex 258.85692074585705 57.940980846665354 8.299999999999985
endloop
endfacet
facet normal 0.0 0.0 1.0
outer loop
vertex 258.85692074585705 57.940980846665354 8.299999999999985
vertex 258.85692074585705 48.041485910053396 8.299999999999985
vertex 260.3066682141629 46.929055551868295 8.299999999999985
endloop
endfacet
facet normal 0.0 0.0 1.0
outer loop
vertex 258.85692074585705 57.940980846665354 8.299999999999985
vertex 260.3066682141629 46.929055551868295 8.299999999999985
vertex 260.20666821416313 52.991233378359375 8.299999999999985
endloop
endfacet
facet normal 0.0 0.0 1.0
outer loop
vertex 260.20666821416313 52.991233378359375 8.299999999999985
vertex 260.3066682141629 46.929055551868295 8.299999999999985
vertex 260.3293352395224 52.059484815990615 8.299999999999985
endloop
endfacet
facet normal 0.0 0.0 1.0
outer loop
vertex 260.3293352395224 52.059484815990615 8.299999999999985
vertex 260.3066682141629 46.929055551868295 8.299999999999985
vertex 261.99493489844525 46.2297525943362 8.299999999999985
endloop
endfacet
facet normal 0.0 0.0 1.0
outer loop
vertex 260.3293352395224 52.059484815990615 8.299999999999985
vertex 261.99493489844525 46.2297525943362 8.299999999999985
vertex 260.68897676053894 51.19123337835979 8.299999999999985
endloop
endfacet
facet normal 0.0 0.0 1.0
outer loop
vertex 260.68897676053894 51.19123337835979 8.299999999999985
vertex 261.99493489844525 46.2297525943362 8.299999999999985
vertex 261.2610838018913 50.44564896608785 8.299999999999985
endloop
endfacet
facet normal 0.0 0.0 1.0
outer loop
vertex 261.2610838018913 50.44564896608785 8.299999999999985
vertex 261.99493489844525 46.2297525943362 8.299999999999985
vertex 262.00666821416286 49.87354192473529 8.299999999999985
endloop
endfacet
facet normal 0.0 0.0 1.0
outer loop
vertex 262.00666821416286 49.87354192473529 8.299999999999985
vertex 261.99493489844525 46.2297525943362 8.299999999999985
vertex 263.8066682141628 45.991233378359524 8.299999999999985
endloop
endfacet
facet normal 0.0 0.0 1.0
outer loop
vertex 262.00666821416286 49.87354192473529 8.299999999999985
vertex 263.8066682141628 45.991233378359524 8.299999999999985
vertex 262.87491965179373 49.51390040371909 8.299999999999985
endloop
endfacet
facet normal 0.0 0.0 1.0
outer loop
vertex 262.87491965179373 49.51390040371909 8.299999999999985
vertex 263.8066682141628 45.991233378359524 8.299999999999985
vertex 263.80666821416264 49.39123337835947 8.299999999999985
endloop
endfacet
facet normal 0.0 0.0 1.0
outer loop
vertex 263.80666821416264 49.39123337835947 8.299999999999985
vertex 263.8066682141628 45.991233378359524 8.299999999999985
vertex 264.7384167765318 49.51390040371909 8.299999999999985
endloop
endfacet
facet normal 0.0 0.0 1.0
outer loop
vertex 264.7384167765318 49.51390040371909 8.299999999999985
vertex 263.8066682141628 45.991233378359524 8.299999999999985
vertex 265.6184015298804 46.2297525943362 8.299999999999985
endloop
endfacet
facet normal 0.0 0.0 1.0
outer loop
vertex 264.7384167765318 49.51390040371909 8.299999999999985
vertex 265.6184015298804 46.2297525943362 8.299999999999985
vertex 265.6066682141626 49.87354192473529 8.299999999999985
endloop
endfacet
facet normal 0.0 0.0 1.0
outer loop
vertex 265.6066682141626 49.87354192473529 8.299999999999985
vertex 265.6184015298804 46.2297525943362 8.299999999999985
vertex 266.35225262643416 50.44564896608785 8.299999999999985
endloop
endfacet
facet normal 0.0 0.0 1.0
outer loop
vertex 266.35225262643416 50.44564896608785 8.299999999999985
vertex 265.6184015298804 46.2297525943362 8.299999999999985
vertex 267.30666821416276 46.929055551868295 8.299999999999985
endloop
endfacet
facet normal 0.0 0.0 1.0
outer loop
vertex 266.35225262643416 50.44564896608785 8.299999999999985
vertex 267.30666821416276 46.929055551868295 8.299999999999985
vertex 266.9243596677866 51.191233378359065 8.299999999999985
endloop
endfacet
facet normal 0.0 0.0 1.0
outer loop
vertex 266.9243596677866 51.191233378359065 8.299999999999985
vertex 267.30666821416276 46.929055551868295 8.299999999999985
vertex 267.2840011888033 52.0594848159899 8.299999999999985
endloop
endfacet
facet normal 0.0 0.0 1.0
outer loop
vertex 267.2840011888033 52.0594848159899 8.299999999999985
vertex 267.30666821416276 46.929055551868295 8.299999999999985
vertex 267.40666821416255 52.991233378359375 8.299999999999985
endloop
endfacet
facet normal 0.0 0.0 1.0
outer loop
vertex 267.40666821416255 52.991233378359375 8.299999999999985
vertex 267.30666821416276 46.929055551868295 8.299999999999985
vertex 268.7564156824686 48.041485910053396 8.299999999999985
endloop
endfacet
facet normal 0.0 0.0 1.0
outer loop
vertex 260.20666821416313 52.991233378359375 8.299999999999985
vertex 260.3066682141629 59.053411204850455 8.299999999999985
vertex 258.85692074585705 57.940980846665354 8.299999999999985
endloop
endfacet
facet normal 0.0 0.0 1.0
outer loop
vertex 260.3066682141629 59.053411204850455 8.299999999999985
vertex 260.20666821416313 52.991233378359375 8.299999999999985
vertex 260.3293352395224 53.92298194072886 8.299999999999985
endloop
endfacet
facet normal 0.0 0.0 1.0
outer loop
vertex 260.3066682141629 59.053411204850455 8.299999999999985
vertex 260.3293352395224 53.92298194072886 8.299999999999985
vertex 261.99493489844525 59.75271416238255 8.299999999999985
endloop
endfacet
facet normal 0.0 0.0 1.0
outer loop
vertex 261.99493489844525 59.75271416238255 8.299999999999985
vertex 260.3293352395224 53.92298194072886 8.299999999999985
vertex 260.6889767605391 54.79123337835969 8.299999999999985
endloop
endfacet
facet normal 0.0 0.0 1.0
outer loop
vertex 261.99493489844525 59.75271416238255 8.299999999999985
vertex 260.6889767605391 54.79123337835969 8.299999999999985
vertex 261.2610838018915 55.5368177906309 8.299999999999985
endloop
endfacet
facet normal 0.0 0.0 1.0
outer loop
vertex 261.99493489844525 59.75271416238255 8.299999999999985
vertex 261.2610838018915 55.5368177906309 8.299999999999985
vertex 262.0066682141631 56.108924831983465 8.299999999999985
endloop
endfacet
facet normal 0.0 0.0 1.0
outer loop
vertex 261.99493489844525 59.75271416238255 8.299999999999985
vertex 262.0066682141631 56.108924831983465 8.299999999999985
vertex 263.8066682141628 59.991233378359226 8.299999999999985
endloop
endfacet
facet normal 0.0 0.0 1.0
outer loop
vertex 263.8066682141628 59.991233378359226 8.299999999999985
vertex 262.0066682141631 56.108924831983465 8.299999999999985
vertex 262.8749196517939 56.468566352999666 8.299999999999985
endloop
endfacet
facet normal 0.0 0.0 1.0
outer loop
vertex 263.8066682141628 59.991233378359226 8.299999999999985
vertex 262.8749196517939 56.468566352999666 8.299999999999985
vertex 263.80666821416304 56.591233378359284 8.299999999999985
endloop
endfacet
facet normal 0.0 0.0 1.0
outer loop
vertex 263.8066682141628 59.991233378359226 8.299999999999985
vertex 263.80666821416304 56.591233378359284 8.299999999999985
vertex 265.6184015298804 59.75271416238255 8.299999999999985
endloop
endfacet
facet normal 0.0 0.0 1.0
outer loop
vertex 265.6184015298804 59.75271416238255 8.299999999999985
vertex 263.80666821416304 56.591233378359284 8.299999999999985
vertex 264.73841677653195 56.468566352999666 8.299999999999985
endloop
endfacet
facet normal 0.0 0.0 1.0
outer loop
vertex 265.6184015298804 59.75271416238255 8.299999999999985
vertex 264.73841677653195 56.468566352999666 8.299999999999985
vertex 265.60666821416277 56.108924831983465 8.299999999999985
endloop
endfacet
facet normal 0.0 0.0 1.0
outer loop
vertex 265.6184015298804 59.75271416238255 8.299999999999985
vertex 265.60666821416277 56.108924831983465 8.299999999999985
vertex 266.35225262643434 55.5368177906309 8.299999999999985
endloop
endfacet
facet normal 0.0 0.0 1.0
outer loop
vertex 265.6184015298804 59.75271416238255 8.299999999999985
vertex 266.35225262643434 55.5368177906309 8.299999999999985
vertex 267.30666821416276 59.053411204850455 8.299999999999985
endloop
endfacet
facet normal 0.0 0.0 1.0
outer loop
vertex 267.30666821416276 59.053411204850455 8.299999999999985
vertex 266.35225262643434 55.5368177906309 8.299999999999985
vertex 266.92435966778675 54.79123337835897 8.299999999999985
endloop
endfacet
facet normal 0.0 0.0 1.0
outer loop
vertex 267.30666821416276 59.053411204850455 8.299999999999985
vertex 266.92435966778675 54.79123337835897 8.299999999999985
vertex 267.2840011888033 53.92298194072814 8.299999999999985
endloop
endfacet
facet normal 0.0 0.0 1.0
outer loop
vertex 267.30666821416276 59.053411204850455 8.299999999999985
vertex 267.2840011888033 53.92298194072814 8.299999999999985
vertex 267.40666821416255 52.991233378359375 8.299999999999985
endloop
endfacet
facet normal 0.0 0.0 1.0
outer loop
vertex 267.30666821416276 59.053411204850455 8.299999999999985
vertex 267.40666821416255 52.991233378359375 8.299999999999985
vertex 268.7564156824686 57.940980846665354 8.299999999999985
endloop
endfacet
facet normal 0.0 0.0 1.0
outer loop
vertex 268.7564156824686 57.940980846665354 8.299999999999985
vertex 267.40666821416255 52.991233378359375 8.299999999999985
vertex 268.7564156824686 48.041485910053396 8.299999999999985
endloop
endfacet
facet normal 0.0 0.0 1.0
outer loop
vertex 268.7564156824686 57.940980846665354 8.299999999999985
vertex 268.7564156824686 48.041485910053396 8.299999999999985
vertex 269.86884604065375 49.49123337835945 8.299999999999985
endloop
endfacet
facet normal 0.0 0.0 1.0
outer loop
vertex 268.7564156824686 57.940980846665354 8.299999999999985
vertex 269.86884604065375 49.49123337835945 8.299999999999985
vertex 269.86884604065375 56.491233378359304 8.299999999999985
endloop
endfacet
facet normal 0.0 0.0 1.0
outer loop
vertex 269.86884604065375 56.491233378359304 8.299999999999985
vertex 269.86884604065375 49.49123337835945 8.299999999999985
vertex 270.5681489981862 51.17950006264146 8.299999999999985
endloop
endfacet
facet normal 0.0 0.0 1.0
outer loop
vertex 269.86884604065375 56.491233378359304 8.299999999999985
vertex 270.5681489981862 51.17950006264146 8.299999999999985
vertex 270.5681489981862 54.8029666940773 8.299999999999985
endloop
endfacet
facet normal 0.0 0.0 1.0
outer loop
vertex 270.5681489981862 54.8029666940773 8.299999999999985
vertex 270.5681489981862 51.17950006264146 8.299999999999985
vertex 270.8066682141627 52.991233378359375 8.299999999999985
endloop
endfacet
facet normal 0.0 0.0 -1.0
outer loop
vertex 257.0451874301395 54.8029666940773 3.799999999999985
vertex 257.0451874301395 51.17950006264146 3.799999999999985
vertex 256.806668214163 52.991233378359375 3.799999999999985
endloop
endfacet
facet normal 0.0 0.0 -1.0
outer loop
vertex 257.0451874301395 51.17950006264146 3.799999999999985
vertex 257.0451874301395 54.8029666940773 3.799999999999985
vertex 257.74449038767193 56.491233378359304 3.799999999999985
endloop
endfacet
facet normal 0.0 0.0 -1.0
outer loop
vertex 257.0451874301395 51.17950006264146 3.799999999999985
vertex 257.74449038767193 56.491233378359304 3.799999999999985
vertex 257.74449038767193 49.49123337835945 3.799999999999985
endloop
endfacet
facet normal 0.0 0.0 -1.0
outer loop
vertex 257.74449038767193 49.49123337835945 3.799999999999985
vertex 257.74449038767193 56.491233378359304 3.799999999999985
vertex 258.85692074585705 57.940980846665354 3.799999999999985
endloop
endfacet
facet normal 0.0 0.0 -1.0
outer loop
vertex 257.74449038767193 49.49123337835945 3.799999999999985
vertex 258.85692074585705 57.940980846665354 3.799999999999985
vertex 258.85692074585705 48.041485910053396 3.799999999999985
endloop
endfacet
facet normal 0.0 0.0 -1.0
outer loop
vertex 258.85692074585705 48.041485910053396 3.799999999999985
vertex 258.85692074585705 57.940980846665354 3.799999999999985
vertex 260.3066682141629 59.053411204850455 3.799999999999985
endloop
endfacet
facet normal 0.0 0.0 -1.0
outer loop
vertex 258.85692074585705 48.041485910053396 3.799999999999985
vertex 260.3066682141629 59.053411204850455 3.799999999999985
vertex 260.3066682141629 46.929055551868295 3.799999999999985
endloop
endfacet
facet normal 0.0 0.0 -1.0
outer loop
vertex 260.3066682141629 46.929055551868295 3.799999999999985
vertex 260.3066682141629 59.053411204850455 3.799999999999985
vertex 260.9566682141628 52.991233378359375 3.7999999999999847
endloop
endfacet
facet normal 0.0 0.0 -1.0
outer loop
vertex 260.9566682141628 52.991233378359375 3.7999999999999847
vertex 260.3066682141629 59.053411204850455 3.799999999999985
vertex 261.05377960923886 53.72886765690192 3.7999999999999847
endloop
endfacet
facet normal 0.0 0.0 -1.0
outer loop
vertex 261.05377960923886 53.72886765690192 3.7999999999999847
vertex 260.3066682141629 59.053411204850455 3.799999999999985
vertex 261.99493489844525 59.75271416238255 3.799999999999985
endloop
endfacet
facet normal 0.0 0.0 -1.0
outer loop
vertex 261.05377960923886 53.72886765690192 3.7999999999999847
vertex 261.99493489844525 59.75271416238255 3.799999999999985
vertex 261.3384958133771 54.41623337835905 3.7999999999999847
endloop
endfacet
facet normal 0.0 0.0 -1.0
outer loop
vertex 261.3384958133771 54.41623337835905 3.7999999999999847
vertex 261.99493489844525 59.75271416238255 3.799999999999985
vertex 261.79141388778106 55.00648770474136 3.7999999999999847
endloop
endfacet
facet normal 0.0 0.0 -1.0
outer loop
vertex 261.79141388778106 55.00648770474136 3.7999999999999847
vertex 261.99493489844525 59.75271416238255 3.799999999999985
vertex 262.3816682141628 55.459405779145264 3.7999999999999847
endloop
endfacet
facet normal 0.0 0.0 -1.0
outer loop
vertex 262.3816682141628 55.459405779145264 3.7999999999999847
vertex 261.99493489844525 59.75271416238255 3.799999999999985
vertex 263.8066682141628 59.991233378359226 3.799999999999985
endloop
endfacet
facet normal 0.0 0.0 -1.0
outer loop
vertex 262.3816682141628 55.459405779145264 3.7999999999999847
vertex 263.8066682141628 59.991233378359226 3.799999999999985
vertex 263.06903393562067 55.74412198328318 3.7999999999999847
endloop
endfacet
facet normal 0.0 0.0 -1.0
outer loop
vertex 263.06903393562067 55.74412198328318 3.7999999999999847
vertex 263.8066682141628 59.991233378359226 3.799999999999985
vertex 263.8066682141628 55.841233378359455 3.7999999999999847
endloop
endfacet
facet normal 0.0 0.0 -1.0
outer loop
vertex 263.8066682141628 55.841233378359455 3.7999999999999847
vertex 263.8066682141628 59.991233378359226 3.799999999999985
vertex 265.6184015298804 59.75271416238255 3.799999999999985
endloop
endfacet
facet normal 0.0 0.0 -1.0
outer loop
vertex 263.8066682141628 55.841233378359455 3.7999999999999847
vertex 265.6184015298804 59.75271416238255 3.799999999999985
vertex 264.544302492705 55.74412198328318 3.7999999999999847
endloop
endfacet
facet normal 0.0 0.0 -1.0
outer loop
vertex 264.544302492705 55.74412198328318 3.7999999999999847
vertex 265.6184015298804 59.75271416238255 3.799999999999985
vertex 265.2316682141629 55.459405779145264 3.7999999999999847
endloop
endfacet
facet normal 0.0 0.0 -1.0
outer loop
vertex 265.2316682141629 55.459405779145264 3.7999999999999847
vertex 265.6184015298804 59.75271416238255 3.799999999999985
vertex 265.82192254054445 55.00648770474136 3.7999999999999847
endloop
endfacet
facet normal 0.0 0.0 -1.0
outer loop
vertex 265.82192254054445 55.00648770474136 3.7999999999999847
vertex 265.6184015298804 59.75271416238255 3.799999999999985
vertex 267.30666821416276 59.053411204850455 3.799999999999985
endloop
endfacet
facet normal 0.0 0.0 -1.0
outer loop
vertex 265.82192254054445 55.00648770474136 3.7999999999999847
vertex 267.30666821416276 59.053411204850455 3.799999999999985
vertex 266.2748406149485 54.41623337835978 3.7999999999999847
endloop
endfacet
facet normal 0.0 0.0 -1.0
outer loop
vertex 266.2748406149485 54.41623337835978 3.7999999999999847
vertex 267.30666821416276 59.053411204850455 3.799999999999985
vertex 266.5595568190868 53.72886765690192 3.7999999999999847
endloop
endfacet
facet normal 0.0 0.0 -1.0
outer loop
vertex 266.5595568190868 53.72886765690192 3.7999999999999847
vertex 267.30666821416276 59.053411204850455 3.799999999999985
vertex 266.6566682141629 52.991233378359375 3.7999999999999847
endloop
endfacet
facet normal 0.0 0.0 -1.0
outer loop
vertex 260.3066682141629 46.929055551868295 3.799999999999985
vertex 261.05377960923886 52.25359909981684 3.7999999999999847
vertex 261.99493489844525 46.2297525943362 3.799999999999985
endloop
endfacet
facet normal 0.0 0.0 -1.0
outer loop
vertex 261.05377960923886 52.25359909981684 3.7999999999999847
vertex 260.3066682141629 46.929055551868295 3.799999999999985
vertex 260.9566682141628 52.991233378359375 3.7999999999999847
endloop
endfacet
facet normal 0.0 0.0 -1.0
outer loop
vertex 261.99493489844525 46.2297525943362 3.799999999999985
vertex 261.05377960923886 52.25359909981684 3.7999999999999847
vertex 261.3384958133771 51.56623337835898 3.7999999999999847
endloop
endfacet
facet normal 0.0 0.0 -1.0
outer loop
vertex 261.99493489844525 46.2297525943362 3.799999999999985
vertex 261.3384958133771 51.56623337835898 3.7999999999999847
vertex 261.79141388778123 50.9759790519774 3.7999999999999847
endloop
endfacet
facet normal 0.0 0.0 -1.0
outer loop
vertex 261.99493489844525 46.2297525943362 3.799999999999985
vertex 261.79141388778123 50.9759790519774 3.7999999999999847
vertex 262.3816682141628 50.52306097757349 3.7999999999999847
endloop
endfacet
facet normal 0.0 0.0 -1.0
outer loop
vertex 261.99493489844525 46.2297525943362 3.799999999999985
vertex 262.3816682141628 50.52306097757349 3.7999999999999847
vertex 263.8066682141628 45.991233378359524 3.799999999999985
endloop
endfacet
facet normal 0.0 0.0 -1.0
outer loop
vertex 263.8066682141628 45.991233378359524 3.799999999999985
vertex 262.3816682141628 50.52306097757349 3.7999999999999847
vertex 263.06903393562067 50.23834477343558 3.7999999999999847
endloop
endfacet
facet normal 0.0 0.0 -1.0
outer loop
vertex 263.8066682141628 45.991233378359524 3.799999999999985
vertex 263.06903393562067 50.23834477343558 3.7999999999999847
vertex 263.8066682141628 50.1412333783593 3.7999999999999847
endloop
endfacet
facet normal 0.0 0.0 -1.0
outer loop
vertex 263.8066682141628 45.991233378359524 3.799999999999985
vertex 263.8066682141628 50.1412333783593 3.7999999999999847
vertex 264.544302492705 50.23834477343558 3.7999999999999847
endloop
endfacet
facet normal 0.0 0.0 -1.0
outer loop
vertex 263.8066682141628 45.991233378359524 3.799999999999985
vertex 264.544302492705 50.23834477343558 3.7999999999999847
vertex 265.6184015298804 46.2297525943362 3.799999999999985
endloop
endfacet
facet normal 0.0 0.0 -1.0
outer loop
vertex 265.6184015298804 46.2297525943362 3.799999999999985
vertex 264.544302492705 50.23834477343558 3.7999999999999847
vertex 265.2316682141629 50.52306097757349 3.7999999999999847
endloop
endfacet
facet normal 0.0 0.0 -1.0
outer loop
vertex 265.6184015298804 46.2297525943362 3.799999999999985
vertex 265.2316682141629 50.52306097757349 3.7999999999999847
vertex 265.8219225405446 50.9759790519774 3.7999999999999847
endloop
endfacet
facet normal 0.0 0.0 -1.0
outer loop
vertex 265.6184015298804 46.2297525943362 3.799999999999985
vertex 265.8219225405446 50.9759790519774 3.7999999999999847
vertex 267.30666821416276 46.929055551868295 3.799999999999985
endloop
endfacet
facet normal 0.0 0.0 -1.0
outer loop
vertex 267.30666821416276 46.929055551868295 3.799999999999985
vertex 265.8219225405446 50.9759790519774 3.7999999999999847
vertex 266.2748406149485 51.566233378359705 3.7999999999999847
endloop
endfacet
facet normal 0.0 0.0 -1.0
outer loop
vertex 267.30666821416276 46.929055551868295 3.799999999999985
vertex 266.2748406149485 51.566233378359705 3.7999999999999847
vertex 266.5595568190868 52.25359909981684 3.7999999999999847
endloop
endfacet
facet normal 0.0 0.0 -1.0
outer loop
vertex 267.30666821416276 46.929055551868295 3.799999999999985
vertex 266.5595568190868 52.25359909981684 3.7999999999999847
vertex 266.6566682141629 52.991233378359375 3.7999999999999847
endloop
endfacet
facet normal 0.0 0.0 -1.0
outer loop
vertex 267.30666821416276 46.929055551868295 3.799999999999985
vertex 266.6566682141629 52.991233378359375 3.7999999999999847
vertex 267.30666821416276 59.053411204850455 3.799999999999985
endloop
endfacet
facet normal 0.0 0.0 -1.0
outer loop
vertex 267.30666821416276 46.929055551868295 3.799999999999985
vertex 267.30666821416276 59.053411204850455 3.799999999999985
vertex 268.7564156824686 57.940980846665354 3.799999999999985
endloop
endfacet
facet normal 0.0 0.0 -1.0
outer loop
vertex 267.30666821416276 46.929055551868295 3.799999999999985
vertex 268.7564156824686 57.940980846665354 3.799999999999985
vertex 268.7564156824686 48.041485910053396 3.799999999999985
endloop
endfacet
facet normal 0.0 0.0 -1.0
outer loop
vertex 268.7564156824686 48.041485910053396 3.799999999999985
vertex 268.7564156824686 57.940980846665354 3.799999999999985
vertex 269.86884604065375 56.491233378359304 3.799999999999985
endloop
endfacet
facet normal 0.0 0.0 -1.0
outer loop
vertex 268.7564156824686 48.041485910053396 3.799999999999985
vertex 269.86884604065375 56.491233378359304 3.799999999999985
vertex 269.86884604065375 49.49123337835945 3.799999999999985
endloop
endfacet
facet normal 0.0 0.0 -1.0
outer loop
vertex 269.86884604065375 49.49123337835945 3.799999999999985
vertex 269.86884604065375 56.491233378359304 3.799999999999985
vertex 270.5681489981862 54.8029666940773 3.799999999999985
endloop
endfacet
facet normal 0.0 0.0 -1.0
outer loop
vertex 269.86884604065375 49.49123337835945 3.799999999999985
vertex 270.5681489981862 54.8029666940773 3.799999999999985
vertex 270.5681489981862 51.17950006264146 3.799999999999985
endloop
endfacet
facet normal 0.0 0.0 -1.0
outer loop
vertex 270.5681489981862 51.17950006264146 3.799999999999985
vertex 270.5681489981862 54.8029666940773 3.799999999999985
vertex 270.8066682141627 52.991233378359375 3.799999999999985
endloop
endfacet
facet normal -0.8660254037843794 -0.5000000000001027 0.0
outer loop
vertex 266.2748406149485 54.41623337835978 10.199999999999982
vertex 266.5595568190868 53.72886765690192 3.7999999999999847
vertex 266.5595568190868 53.72886765690192 10.199999999999982
endloop
endfacet
facet normal -0.9659258262890771 -0.25881904510248815 0.0
outer loop
vertex 266.5595568190868 53.72886765690192 3.7999999999999847
vertex 266.2748406149485 54.41623337835978 10.199999999999982
vertex 266.2748406149485 54.41623337835978 3.7999999999999847
endloop
endfacet
facet normal -0.7071067811864795 -0.7071067811866155 0.0
outer loop
vertex 265.82192254054445 55.00648770474136 10.199999999999982
vertex 266.2748406149485 54.41623337835978 3.7999999999999847
vertex 266.2748406149485 54.41623337835978 10.199999999999982
endloop
endfacet
facet normal -0.8660254037843794 -0.5000000000001027 0.0
outer loop
vertex 266.2748406149485 54.41623337835978 3.7999999999999847
vertex 265.82192254054445 55.00648770474136 10.199999999999982
vertex 265.82192254054445 55.00648770474136 3.7999999999999847
endloop
endfacet
facet normal 0.0 1.0 0.0
outer loop
vertex 263.8066682141628 50.1412333783593 10.199999999999982
vertex 264.544302492705 50.23834477343558 3.7999999999999847
vertex 263.8066682141628 50.1412333783593 3.7999999999999847
endloop
endfacet
facet normal -0.2588190451024185 0.9659258262890958 0.0
outer loop
vertex 264.544302492705 50.23834477343558 3.7999999999999847
vertex 263.8066682141628 50.1412333783593 10.199999999999982
vertex 264.544302492705 50.23834477343558 10.199999999999982
endloop
endfacet
facet normal -0.2588190451024185 0.9659258262890958 0.0
outer loop
vertex 264.544302492705 50.23834477343558 10.199999999999982
vertex 265.2316682141629 50.52306097757349 3.7999999999999847
vertex 264.544302492705 50.23834477343558 3.7999999999999847
endloop
endfacet
facet normal -0.4999999999997614 0.8660254037845765 0.0
outer loop
vertex 265.2316682141629 50.52306097757349 3.7999999999999847
vertex 264.544302492705 50.23834477343558 10.199999999999982
vertex 265.2316682141629 50.52306097757349 10.199999999999982
endloop
endfacet
facet normal -0.25881904510246057 -0.9659258262890845 0.0
outer loop
vertex 262.87491965179373 49.51390040371909 10.199999999999982
vertex 262.00666821416286 49.87354192473529 8.299999999999985
vertex 262.87491965179373 49.51390040371909 8.299999999999985
endloop
endfacet
facet normal -0.4999999999998741 -0.8660254037845113 0.0
outer loop
vertex 262.00666821416286 49.87354192473529 8.299999999999985
vertex 262.87491965179373 49.51390040371909 10.199999999999982
vertex 262.00666821416286 49.87354192473529 10.199999999999982
endloop
endfacet
facet normal -1.2529020513280018e-14 -1.0 0.0
outer loop
vertex 263.80666821416264 49.39123337835947 10.199999999999982
vertex 262.87491965179373 49.51390040371909 8.299999999999985
vertex 263.80666821416264 49.39123337835947 8.299999999999985
endloop
endfacet
facet normal -0.25881904510246057 -0.9659258262890845 0.0
outer loop
vertex 262.87491965179373 49.51390040371909 8.299999999999985
vertex 263.80666821416264 49.39123337835947 10.199999999999982
vertex 262.87491965179373 49.51390040371909 10.199999999999982
endloop
endfacet
facet normal 0.2588190451024485 -0.9659258262890877 0.0
outer loop
vertex 264.7384167765318 49.51390040371909 10.199999999999982
vertex 263.80666821416264 49.39123337835947 8.299999999999985
vertex 264.7384167765318 49.51390040371909 8.299999999999985
endloop
endfacet
facet normal -1.2529020513280018e-14 -1.0 0.0
outer loop
vertex 263.80666821416264 49.39123337835947 8.299999999999985
vertex 264.7384167765318 49.51390040371909 10.199999999999982
vertex 263.80666821416264 49.39123337835947 10.199999999999982
endloop
endfacet
facet normal -0.9659258262890846 -0.2588190451024601 0.0
outer loop
vertex 260.3293352395224 52.059484815990615 10.199999999999982
vertex 260.68897676053894 51.19123337835979 8.299999999999985
vertex 260.68897676053894 51.19123337835979 10.199999999999982
endloop
endfacet
facet normal -0.8660254037845192 -0.49999999999986067 0.0
outer loop
vertex 260.68897676053894 51.19123337835979 8.299999999999985
vertex 260.3293352395224 52.059484815990615 10.199999999999982
vertex 260.3293352395224 52.059484815990615 8.299999999999985
endloop
endfacet
facet normal -0.9659258262890601 -0.2588190451025516 0.0
outer loop
vertex 257.0451874301395 51.17950006264146 8.299999999999985
vertex 257.74449038767193 49.49123337835945 3.799999999999985
vertex 257.74449038767193 49.49123337835945 8.299999999999985
endloop
endfacet
facet normal -0.8660254037844476 -0.4999999999999846 0.0
outer loop
vertex 257.74449038767193 49.49123337835945 3.799999999999985
vertex 257.0451874301395 51.17950006264146 8.299999999999985
vertex 257.0451874301395 51.17950006264146 3.799999999999985
endloop
endfacet
facet normal -1.0 0.0 0.0
outer loop
vertex 256.806668214163 52.991233378359375 8.299999999999985
vertex 257.0451874301395 51.17950006264146 3.799999999999985
vertex 257.0451874301395 51.17950006264146 8.299999999999985
endloop
endfacet
facet normal -0.9659258262890601 -0.2588190451025516 0.0
outer loop
vertex 257.0451874301395 51.17950006264146 3.799999999999985
vertex 256.806668214163 52.991233378359375 8.299999999999985
vertex 256.806668214163 52.991233378359375 3.799999999999985
endloop
endfacet
facet normal -0.9659258262890601 0.2588190451025516 0.0
outer loop
vertex 257.0451874301395 54.8029666940773 8.299999999999985
vertex 256.806668214163 52.991233378359375 3.799999999999985
vertex 256.806668214163 52.991233378359375 8.299999999999985
endloop
endfacet
facet normal -1.0 0.0 0.0
outer loop
vertex 256.806668214163 52.991233378359375 3.799999999999985
vertex 257.0451874301395 54.8029666940773 8.299999999999985
vertex 257.0451874301395 54.8029666940773 3.799999999999985
endloop
endfacet
facet normal -0.4999999999998989 0.866025403784497 0.0
outer loop
vertex 260.3066682141629 59.053411204850455 8.299999999999985
vertex 261.99493489844525 59.75271416238255 3.799999999999985
vertex 260.3066682141629 59.053411204850455 3.799999999999985
endloop
endfacet
facet normal -0.2588190451024867 0.9659258262890775 0.0
outer loop
vertex 261.99493489844525 59.75271416238255 3.799999999999985
vertex 260.3066682141629 59.053411204850455 8.299999999999985
vertex 261.99493489844525 59.75271416238255 8.299999999999985
endloop
endfacet
facet normal -0.2588190451024867 0.9659258262890775 0.0
outer loop
vertex 261.99493489844525 59.75271416238255 8.299999999999985
vertex 263.8066682141628 59.991233378359226 3.799999999999985
vertex 261.99493489844525 59.75271416238255 3.799999999999985
endloop
endfacet
facet normal 0.0 1.0 0.0
outer loop
vertex 263.8066682141628 59.991233378359226 3.799999999999985
vertex 261.99493489844525 59.75271416238255 8.299999999999985
vertex 263.8066682141628 59.991233378359226 8.299999999999985
endloop
endfacet
facet normal -1.0 0.0 0.0
outer loop
vertex 266.6566682141629 52.991233378359375 10.199999999999982
vertex 266.5595568190868 52.25359909981684 3.7999999999999847
vertex 266.5595568190868 52.25359909981684 10.199999999999982
endloop
endfacet
facet normal -0.9659258262890291 0.2588190451026675 0.0
outer loop
vertex 266.5595568190868 52.25359909981684 3.7999999999999847
vertex 266.6566682141629 52.991233378359375 10.199999999999982
vertex 266.6566682141629 52.991233378359375 3.7999999999999847
endloop
endfacet
facet normal -0.9659258262890771 -0.25881904510248815 0.0
outer loop
vertex 266.5595568190868 53.72886765690192 10.199999999999982
vertex 266.6566682141629 52.991233378359375 3.7999999999999847
vertex 266.6566682141629 52.991233378359375 10.199999999999982
endloop
endfacet
facet normal -1.0 0.0 0.0
outer loop
vertex 266.6566682141629 52.991233378359375 3.7999999999999847
vertex 266.5595568190868 53.72886765690192 10.199999999999982
vertex 266.5595568190868 53.72886765690192 3.7999999999999847
endloop
endfacet
facet normal 0.9659258262890291 -0.2588190451026675 0.0
outer loop
vertex 261.05377960923886 53.72886765690192 3.7999999999999847
vertex 260.9566682141628 52.991233378359375 10.199999999999982
vertex 260.9566682141628 52.991233378359375 3.7999999999999847
endloop
endfacet
facet normal 1.0 0.0 0.0
outer loop
vertex 260.9566682141628 52.991233378359375 10.199999999999982
vertex 261.05377960923886 53.72886765690192 3.7999999999999847
vertex 261.05377960923886 53.72886765690192 10.199999999999982
endloop
endfacet
facet normal 1.0 0.0 0.0
outer loop
vertex 260.9566682141628 52.991233378359375 3.7999999999999847
vertex 261.05377960923886 52.25359909981684 10.199999999999982
vertex 261.05377960923886 52.25359909981684 3.7999999999999847
endloop
endfacet
facet normal 0.9659258262890771 0.25881904510248815 0.0
outer loop
vertex 261.05377960923886 52.25359909981684 10.199999999999982
vertex 260.9566682141628 52.991233378359375 3.7999999999999847
vertex 260.9566682141628 52.991233378359375 10.199999999999982
endloop
endfacet
facet normal -1.0 -5.0133904272908766e-14 0.0
outer loop
vertex 260.20666821416313 52.991233378359375 10.199999999999982
vertex 260.3293352395224 52.059484815990615 8.299999999999985
vertex 260.3293352395224 52.059484815990615 10.199999999999982
endloop
endfacet
facet normal -0.9659258262890846 -0.2588190451024601 0.0
outer loop
vertex 260.3293352395224 52.059484815990615 8.299999999999985
vertex 260.20666821416313 52.991233378359375 10.199999999999982
vertex 260.20666821416313 52.991233378359375 8.299999999999985
endloop
endfacet
facet normal 0.9659258262890771 0.25881904510248815 0.0
outer loop
vertex 261.05377960923886 52.25359909981684 3.7999999999999847
vertex 261.3384958133771 51.56623337835898 10.199999999999982
vertex 261.3384958133771 51.56623337835898 3.7999999999999847
endloop
endfacet
facet normal 0.8660254037843794 0.5000000000001027 0.0
outer loop
vertex 261.3384958133771 51.56623337835898 10.199999999999982
vertex 261.05377960923886 52.25359909981684 3.7999999999999847
vertex 261.05377960923886 52.25359909981684 10.199999999999982
endloop
endfacet
facet normal 0.8660254037843794 0.5000000000001027 0.0
outer loop
vertex 261.3384958133771 51.56623337835898 3.7999999999999847
vertex 261.79141388778123 50.9759790519774 10.199999999999982
vertex 261.79141388778123 50.9759790519774 3.7999999999999847
endloop
endfacet
facet normal 0.7071067811864795 0.7071067811866155 0.0
outer loop
vertex 261.79141388778123 50.9759790519774 10.199999999999982
vertex 261.3384958133771 51.56623337835898 3.7999999999999847
vertex 261.3384958133771 51.56623337835898 10.199999999999982
endloop
endfacet
facet normal -0.7071067811865187 0.7071067811865764 0.0
outer loop
vertex 261.2610838018915 55.5368177906309 10.199999999999982
vertex 260.6889767605391 54.79123337835969 8.299999999999985
vertex 260.6889767605391 54.79123337835969 10.199999999999982
endloop
endfacet
facet normal -0.8660254037843579 0.50000000000014 0.0
outer loop
vertex 260.6889767605391 54.79123337835969 8.299999999999985
vertex 261.2610838018915 55.5368177906309 10.199999999999982
vertex 261.2610838018915 55.5368177906309 8.299999999999985
endloop
endfacet
facet normal -0.8660254037843579 0.50000000000014 0.0
outer loop
vertex 260.6889767605391 54.79123337835969 10.199999999999982
vertex 260.3293352395224 53.92298194072886 8.299999999999985
vertex 260.3293352395224 53.92298194072886 10.199999999999982
endloop
endfacet
facet normal -0.9659258262890745 0.25881904510249737 0.0
outer loop
vertex 260.3293352395224 53.92298194072886 8.299999999999985
vertex 260.6889767605391 54.79123337835969 10.199999999999982
vertex 260.6889767605391 54.79123337835969 8.299999999999985
endloop
endfacet
facet normal -0.9659258262890745 0.25881904510249737 0.0
outer loop
vertex 260.3293352395224 53.92298194072886 10.199999999999982
vertex 260.20666821416313 52.991233378359375 8.299999999999985
vertex 260.20666821416313 52.991233378359375 10.199999999999982
endloop
endfacet
facet normal -1.0 -5.0133904272908766e-14 0.0
outer loop
vertex 260.20666821416313 52.991233378359375 8.299999999999985
vertex 260.3293352395224 53.92298194072886 10.199999999999982
vertex 260.3293352395224 53.92298194072886 8.299999999999985
endloop
endfacet
facet normal 0.7071067811865689 0.7071067811865261 0.0
outer loop
vertex 268.7564156824686 57.940980846665354 3.799999999999985
vertex 269.86884604065375 56.491233378359304 8.299999999999985
vertex 269.86884604065375 56.491233378359304 3.799999999999985
endloop
endfacet
facet normal 0.8660254037844476 0.4999999999999846 0.0
outer loop
vertex 269.86884604065375 56.491233378359304 8.299999999999985
vertex 268.7564156824686 57.940980846665354 3.799999999999985
vertex 268.7564156824686 57.940980846665354 8.299999999999985
endloop
endfacet
facet normal 0.8660254037844476 0.4999999999999846 0.0
outer loop
vertex 269.86884604065375 56.491233378359304 3.799999999999985
vertex 270.5681489981862 54.8029666940773 8.299999999999985
vertex 270.5681489981862 54.8029666940773 3.799999999999985
endloop
endfacet
facet normal 0.9659258262890601 0.2588190451025516 0.0
outer loop
vertex 270.5681489981862 54.8029666940773 8.299999999999985
vertex 269.86884604065375 56.491233378359304 3.799999999999985
vertex 269.86884604065375 56.491233378359304 8.299999999999985
endloop
endfacet
facet normal 0.2588190451024185 0.9659258262890958 0.0
outer loop
vertex 263.06903393562067 50.23834477343558 10.199999999999982
vertex 263.8066682141628 50.1412333783593 3.7999999999999847
vertex 263.06903393562067 50.23834477343558 3.7999999999999847
endloop
endfacet
facet normal 0.0 1.0 0.0
outer loop
vertex 263.8066682141628 50.1412333783593 3.7999999999999847
vertex 263.06903393562067 50.23834477343558 10.199999999999982
vertex 263.8066682141628 50.1412333783593 10.199999999999982
endloop
endfacet
facet normal -0.2588190451024485 0.9659258262890877 0.0
outer loop
vertex 262.8749196517939 56.468566352999666 10.199999999999982
vertex 263.80666821416304 56.591233378359284 8.299999999999985
vertex 262.8749196517939 56.468566352999666 8.299999999999985
endloop
endfacet
facet normal 1.2529020513280018e-14 1.0 0.0
outer loop
vertex 263.80666821416304 56.591233378359284 8.299999999999985
vertex 262.8749196517939 56.468566352999666 10.199999999999982
vertex 263.80666821416304 56.591233378359284 10.199999999999982
endloop
endfacet
facet normal -0.4999999999998741 0.8660254037845113 0.0
outer loop
vertex 262.0066682141631 56.108924831983465 10.199999999999982
vertex 262.8749196517939 56.468566352999666 8.299999999999985
vertex 262.0066682141631 56.108924831983465 8.299999999999985
endloop
endfacet
facet normal -0.2588190451024485 0.9659258262890877 0.0
outer loop
vertex 262.8749196517939 56.468566352999666 8.299999999999985
vertex 262.0066682141631 56.108924831983465 10.199999999999982
vertex 262.8749196517939 56.468566352999666 10.199999999999982
endloop
endfacet
facet normal -0.7071067811865187 0.7071067811865764 0.0
outer loop
vertex 261.2610838018915 55.5368177906309 10.199999999999982
vertex 262.0066682141631 56.108924831983465 8.299999999999985
vertex 261.2610838018915 55.5368177906309 8.299999999999985
endloop
endfacet
facet normal -0.4999999999998741 0.8660254037845113 0.0
outer loop
vertex 262.0066682141631 56.108924831983465 8.299999999999985
vertex 261.2610838018915 55.5368177906309 10.199999999999982
vertex 262.0066682141631 56.108924831983465 10.199999999999982
endloop
endfacet
facet normal 0.4999999999998741 0.8660254037845113 0.0
outer loop
vertex 265.60666821416277 56.108924831983465 10.199999999999982
vertex 266.35225262643434 55.5368177906309 8.299999999999985
vertex 265.60666821416277 56.108924831983465 8.299999999999985
endloop
endfacet
facet normal 0.707106781186684 0.7071067811864111 0.0
outer loop
vertex 266.35225262643434 55.5368177906309 8.299999999999985
vertex 265.60666821416277 56.108924831983465 10.199999999999982
vertex 266.35225262643434 55.5368177906309 10.199999999999982
endloop
endfacet
facet normal 0.25881904510246057 0.9659258262890845 0.0
outer loop
vertex 264.73841677653195 56.468566352999666 10.199999999999982
vertex 265.60666821416277 56.108924831983465 8.299999999999985
vertex 264.73841677653195 56.468566352999666 8.299999999999985
endloop
endfacet
facet normal 0.4999999999998741 0.8660254037845113 0.0
outer loop
vertex 265.60666821416277 56.108924831983465 8.299999999999985
vertex 264.73841677653195 56.468566352999666 10.199999999999982
vertex 265.60666821416277 56.108924831983465 10.199999999999982
endloop
endfacet
facet normal 1.2529020513280018e-14 1.0 0.0
outer loop
vertex 263.80666821416304 56.591233378359284 10.199999999999982
vertex 264.73841677653195 56.468566352999666 8.299999999999985
vertex 263.80666821416304 56.591233378359284 8.299999999999985
endloop
endfacet
facet normal 0.25881904510246057 0.9659258262890845 0.0
outer loop
vertex 264.73841677653195 56.468566352999666 8.299999999999985
vertex 263.80666821416304 56.591233378359284 10.199999999999982
vertex 264.73841677653195 56.468566352999666 10.199999999999982
endloop
endfacet
facet normal -0.8660254037845192 -0.49999999999986067 0.0
outer loop
vertex 260.68897676053894 51.19123337835979 10.199999999999982
vertex 261.2610838018913 50.44564896608785 8.299999999999985
vertex 261.2610838018913 50.44564896608785 10.199999999999982
endloop
endfacet
facet normal -0.707106781186684 -0.7071067811864111 0.0
outer loop
vertex 261.2610838018913 50.44564896608785 8.299999999999985
vertex 260.68897676053894 51.19123337835979 10.199999999999982
vertex 260.68897676053894 51.19123337835979 8.299999999999985
endloop
endfacet
facet normal -0.4999999999998741 -0.8660254037845113 0.0
outer loop
vertex 262.00666821416286 49.87354192473529 10.199999999999982
vertex 261.2610838018913 50.44564896608785 8.299999999999985
vertex 262.00666821416286 49.87354192473529 8.299999999999985
endloop
endfacet
facet normal -0.707106781186684 -0.7071067811864111 0.0
outer loop
vertex 261.2610838018913 50.44564896608785 8.299999999999985
vertex 262.00666821416286 49.87354192473529 10.199999999999982
vertex 261.2610838018913 50.44564896608785 10.199999999999982
endloop
endfacet
facet normal -0.7071067811864795 -0.7071067811866155 0.0
outer loop
vertex 265.82192254054445 55.00648770474136 10.199999999999982
vertex 265.2316682141629 55.459405779145264 3.7999999999999847
vertex 265.82192254054445 55.00648770474136 3.7999999999999847
endloop
endfacet
facet normal -0.4999999999998253 -0.8660254037845395 0.0
outer loop
vertex 265.2316682141629 55.459405779145264 3.7999999999999847
vertex 265.82192254054445 55.00648770474136 10.199999999999982
vertex 265.2316682141629 55.459405779145264 10.199999999999982
endloop
endfacet
facet normal -0.4999999999998253 -0.8660254037845395 0.0
outer loop
vertex 265.2316682141629 55.459405779145264 10.199999999999982
vertex 264.544302492705 55.74412198328318 3.7999999999999847
vertex 265.2316682141629 55.459405779145264 3.7999999999999847
endloop
endfacet
facet normal -0.2588190451024185 -0.9659258262890958 0.0
outer loop
vertex 264.544302492705 55.74412198328318 3.7999999999999847
vertex 265.2316682141629 55.459405779145264 10.199999999999982
vertex 264.544302492705 55.74412198328318 10.199999999999982
endloop
endfacet
facet normal 0.7071067811867042 -0.7071067811863908 0.0
outer loop
vertex 261.79141388778106 55.00648770474136 3.7999999999999847
vertex 261.3384958133771 54.41623337835905 10.199999999999982
vertex 261.3384958133771 54.41623337835905 3.7999999999999847
endloop
endfacet
facet normal 0.8660254037844825 -0.4999999999999244 0.0
outer loop
vertex 261.3384958133771 54.41623337835905 10.199999999999982
vertex 261.79141388778106 55.00648770474136 3.7999999999999847
vertex 261.79141388778106 55.00648770474136 10.199999999999982
endloop
endfacet
facet normal 0.8660254037844825 -0.4999999999999244 0.0
outer loop
vertex 261.3384958133771 54.41623337835905 3.7999999999999847
vertex 261.05377960923886 53.72886765690192 10.199999999999982
vertex 261.05377960923886 53.72886765690192 3.7999999999999847
endloop
endfacet
facet normal 0.9659258262890291 -0.2588190451026675 0.0
outer loop
vertex 261.05377960923886 53.72886765690192 10.199999999999982
vertex 261.3384958133771 54.41623337835905 3.7999999999999847
vertex 261.3384958133771 54.41623337835905 10.199999999999982
endloop
endfacet
facet normal 0.8660254037845192 0.49999999999986067 0.0
outer loop
vertex 266.92435966778675 54.79123337835897 8.299999999999985
vertex 267.2840011888033 53.92298194072814 10.199999999999982
vertex 267.2840011888033 53.92298194072814 8.299999999999985
endloop
endfacet
facet normal 0.9659258262890846 0.2588190451024601 0.0
outer loop
vertex 267.2840011888033 53.92298194072814 10.199999999999982
vertex 266.92435966778675 54.79123337835897 8.299999999999985
vertex 266.92435966778675 54.79123337835897 10.199999999999982
endloop
endfacet
facet normal 0.707106781186684 0.7071067811864111 0.0
outer loop
vertex 266.35225262643434 55.5368177906309 8.299999999999985
vertex 266.92435966778675 54.79123337835897 10.199999999999982
vertex 266.92435966778675 54.79123337835897 8.299999999999985
endloop
endfacet
facet normal 0.8660254037845192 0.49999999999986067 0.0
outer loop
vertex 266.92435966778675 54.79123337835897 10.199999999999982
vertex 266.35225262643434 55.5368177906309 8.299999999999985
vertex 266.35225262643434 55.5368177906309 10.199999999999982
endloop
endfacet
facet normal -0.4999999999997614 0.8660254037845765 0.0
outer loop
vertex 265.2316682141629 50.52306097757349 10.199999999999982
vertex 265.8219225405446 50.9759790519774 3.7999999999999847
vertex 265.2316682141629 50.52306097757349 3.7999999999999847
endloop
endfacet
facet normal -0.7071067811867042 0.7071067811863908 0.0
outer loop
vertex 265.8219225405446 50.9759790519774 3.7999999999999847
vertex 265.2316682141629 50.52306097757349 10.199999999999982
vertex 265.8219225405446 50.9759790519774 10.199999999999982
endloop
endfacet
facet normal -0.8660254037844825 0.4999999999999244 0.0
outer loop
vertex 266.2748406149485 51.566233378359705 10.199999999999982
vertex 265.8219225405446 50.9759790519774 3.7999999999999847
vertex 265.8219225405446 50.9759790519774 10.199999999999982
endloop
endfacet
facet normal -0.7071067811867042 0.7071067811863908 0.0
outer loop
vertex 265.8219225405446 50.9759790519774 3.7999999999999847
vertex 266.2748406149485 51.566233378359705 10.199999999999982
vertex 266.2748406149485 51.566233378359705 3.7999999999999847
endloop
endfacet
facet normal -0.9659258262890291 0.2588190451026675 0.0
outer loop
vertex 266.5595568190868 52.25359909981684 10.199999999999982
vertex 266.2748406149485 51.566233378359705 3.7999999999999847
vertex 266.2748406149485 51.566233378359705 10.199999999999982
endloop
endfacet
facet normal -0.8660254037844825 0.4999999999999244 0.0
outer loop
vertex 266.2748406149485 51.566233378359705 3.7999999999999847
vertex 266.5595568190868 52.25359909981684 10.199999999999982
vertex 266.5595568190868 52.25359909981684 3.7999999999999847
endloop
endfacet
facet normal 0.9659258262890745 -0.25881904510249737 0.0
outer loop
vertex 267.2840011888033 52.0594848159899 8.299999999999985
vertex 266.9243596677866 51.191233378359065 10.199999999999982
vertex 266.9243596677866 51.191233378359065 8.299999999999985
endloop
endfacet
facet normal 0.8660254037843579 -0.50000000000014 0.0
outer loop
vertex 266.9243596677866 51.191233378359065 10.199999999999982
vertex 267.2840011888033 52.0594848159899 8.299999999999985
vertex 267.2840011888033 52.0594848159899 10.199999999999982
endloop
endfacet
facet normal 1.0 5.0133904272908766e-14 0.0
outer loop
vertex 267.40666821416255 52.991233378359375 8.299999999999985
vertex 267.2840011888033 52.0594848159899 10.199999999999982
vertex 267.2840011888033 52.0594848159899 8.299999999999985
endloop
endfacet
facet normal 0.9659258262890745 -0.25881904510249737 0.0
outer loop
vertex 267.2840011888033 52.0594848159899 10.199999999999982
vertex 267.40666821416255 52.991233378359375 8.299999999999985
vertex 267.40666821416255 52.991233378359375 10.199999999999982
endloop
endfacet
facet normal 0.9659258262890846 0.2588190451024601 0.0
outer loop
vertex 267.2840011888033 53.92298194072814 8.299999999999985
vertex 267.40666821416255 52.991233378359375 10.199999999999982
vertex 267.40666821416255 52.991233378359375 8.299999999999985
endloop
endfacet
facet normal 1.0 5.0133904272908766e-14 0.0
outer loop
vertex 267.40666821416255 52.991233378359375 10.199999999999982
vertex 267.2840011888033 53.92298194072814 8.299999999999985
vertex 267.2840011888033 53.92298194072814 10.199999999999982
endloop
endfacet
facet normal 0.0 0.0 1.0
outer loop
vertex 260.3293352395224 52.059484815990615 10.199999999999982
vertex 260.3293352395224 53.92298194072886 10.199999999999982
vertex 260.20666821416313 52.991233378359375 10.199999999999982
endloop
endfacet
facet normal 0.0 0.0 1.0
outer loop
vertex 260.3293352395224 53.92298194072886 10.199999999999982
vertex 260.3293352395224 52.059484815990615 10.199999999999982
vertex 260.68897676053894 51.19123337835979 10.199999999999982
endloop
endfacet
facet normal 0.0 0.0 1.0
outer loop
vertex 260.3293352395224 53.92298194072886 10.199999999999982
vertex 260.68897676053894 51.19123337835979 10.199999999999982
vertex 260.6889767605391 54.79123337835969 10.199999999999982
endloop
endfacet
facet normal 0.0 0.0 1.0
outer loop
vertex 260.6889767605391 54.79123337835969 10.199999999999982
vertex 260.68897676053894 51.19123337835979 10.199999999999982
vertex 261.2610838018913 50.44564896608785 10.199999999999982
endloop
endfacet
facet normal 0.0 0.0 1.0
outer loop
vertex 260.6889767605391 54.79123337835969 10.199999999999982
vertex 261.2610838018913 50.44564896608785 10.199999999999982
vertex 260.9566682141628 52.991233378359375 10.199999999999982
endloop
endfacet
facet normal 0.0 0.0 1.0
outer loop
vertex 260.9566682141628 52.991233378359375 10.199999999999982
vertex 261.2610838018913 50.44564896608785 10.199999999999982
vertex 261.05377960923886 52.25359909981684 10.199999999999982
endloop
endfacet
facet normal 0.0 0.0 1.0
outer loop
vertex 261.05377960923886 52.25359909981684 10.199999999999982
vertex 261.2610838018913 50.44564896608785 10.199999999999982
vertex 261.3384958133771 51.56623337835898 10.199999999999982
endloop
endfacet
facet normal 0.0 0.0 1.0
outer loop
vertex 261.3384958133771 51.56623337835898 10.199999999999982
vertex 261.2610838018913 50.44564896608785 10.199999999999982
vertex 262.00666821416286 49.87354192473529 10.199999999999982
endloop
endfacet
facet normal 0.0 0.0 1.0
outer loop
vertex 261.3384958133771 51.56623337835898 10.199999999999982
vertex 262.00666821416286 49.87354192473529 10.199999999999982
vertex 261.79141388778123 50.9759790519774 10.199999999999982
endloop
endfacet
facet normal 0.0 0.0 1.0
outer loop
vertex 261.79141388778123 50.9759790519774 10.199999999999982
vertex 262.00666821416286 49.87354192473529 10.199999999999982
vertex 262.3816682141628 50.52306097757349 10.199999999999982
endloop
endfacet
facet normal 0.0 0.0 1.0
outer loop
vertex 262.3816682141628 50.52306097757349 10.199999999999982
vertex 262.00666821416286 49.87354192473529 10.199999999999982
vertex 262.87491965179373 49.51390040371909 10.199999999999982
endloop
endfacet
facet normal 0.0 0.0 1.0
outer loop
vertex 262.3816682141628 50.52306097757349 10.199999999999982
vertex 262.87491965179373 49.51390040371909 10.199999999999982
vertex 263.06903393562067 50.23834477343558 10.199999999999982
endloop
endfacet
facet normal 0.0 0.0 1.0
outer loop
vertex 263.06903393562067 50.23834477343558 10.199999999999982
vertex 262.87491965179373 49.51390040371909 10.199999999999982
vertex 263.80666821416264 49.39123337835947 10.199999999999982
endloop
endfacet
facet normal 0.0 0.0 1.0
outer loop
vertex 263.06903393562067 50.23834477343558 10.199999999999982
vertex 263.80666821416264 49.39123337835947 10.199999999999982
vertex 263.8066682141628 50.1412333783593 10.199999999999982
endloop
endfacet
facet normal 0.0 0.0 1.0
outer loop
vertex 263.8066682141628 50.1412333783593 10.199999999999982
vertex 263.80666821416264 49.39123337835947 10.199999999999982
vertex 264.7384167765318 49.51390040371909 10.199999999999982
endloop
endfacet
facet normal 0.0 0.0 1.0
outer loop
vertex 263.8066682141628 50.1412333783593 10.199999999999982
vertex 264.7384167765318 49.51390040371909 10.199999999999982
vertex 264.544302492705 50.23834477343558 10.199999999999982
endloop
endfacet
facet normal 0.0 0.0 1.0
outer loop
vertex 264.544302492705 50.23834477343558 10.199999999999982
vertex 264.7384167765318 49.51390040371909 10.199999999999982
vertex 265.2316682141629 50.52306097757349 10.199999999999982
endloop
endfacet
facet normal 0.0 0.0 1.0
outer loop
vertex 265.2316682141629 50.52306097757349 10.199999999999982
vertex 264.7384167765318 49.51390040371909 10.199999999999982
vertex 265.6066682141626 49.87354192473529 10.199999999999982
endloop
endfacet
facet normal 0.0 0.0 1.0
outer loop
vertex 265.2316682141629 50.52306097757349 10.199999999999982
vertex 265.6066682141626 49.87354192473529 10.199999999999982
vertex 265.8219225405446 50.9759790519774 10.199999999999982
endloop
endfacet
facet normal 0.0 0.0 1.0
outer loop
vertex 265.8219225405446 50.9759790519774 10.199999999999982
vertex 265.6066682141626 49.87354192473529 10.199999999999982
vertex 266.35225262643416 50.44564896608785 10.199999999999982
endloop
endfacet
facet normal 0.0 0.0 1.0
outer loop
vertex 265.8219225405446 50.9759790519774 10.199999999999982
vertex 266.35225262643416 50.44564896608785 10.199999999999982
vertex 266.2748406149485 51.566233378359705 10.199999999999982
endloop
endfacet
facet normal 0.0 0.0 1.0
outer loop
vertex 266.2748406149485 51.566233378359705 10.199999999999982
vertex 266.35225262643416 50.44564896608785 10.199999999999982
vertex 266.5595568190868 52.25359909981684 10.199999999999982
endloop
endfacet
facet normal 0.0 0.0 1.0
outer loop
vertex 266.5595568190868 52.25359909981684 10.199999999999982
vertex 266.35225262643416 50.44564896608785 10.199999999999982
vertex 266.9243596677866 51.191233378359065 10.199999999999982
endloop
endfacet
facet normal 0.0 0.0 1.0
outer loop
vertex 266.5595568190868 52.25359909981684 10.199999999999982
vertex 266.9243596677866 51.191233378359065 10.199999999999982
vertex 266.6566682141629 52.991233378359375 10.199999999999982
endloop
endfacet
facet normal 0.0 0.0 1.0
outer loop
vertex 260.9566682141628 52.991233378359375 10.199999999999982
vertex 261.2610838018915 55.5368177906309 10.199999999999982
vertex 260.6889767605391 54.79123337835969 10.199999999999982
endloop
endfacet
facet normal 0.0 0.0 1.0
outer loop
vertex 261.2610838018915 55.5368177906309 10.199999999999982
vertex 260.9566682141628 52.991233378359375 10.199999999999982
vertex 261.05377960923886 53.72886765690192 10.199999999999982
endloop
endfacet
facet normal 0.0 0.0 1.0
outer loop
vertex 261.2610838018915 55.5368177906309 10.199999999999982
vertex 261.05377960923886 53.72886765690192 10.199999999999982
vertex 261.3384958133771 54.41623337835905 10.199999999999982
endloop
endfacet
facet normal 0.0 0.0 1.0
outer loop
vertex 261.2610838018915 55.5368177906309 10.199999999999982
vertex 261.3384958133771 54.41623337835905 10.199999999999982
vertex 262.0066682141631 56.108924831983465 10.199999999999982
endloop
endfacet
facet normal 0.0 0.0 1.0
outer loop
vertex 262.0066682141631 56.108924831983465 10.199999999999982
vertex 261.3384958133771 54.41623337835905 10.199999999999982
vertex 261.79141388778106 55.00648770474136 10.199999999999982
endloop
endfacet
facet normal 0.0 0.0 1.0
outer loop
vertex 262.0066682141631 56.108924831983465 10.199999999999982
vertex 261.79141388778106 55.00648770474136 10.199999999999982
vertex 262.3816682141628 55.459405779145264 10.199999999999982
endloop
endfacet
facet normal 0.0 0.0 1.0
outer loop
vertex 262.0066682141631 56.108924831983465 10.199999999999982
vertex 262.3816682141628 55.459405779145264 10.199999999999982
vertex 262.8749196517939 56.468566352999666 10.199999999999982
endloop
endfacet
facet normal 0.0 0.0 1.0
outer loop
vertex 262.8749196517939 56.468566352999666 10.199999999999982
vertex 262.3816682141628 55.459405779145264 10.199999999999982
vertex 263.06903393562067 55.74412198328318 10.199999999999982
endloop
endfacet
facet normal 0.0 0.0 1.0
outer loop
vertex 262.8749196517939 56.468566352999666 10.199999999999982
vertex 263.06903393562067 55.74412198328318 10.199999999999982
vertex 263.80666821416304 56.591233378359284 10.199999999999982
endloop
endfacet
facet normal 0.0 0.0 1.0
outer loop
vertex 263.80666821416304 56.591233378359284 10.199999999999982
vertex 263.06903393562067 55.74412198328318 10.199999999999982
vertex 263.8066682141628 55.841233378359455 10.199999999999982
endloop
endfacet
facet normal 0.0 0.0 1.0
outer loop
vertex 263.80666821416304 56.591233378359284 10.199999999999982
vertex 263.8066682141628 55.841233378359455 10.199999999999982
vertex 264.544302492705 55.74412198328318 10.199999999999982
endloop
endfacet
facet normal 0.0 0.0 1.0
outer loop
vertex 263.80666821416304 56.591233378359284 10.199999999999982
vertex 264.544302492705 55.74412198328318 10.199999999999982
vertex 264.73841677653195 56.468566352999666 10.199999999999982
endloop
endfacet
facet normal 0.0 0.0 1.0
outer loop
vertex 264.73841677653195 56.468566352999666 10.199999999999982
vertex 264.544302492705 55.74412198328318 10.199999999999982
vertex 265.2316682141629 55.459405779145264 10.199999999999982
endloop
endfacet
facet normal 0.0 0.0 1.0
outer loop
vertex 264.73841677653195 56.468566352999666 10.199999999999982
vertex 265.2316682141629 55.459405779145264 10.199999999999982
vertex 265.60666821416277 56.108924831983465 10.199999999999982
endloop
endfacet
facet normal 0.0 0.0 1.0
outer loop
vertex 265.60666821416277 56.108924831983465 10.199999999999982
vertex 265.2316682141629 55.459405779145264 10.199999999999982
vertex 265.82192254054445 55.00648770474136 10.199999999999982
endloop
endfacet
facet normal 0.0 0.0 1.0
outer loop
vertex 265.60666821416277 56.108924831983465 10.199999999999982
vertex 265.82192254054445 55.00648770474136 10.199999999999982
vertex 266.35225262643434 55.5368177906309 10.199999999999982
endloop
endfacet
facet normal 0.0 0.0 1.0
outer loop
vertex 266.35225262643434 55.5368177906309 10.199999999999982
vertex 265.82192254054445 55.00648770474136 10.199999999999982
vertex 266.2748406149485 54.41623337835978 10.199999999999982
endloop
endfacet
facet normal 0.0 0.0 1.0
outer loop
vertex 266.35225262643434 55.5368177906309 10.199999999999982
vertex 266.2748406149485 54.41623337835978 10.199999999999982
vertex 266.5595568190868 53.72886765690192 10.199999999999982
endloop
endfacet
facet normal 0.0 0.0 1.0
outer loop
vertex 266.35225262643434 55.5368177906309 10.199999999999982
vertex 266.5595568190868 53.72886765690192 10.199999999999982
vertex 266.92435966778675 54.79123337835897 10.199999999999982
endloop
endfacet
facet normal 0.0 0.0 1.0
outer loop
vertex 266.92435966778675 54.79123337835897 10.199999999999982
vertex 266.5595568190868 53.72886765690192 10.199999999999982
vertex 266.6566682141629 52.991233378359375 10.199999999999982
endloop
endfacet
facet normal 0.0 0.0 1.0
outer loop
vertex 266.92435966778675 54.79123337835897 10.199999999999982
vertex 266.6566682141629 52.991233378359375 10.199999999999982
vertex 266.9243596677866 51.191233378359065 10.199999999999982
endloop
endfacet
facet normal 0.0 0.0 1.0
outer loop
vertex 266.92435966778675 54.79123337835897 10.199999999999982
vertex 266.9243596677866 51.191233378359065 10.199999999999982
vertex 267.2840011888033 52.0594848159899 10.199999999999982
endloop
endfacet
facet normal 0.0 0.0 1.0
outer loop
vertex 266.92435966778675 54.79123337835897 10.199999999999982
vertex 267.2840011888033 52.0594848159899 10.199999999999982
vertex 267.2840011888033 53.92298194072814 10.199999999999982
endloop
endfacet
facet normal 0.0 0.0 1.0
outer loop
vertex 267.2840011888033 53.92298194072814 10.199999999999982
vertex 267.2840011888033 52.0594848159899 10.199999999999982
vertex 267.40666821416255 52.991233378359375 10.199999999999982
endloop
endfacet
facet normal 0.9659258262890601 0.2588190451025516 0.0
outer loop
vertex 270.5681489981862 54.8029666940773 3.799999999999985
vertex 270.8066682141627 52.991233378359375 8.299999999999985
vertex 270.8066682141627 52.991233378359375 3.799999999999985
endloop
endfacet
facet normal 1.0 0.0 0.0
outer loop
vertex 270.8066682141627 52.991233378359375 8.299999999999985
vertex 270.5681489981862 54.8029666940773 3.799999999999985
vertex 270.5681489981862 54.8029666940773 8.299999999999985
endloop
endfacet
facet normal 1.0 0.0 0.0
outer loop
vertex 270.8066682141627 52.991233378359375 3.799999999999985
vertex 270.5681489981862 51.17950006264146 8.299999999999985
vertex 270.5681489981862 51.17950006264146 3.799999999999985
endloop
endfacet
facet normal 0.9659258262890601 -0.2588190451025516 0.0
outer loop
vertex 270.5681489981862 51.17950006264146 8.299999999999985
vertex 270.8066682141627 52.991233378359375 3.799999999999985
vertex 270.8066682141627 52.991233378359375 8.299999999999985
endloop
endfacet
facet normal 0.9659258262890601 -0.2588190451025516 0.0
outer loop
vertex 270.5681489981862 51.17950006264146 3.799999999999985
vertex 269.86884604065375 49.49123337835945 8.299999999999985
vertex 269.86884604065375 49.49123337835945 3.799999999999985
endloop
endfacet
facet normal 0.8660254037844476 -0.4999999999999846 0.0
outer loop
vertex 269.86884604065375 49.49123337835945 8.299999999999985
vertex 270.5681489981862 51.17950006264146 3.799999999999985
vertex 270.5681489981862 51.17950006264146 8.299999999999985
endloop
endfacet
facet normal 0.4999999999998741 -0.8660254037845113 0.0
outer loop
vertex 265.6066682141626 49.87354192473529 10.199999999999982
vertex 264.7384167765318 49.51390040371909 8.299999999999985
vertex 265.6066682141626 49.87354192473529 8.299999999999985
endloop
endfacet
facet normal 0.2588190451024485 -0.9659258262890877 0.0
outer loop
vertex 264.7384167765318 49.51390040371909 8.299999999999985
vertex 265.6066682141626 49.87354192473529 10.199999999999982
vertex 264.7384167765318 49.51390040371909 10.199999999999982
endloop
endfacet
facet normal 0.7071067811865187 -0.7071067811865764 0.0
outer loop
vertex 266.35225262643416 50.44564896608785 10.199999999999982
vertex 265.6066682141626 49.87354192473529 8.299999999999985
vertex 266.35225262643416 50.44564896608785 8.299999999999985
endloop
endfacet
facet normal 0.4999999999998741 -0.8660254037845113 0.0
outer loop
vertex 265.6066682141626 49.87354192473529 8.299999999999985
vertex 266.35225262643416 50.44564896608785 10.199999999999982
vertex 265.6066682141626 49.87354192473529 10.199999999999982
endloop
endfacet
facet normal 0.8660254037843579 -0.50000000000014 0.0
outer loop
vertex 266.9243596677866 51.191233378359065 8.299999999999985
vertex 266.35225262643416 50.44564896608785 10.199999999999982
vertex 266.35225262643416 50.44564896608785 8.299999999999985
endloop
endfacet
facet normal 0.7071067811865187 -0.7071067811865764 0.0
outer loop
vertex 266.35225262643416 50.44564896608785 10.199999999999982
vertex 266.9243596677866 51.191233378359065 8.299999999999985
vertex 266.9243596677866 51.191233378359065 10.199999999999982
endloop
endfacet
facet normal 0.7071067811864795 0.7071067811866155 0.0
outer loop
vertex 261.79141388778123 50.9759790519774 10.199999999999982
vertex 262.3816682141628 50.52306097757349 3.7999999999999847
vertex 261.79141388778123 50.9759790519774 3.7999999999999847
endloop
endfacet
facet normal 0.4999999999998253 0.8660254037845395 0.0
outer loop
vertex 262.3816682141628 50.52306097757349 3.7999999999999847
vertex 261.79141388778123 50.9759790519774 10.199999999999982
vertex 262.3816682141628 50.52306097757349 10.199999999999982
endloop
endfacet
facet normal 0.4999999999998253 0.8660254037845395 0.0
outer loop
vertex 262.3816682141628 50.52306097757349 10.199999999999982
vertex 263.06903393562067 50.23834477343558 3.7999999999999847
vertex 262.3816682141628 50.52306097757349 3.7999999999999847
endloop
endfacet
facet normal 0.2588190451024185 0.9659258262890958 0.0
outer loop
vertex 263.06903393562067 50.23834477343558 3.7999999999999847
vertex 262.3816682141628 50.52306097757349 10.199999999999982
vertex 263.06903393562067 50.23834477343558 10.199999999999982
endloop
endfacet
facet normal 0.2588190451024185 -0.9659258262890958 0.0
outer loop
vertex 263.06903393562067 55.74412198328318 10.199999999999982
vertex 262.3816682141628 55.459405779145264 3.7999999999999847
vertex 263.06903393562067 55.74412198328318 3.7999999999999847
endloop
endfacet
facet normal 0.4999999999997614 -0.8660254037845765 0.0
outer loop
vertex 262.3816682141628 55.459405779145264 3.7999999999999847
vertex 263.06903393562067 55.74412198328318 10.199999999999982
vertex 262.3816682141628 55.459405779145264 10.199999999999982
endloop
endfacet
facet normal 0.4999999999997614 -0.8660254037845765 0.0
outer loop
vertex 262.3816682141628 55.459405779145264 10.199999999999982
vertex 261.79141388778106 55.00648770474136 3.7999999999999847
vertex 262.3816682141628 55.459405779145264 3.7999999999999847
endloop
endfacet
facet normal 0.7071067811867042 -0.7071067811863908 0.0
outer loop
vertex 261.79141388778106 55.00648770474136 3.7999999999999847
vertex 262.3816682141628 55.459405779145264 10.199999999999982
vertex 261.79141388778106 55.00648770474136 10.199999999999982
endloop
endfacet
endsolid recordPlayer_3d_final
