solid recordPlayer_3d_final
facet normal 0.0 0.0 -1.0
outer loop
vertex 230.49771011459364 52.44310191167263 2.299999999999996
vertex 230.43381408972374 50.9433119242574 2.299999999999996
vertex 230.36703655330882 51.697412953595204 2.299999999999996
endloop
endfacet
facet normal 0.0 0.0 -1.0
outer loop
vertex 230.43381408972374 50.9433119242574 2.299999999999996
vertex 230.49771011459364 52.44310191167263 2.299999999999996
vertex 230.69349194508675 50.232189562598066 2.299999999999996
endloop
endfacet
facet normal 0.0 0.0 -1.0
outer loop
vertex 230.69349194508675 50.232189562598066 2.299999999999996
vertex 230.49771011459364 52.44310191167263 2.299999999999996
vertex 230.81692958632513 53.129561328306714 2.299999999999996
endloop
endfacet
facet normal 0.0 0.0 -1.0
outer loop
vertex 230.69349194508675 50.232189562598066 2.299999999999996
vertex 230.81692958632513 53.129561328306714 2.299999999999996
vertex 231.12837350269308 49.61250768237944 2.299999999999996
endloop
endfacet
facet normal 0.0 0.0 -1.0
outer loop
vertex 231.12837350269308 49.61250768237944 2.299999999999996
vertex 230.81692958632513 53.129561328306714 2.299999999999996
vertex 231.3029406890397 53.7100101286814 2.299999999999996
endloop
endfacet
facet normal 0.0 0.0 -1.0
outer loop
vertex 231.12837350269308 49.61250768237944 2.299999999999996
vertex 231.3029406890397 53.7100101286814 2.299999999999996
vertex 231.7088223030674 49.1264965796643 2.299999999999996
endloop
endfacet
facet normal 0.0 0.0 -1.0
outer loop
vertex 231.7088223030674 49.1264965796643 2.299999999999996
vertex 231.3029406890397 53.7100101286814 2.299999999999996
vertex 231.9226225692587 54.14489168628701 2.299999999999996
endloop
endfacet
facet normal 0.0 0.0 -1.0
outer loop
vertex 231.7088223030674 49.1264965796643 2.299999999999996
vertex 231.9226225692587 54.14489168628701 2.299999999999996
vertex 232.3952817197013 48.80727710793355 2.299999999999996
endloop
endfacet
facet normal 0.0 0.0 -1.0
outer loop
vertex 232.3952817197013 48.80727710793355 2.299999999999996
vertex 231.9226225692587 54.14489168628701 2.299999999999996
vertex 232.63374493091786 54.404569541650744 2.299999999999996
endloop
endfacet
facet normal 0.0 0.0 -1.0
outer loop
vertex 232.3952817197013 48.80727710793355 2.299999999999996
vertex 232.63374493091786 54.404569541650744 2.299999999999996
vertex 233.1409706777789 48.676603546648174 2.299999999999996
endloop
endfacet
facet normal 0.0 0.0 -1.0
outer loop
vertex 233.1409706777789 48.676603546648174 2.299999999999996
vertex 232.63374493091786 54.404569541650744 2.299999999999996
vertex 233.38784596025567 54.47134707806548 2.299999999999996
endloop
endfacet
facet normal 0.0 0.0 -1.0
outer loop
vertex 233.1409706777789 48.676603546648174 2.299999999999996
vertex 233.38784596025567 54.47134707806548 2.299999999999996
vertex 233.89507170711673 48.743381083062914 2.299999999999996
endloop
endfacet
facet normal 0.0 0.0 -1.0
outer loop
vertex 233.89507170711673 48.743381083062914 2.299999999999996
vertex 233.38784596025567 54.47134707806548 2.299999999999996
vertex 234.13353491833328 54.34067351678011 2.299999999999996
endloop
endfacet
facet normal 0.0 0.0 -1.0
outer loop
vertex 233.89507170711673 48.743381083062914 2.299999999999996
vertex 234.13353491833328 54.34067351678011 2.299999999999996
vertex 234.60619406877586 49.00305893842664 2.299999999999996
endloop
endfacet
facet normal 0.0 0.0 -1.0
outer loop
vertex 234.60619406877586 49.00305893842664 2.299999999999996
vertex 234.13353491833328 54.34067351678011 2.299999999999996
vertex 234.81999433496716 54.02145404504936 2.299999999999996
endloop
endfacet
facet normal 0.0 0.0 -1.0
outer loop
vertex 234.60619406877586 49.00305893842664 2.299999999999996
vertex 234.81999433496716 54.02145404504936 2.299999999999996
vertex 235.22587594899485 49.437940496032255 2.299999999999996
endloop
endfacet
facet normal 0.0 0.0 -1.0
outer loop
vertex 235.22587594899485 49.437940496032255 2.299999999999996
vertex 234.81999433496716 54.02145404504936 2.299999999999996
vertex 235.4004431353415 53.53544294233422 2.299999999999996
endloop
endfacet
facet normal 0.0 0.0 -1.0
outer loop
vertex 235.22587594899485 49.437940496032255 2.299999999999996
vertex 235.4004431353415 53.53544294233422 2.299999999999996
vertex 235.71188705170945 50.01838929640694 2.299999999999996
endloop
endfacet
facet normal 0.0 0.0 -1.0
outer loop
vertex 235.71188705170945 50.01838929640694 2.299999999999996
vertex 235.4004431353415 53.53544294233422 2.299999999999996
vertex 235.83532469294784 52.91576106211559 2.299999999999996
endloop
endfacet
facet normal 0.0 0.0 -1.0
outer loop
vertex 235.71188705170945 50.01838929640694 2.299999999999996
vertex 235.83532469294784 52.91576106211559 2.299999999999996
vertex 236.03110652344094 50.704848713041024 2.299999999999996
endloop
endfacet
facet normal 0.0 0.0 -1.0
outer loop
vertex 236.03110652344094 50.704848713041024 2.299999999999996
vertex 235.83532469294784 52.91576106211559 2.299999999999996
vertex 236.09500254831084 52.20463870045626 2.299999999999996
endloop
endfacet
facet normal 0.0 0.0 -1.0
outer loop
vertex 236.03110652344094 50.704848713041024 2.299999999999996
vertex 236.09500254831084 52.20463870045626 2.299999999999996
vertex 236.16178008472576 51.450537671118454 2.299999999999996
endloop
endfacet
facet normal 0.0 0.0 1.0
outer loop
vertex 230.43381408972374 50.9433119242574 52.3
vertex 230.49771011459364 52.44310191167263 52.3
vertex 230.36703655330882 51.697412953595204 52.3
endloop
endfacet
facet normal 0.0 0.0 1.0
outer loop
vertex 230.49771011459364 52.44310191167263 52.3
vertex 230.43381408972374 50.9433119242574 52.3
vertex 230.69349194508675 50.232189562598066 52.3
endloop
endfacet
facet normal 0.0 0.0 1.0
outer loop
vertex 230.49771011459364 52.44310191167263 52.3
vertex 230.69349194508675 50.232189562598066 52.3
vertex 230.81692958632513 53.129561328306714 52.3
endloop
endfacet
facet normal 0.0 0.0 1.0
outer loop
vertex 230.81692958632513 53.129561328306714 52.3
vertex 230.69349194508675 50.232189562598066 52.3
vertex 231.12837350269308 49.61250768237944 52.3
endloop
endfacet
facet normal 0.0 0.0 1.0
outer loop
vertex 230.81692958632513 53.129561328306714 52.3
vertex 231.12837350269308 49.61250768237944 52.3
vertex 231.3029406890397 53.7100101286814 52.3
endloop
endfacet
facet normal 0.0 0.0 1.0
outer loop
vertex 231.3029406890397 53.7100101286814 52.3
vertex 231.12837350269308 49.61250768237944 52.3
vertex 231.7088223030674 49.1264965796643 52.3
endloop
endfacet
facet normal 0.0 0.0 1.0
outer loop
vertex 231.3029406890397 53.7100101286814 52.3
vertex 231.7088223030674 49.1264965796643 52.3
vertex 231.9226225692587 54.14489168628701 52.3
endloop
endfacet
facet normal 0.0 0.0 1.0
outer loop
vertex 231.9226225692587 54.14489168628701 52.3
vertex 231.7088223030674 49.1264965796643 52.3
vertex 232.3952817197013 48.80727710793355 52.3
endloop
endfacet
facet normal 0.0 0.0 1.0
outer loop
vertex 231.9226225692587 54.14489168628701 52.3
vertex 232.3952817197013 48.80727710793355 52.3
vertex 232.63374493091786 54.404569541650744 52.3
endloop
endfacet
facet normal 0.0 0.0 1.0
outer loop
vertex 232.63374493091786 54.404569541650744 52.3
vertex 232.3952817197013 48.80727710793355 52.3
vertex 233.1409706777789 48.676603546648174 52.3
endloop
endfacet
facet normal 0.0 0.0 1.0
outer loop
vertex 232.63374493091786 54.404569541650744 52.3
vertex 233.1409706777789 48.676603546648174 52.3
vertex 233.38784596025567 54.47134707806548 52.3
endloop
endfacet
facet normal 0.0 0.0 1.0
outer loop
vertex 233.38784596025567 54.47134707806548 52.3
vertex 233.1409706777789 48.676603546648174 52.3
vertex 233.89507170711673 48.743381083062914 52.3
endloop
endfacet
facet normal 0.0 0.0 1.0
outer loop
vertex 233.38784596025567 54.47134707806548 52.3
vertex 233.89507170711673 48.743381083062914 52.3
vertex 234.13353491833328 54.34067351678011 52.3
endloop
endfacet
facet normal 0.0 0.0 1.0
outer loop
vertex 234.13353491833328 54.34067351678011 52.3
vertex 233.89507170711673 48.743381083062914 52.3
vertex 234.60619406877586 49.00305893842664 52.3
endloop
endfacet
facet normal 0.0 0.0 1.0
outer loop
vertex 234.13353491833328 54.34067351678011 52.3
vertex 234.60619406877586 49.00305893842664 52.3
vertex 234.81999433496716 54.02145404504936 52.3
endloop
endfacet
facet normal 0.0 0.0 1.0
outer loop
vertex 234.81999433496716 54.02145404504936 52.3
vertex 234.60619406877586 49.00305893842664 52.3
vertex 235.22587594899485 49.437940496032255 52.3
endloop
endfacet
facet normal 0.0 0.0 1.0
outer loop
vertex 234.81999433496716 54.02145404504936 52.3
vertex 235.22587594899485 49.437940496032255 52.3
vertex 235.4004431353415 53.53544294233422 52.3
endloop
endfacet
facet normal 0.0 0.0 1.0
outer loop
vertex 235.4004431353415 53.53544294233422 52.3
vertex 235.22587594899485 49.437940496032255 52.3
vertex 235.71188705170945 50.01838929640694 52.3
endloop
endfacet
facet normal 0.0 0.0 1.0
outer loop
vertex 235.4004431353415 53.53544294233422 52.3
vertex 235.71188705170945 50.01838929640694 52.3
vertex 235.83532469294784 52.91576106211559 52.3
endloop
endfacet
facet normal 0.0 0.0 1.0
outer loop
vertex 235.83532469294784 52.91576106211559 52.3
vertex 235.71188705170945 50.01838929640694 52.3
vertex 236.03110652344094 50.704848713041024 52.3
endloop
endfacet
facet normal 0.0 0.0 1.0
outer loop
vertex 235.83532469294784 52.91576106211559 52.3
vertex 236.03110652344094 50.704848713041024 52.3
vertex 236.09500254831084 52.20463870045626 52.3
endloop
endfacet
facet normal 0.0 0.0 1.0
outer loop
vertex 236.09500254831084 52.20463870045626 52.3
vertex 236.03110652344094 50.704848713041024 52.3
vertex 236.16178008472576 51.450537671118454 52.3
endloop
endfacet
facet normal -0.8439581836870675 0.536408971017102 0.0
outer loop
vertex 230.81692958632513 53.129561328306714 52.3
vertex 230.49771011459364 52.44310191167263 2.299999999999996
vertex 230.49771011459364 52.44310191167263 52.3
endloop
endfacet
facet normal -0.9540338635943967 0.29969882735030595 0.0
outer loop
vertex 230.49771011459364 52.44310191167263 2.299999999999996
vertex 230.81692958632513 53.129561328306714 52.3
vertex 230.81692958632513 53.129561328306714 2.299999999999996
endloop
endfacet
facet normal -0.6763681482679992 0.7365637297671654 0.0
outer loop
vertex 231.3029406890397 53.7100101286814 52.3
vertex 230.81692958632513 53.129561328306714 2.299999999999996
vertex 230.81692958632513 53.129561328306714 52.3
endloop
endfacet
facet normal -0.8439581836870675 0.536408971017102 0.0
outer loop
vertex 230.81692958632513 53.129561328306714 2.299999999999996
vertex 231.3029406890397 53.7100101286814 52.3
vertex 231.3029406890397 53.7100101286814 2.299999999999996
endloop
endfacet
facet normal -0.6763681482679992 0.7365637297671654 0.0
outer loop
vertex 231.3029406890397 53.7100101286814 52.3
vertex 231.9226225692587 54.14489168628701 2.299999999999996
vertex 231.3029406890397 53.7100101286814 2.299999999999996
endloop
endfacet
facet normal -0.46268474129614245 0.8865228875622568 0.0
outer loop
vertex 231.9226225692587 54.14489168628701 2.299999999999996
vertex 231.3029406890397 53.7100101286814 52.3
vertex 231.9226225692587 54.14489168628701 52.3
endloop
endfacet
facet normal -0.46268474129614245 0.8865228875622568 0.0
outer loop
vertex 231.9226225692587 54.14489168628701 52.3
vertex 232.63374493091786 54.404569541650744 2.299999999999996
vertex 231.9226225692587 54.14489168628701 2.299999999999996
endloop
endfacet
facet normal -0.2174701338276725 0.9760669756184636 0.0
outer loop
vertex 232.63374493091786 54.404569541650744 2.299999999999996
vertex 231.9226225692587 54.14489168628701 52.3
vertex 232.63374493091786 54.404569541650744 52.3
endloop
endfacet
facet normal -0.2174701338276725 0.9760669756184636 0.0
outer loop
vertex 232.63374493091786 54.404569541650744 52.3
vertex 233.38784596025567 54.47134707806548 2.299999999999996
vertex 232.63374493091786 54.404569541650744 2.299999999999996
endloop
endfacet
facet normal 0.04256470387570003 0.9990937123133015 0.0
outer loop
vertex 233.38784596025567 54.47134707806548 2.299999999999996
vertex 232.63374493091786 54.404569541650744 52.3
vertex 233.38784596025567 54.47134707806548 52.3
endloop
endfacet
facet normal 0.04256470387570003 0.9990937123133015 0.0
outer loop
vertex 233.38784596025567 54.47134707806548 52.3
vertex 234.13353491833328 54.34067351678011 2.299999999999996
vertex 233.38784596025567 54.47134707806548 2.299999999999996
endloop
endfacet
facet normal 0.2996988273502578 0.9540338635944117 0.0
outer loop
vertex 234.13353491833328 54.34067351678011 2.299999999999996
vertex 233.38784596025567 54.47134707806548 52.3
vertex 234.13353491833328 54.34067351678011 52.3
endloop
endfacet
facet normal 0.2996988273502578 0.9540338635944117 0.0
outer loop
vertex 234.13353491833328 54.34067351678011 52.3
vertex 234.81999433496716 54.02145404504936 2.299999999999996
vertex 234.13353491833328 54.34067351678011 2.299999999999996
endloop
endfacet
facet normal 0.53640897101714 0.8439581836870433 0.0
outer loop
vertex 234.81999433496716 54.02145404504936 2.299999999999996
vertex 234.13353491833328 54.34067351678011 52.3
vertex 234.81999433496716 54.02145404504936 52.3
endloop
endfacet
facet normal 0.53640897101714 0.8439581836870433 0.0
outer loop
vertex 234.81999433496716 54.02145404504936 52.3
vertex 235.4004431353415 53.53544294233422 2.299999999999996
vertex 234.81999433496716 54.02145404504936 2.299999999999996
endloop
endfacet
facet normal 0.7365637297670977 0.6763681482680729 0.0
outer loop
vertex 235.4004431353415 53.53544294233422 2.299999999999996
vertex 234.81999433496716 54.02145404504936 52.3
vertex 235.4004431353415 53.53544294233422 52.3
endloop
endfacet
facet normal 0.7365637297670977 0.6763681482680729 0.0
outer loop
vertex 235.4004431353415 53.53544294233422 2.299999999999996
vertex 235.83532469294784 52.91576106211559 52.3
vertex 235.83532469294784 52.91576106211559 2.299999999999996
endloop
endfacet
facet normal 0.8865228875622391 0.46268474129617654 0.0
outer loop
vertex 235.83532469294784 52.91576106211559 52.3
vertex 235.4004431353415 53.53544294233422 2.299999999999996
vertex 235.4004431353415 53.53544294233422 52.3
endloop
endfacet
facet normal 0.8865228875622391 0.46268474129617654 0.0
outer loop
vertex 235.83532469294784 52.91576106211559 2.299999999999996
vertex 236.09500254831084 52.20463870045626 52.3
vertex 236.09500254831084 52.20463870045626 2.299999999999996
endloop
endfacet
facet normal 0.9760669756185439 0.21747013382731137 0.0
outer loop
vertex 236.09500254831084 52.20463870045626 52.3
vertex 235.83532469294784 52.91576106211559 2.299999999999996
vertex 235.83532469294784 52.91576106211559 52.3
endloop
endfacet
facet normal 0.9760669756185439 0.21747013382731137 0.0
outer loop
vertex 236.09500254831084 52.20463870045626 2.299999999999996
vertex 236.16178008472576 51.450537671118454 52.3
vertex 236.16178008472576 51.450537671118454 2.299999999999996
endloop
endfacet
facet normal 0.9990937123133208 -0.04256470387525007 0.0
outer loop
vertex 236.16178008472576 51.450537671118454 52.3
vertex 236.09500254831084 52.20463870045626 2.299999999999996
vertex 236.09500254831084 52.20463870045626 52.3
endloop
endfacet
facet normal 0.9990937123133208 -0.04256470387525007 0.0
outer loop
vertex 236.16178008472576 51.450537671118454 2.299999999999996
vertex 236.03110652344094 50.704848713041024 52.3
vertex 236.03110652344094 50.704848713041024 2.299999999999996
endloop
endfacet
facet normal 0.9540338635943967 -0.29969882735030595 0.0
outer loop
vertex 236.03110652344094 50.704848713041024 52.3
vertex 236.16178008472576 51.450537671118454 2.299999999999996
vertex 236.16178008472576 51.450537671118454 52.3
endloop
endfacet
facet normal 0.9540338635943967 -0.29969882735030595 0.0
outer loop
vertex 236.03110652344094 50.704848713041024 2.299999999999996
vertex 235.71188705170945 50.01838929640694 52.3
vertex 235.71188705170945 50.01838929640694 2.299999999999996
endloop
endfacet
facet normal 0.8439581836870675 -0.536408971017102 0.0
outer loop
vertex 235.71188705170945 50.01838929640694 52.3
vertex 236.03110652344094 50.704848713041024 2.299999999999996
vertex 236.03110652344094 50.704848713041024 52.3
endloop
endfacet
facet normal 0.8439581836870675 -0.536408971017102 0.0
outer loop
vertex 235.71188705170945 50.01838929640694 2.299999999999996
vertex 235.22587594899485 49.437940496032255 52.3
vertex 235.22587594899485 49.437940496032255 2.299999999999996
endloop
endfacet
facet normal 0.6763681482679992 -0.7365637297671654 0.0
outer loop
vertex 235.22587594899485 49.437940496032255 52.3
vertex 235.71188705170945 50.01838929640694 2.299999999999996
vertex 235.71188705170945 50.01838929640694 52.3
endloop
endfacet
facet normal 0.6763681482679992 -0.7365637297671654 0.0
outer loop
vertex 235.22587594899485 49.437940496032255 52.3
vertex 234.60619406877586 49.00305893842664 2.299999999999996
vertex 235.22587594899485 49.437940496032255 2.299999999999996
endloop
endfacet
facet normal 0.46268474129614245 -0.8865228875622568 0.0
outer loop
vertex 234.60619406877586 49.00305893842664 2.299999999999996
vertex 235.22587594899485 49.437940496032255 52.3
vertex 234.60619406877586 49.00305893842664 52.3
endloop
endfacet
facet normal 0.46268474129614245 -0.8865228875622568 0.0
outer loop
vertex 234.60619406877586 49.00305893842664 52.3
vertex 233.89507170711673 48.743381083062914 2.299999999999996
vertex 234.60619406877586 49.00305893842664 2.299999999999996
endloop
endfacet
facet normal 0.2174701338276725 -0.9760669756184636 0.0
outer loop
vertex 233.89507170711673 48.743381083062914 2.299999999999996
vertex 234.60619406877586 49.00305893842664 52.3
vertex 233.89507170711673 48.743381083062914 52.3
endloop
endfacet
facet normal 0.2174701338276725 -0.9760669756184636 0.0
outer loop
vertex 233.89507170711673 48.743381083062914 52.3
vertex 233.1409706777789 48.676603546648174 2.299999999999996
vertex 233.89507170711673 48.743381083062914 2.299999999999996
endloop
endfacet
facet normal -0.04256470387570003 -0.9990937123133015 0.0
outer loop
vertex 233.1409706777789 48.676603546648174 2.299999999999996
vertex 233.89507170711673 48.743381083062914 52.3
vertex 233.1409706777789 48.676603546648174 52.3
endloop
endfacet
facet normal -0.04256470387570003 -0.9990937123133015 0.0
outer loop
vertex 233.1409706777789 48.676603546648174 52.3
vertex 232.3952817197013 48.80727710793355 2.299999999999996
vertex 233.1409706777789 48.676603546648174 2.299999999999996
endloop
endfacet
facet normal -0.2996988273502578 -0.9540338635944117 0.0
outer loop
vertex 232.3952817197013 48.80727710793355 2.299999999999996
vertex 233.1409706777789 48.676603546648174 52.3
vertex 232.3952817197013 48.80727710793355 52.3
endloop
endfacet
facet normal -0.2996988273502578 -0.9540338635944117 0.0
outer loop
vertex 232.3952817197013 48.80727710793355 52.3
vertex 231.7088223030674 49.1264965796643 2.299999999999996
vertex 232.3952817197013 48.80727710793355 2.299999999999996
endloop
endfacet
facet normal -0.53640897101714 -0.8439581836870433 0.0
outer loop
vertex 231.7088223030674 49.1264965796643 2.299999999999996
vertex 232.3952817197013 48.80727710793355 52.3
vertex 231.7088223030674 49.1264965796643 52.3
endloop
endfacet
facet normal -0.53640897101714 -0.8439581836870433 0.0
outer loop
vertex 231.7088223030674 49.1264965796643 52.3
vertex 231.12837350269308 49.61250768237944 2.299999999999996
vertex 231.7088223030674 49.1264965796643 2.299999999999996
endloop
endfacet
facet normal -0.7365637297670977 -0.6763681482680729 0.0
outer loop
vertex 231.12837350269308 49.61250768237944 2.299999999999996
vertex 231.7088223030674 49.1264965796643 52.3
vertex 231.12837350269308 49.61250768237944 52.3
endloop
endfacet
facet normal -0.8865228875622391 -0.46268474129617654 0.0
outer loop
vertex 230.69349194508675 50.232189562598066 52.3
vertex 231.12837350269308 49.61250768237944 2.299999999999996
vertex 231.12837350269308 49.61250768237944 52.3
endloop
endfacet
facet normal -0.7365637297670977 -0.6763681482680729 0.0
outer loop
vertex 231.12837350269308 49.61250768237944 2.299999999999996
vertex 230.69349194508675 50.232189562598066 52.3
vertex 230.69349194508675 50.232189562598066 2.299999999999996
endloop
endfacet
facet normal -0.9760669756185439 -0.21747013382731137 0.0
outer loop
vertex 230.43381408972374 50.9433119242574 52.3
vertex 230.69349194508675 50.232189562598066 2.299999999999996
vertex 230.69349194508675 50.232189562598066 52.3
endloop
endfacet
facet normal -0.8865228875622391 -0.46268474129617654 0.0
outer loop
vertex 230.69349194508675 50.232189562598066 2.299999999999996
vertex 230.43381408972374 50.9433119242574 52.3
vertex 230.43381408972374 50.9433119242574 2.299999999999996
endloop
endfacet
facet normal -0.9990937123133208 0.04256470387525007 0.0
outer loop
vertex 230.36703655330882 51.697412953595204 52.3
vertex 230.43381408972374 50.9433119242574 2.299999999999996
vertex 230.43381408972374 50.9433119242574 52.3
endloop
endfacet
facet normal -0.9760669756185439 -0.21747013382731137 0.0
outer loop
vertex 230.43381408972374 50.9433119242574 2.299999999999996
vertex 230.36703655330882 51.697412953595204 52.3
vertex 230.36703655330882 51.697412953595204 2.299999999999996
endloop
endfacet
facet normal -0.9540338635943967 0.29969882735030595 0.0
outer loop
vertex 230.49771011459364 52.44310191167263 52.3
vertex 230.36703655330882 51.697412953595204 2.299999999999996
vertex 230.36703655330882 51.697412953595204 52.3
endloop
endfacet
facet normal -0.9990937123133208 0.04256470387525007 0.0
outer loop
vertex 230.36703655330882 51.697412953595204 2.299999999999996
vertex 230.49771011459364 52.44310191167263 52.3
vertex 230.49771011459364 52.44310191167263 2.299999999999996
endloop
endfacet
endsolid recordPlayer_3d_final
